<ttFont>
    <TTGlyph name="A" xMin="-113" yMin="-240" xMax="513" yMax="753">
      <contour>
        <pt x="433" y="753" on="1"/>
        <pt x="468" y="753" on="0"/>
        <pt x="513" y="714" on="0"/>
        <pt x="510" y="663" on="1"/>
        <pt x="509" y="646" on="0"/>
        <pt x="495" y="553" on="0"/>
        <pt x="475" y="427" on="0"/>
        <pt x="450" y="282" on="0"/>
        <pt x="439" y="213" on="1"/>
        <pt x="460" y="213" on="1"/>
        <pt x="470" y="213" on="0"/>
        <pt x="494" y="215" on="0"/>
        <pt x="507" y="217" on="1"/>
        <pt x="502" y="205" on="0"/>
        <pt x="490" y="184" on="0"/>
        <pt x="484" y="176" on="1"/>
        <pt x="477" y="167" on="0"/>
        <pt x="470" y="160" on="1"/>
        <pt x="461" y="149" on="0"/>
        <pt x="437" y="132" on="0"/>
        <pt x="426" y="127" on="1"/>
        <pt x="419" y="78" on="0"/>
        <pt x="410" y="1" on="0"/>
        <pt x="409" y="-24" on="1"/>
        <pt x="407" y="-62" on="0"/>
        <pt x="411" y="-95" on="1"/>
        <pt x="414" y="-124" on="0"/>
        <pt x="432" y="-184" on="0"/>
        <pt x="452" y="-202" on="1"/>
        <pt x="336" y="-240" on="1"/>
        <pt x="324" y="-223" on="0"/>
        <pt x="313" y="-166" on="0"/>
        <pt x="311" y="-138" on="1"/>
        <pt x="308" y="-105" on="0"/>
        <pt x="310" y="-70" on="1"/>
        <pt x="312" y="-35" on="0"/>
        <pt x="330" y="78" on="0"/>
        <pt x="341" y="145" on="1"/>
        <pt x="321" y="151" on="0"/>
        <pt x="274" y="159" on="0"/>
        <pt x="245" y="159" on="1"/>
        <pt x="219" y="159" on="0"/>
        <pt x="162" y="155" on="0"/>
        <pt x="134" y="152" on="1"/>
        <pt x="122" y="108" on="0"/>
        <pt x="110" y="59" on="1"/>
        <pt x="97" y="6" on="0"/>
        <pt x="76" y="-69" on="0"/>
        <pt x="57" y="-119" on="0"/>
        <pt x="38" y="-149" on="0"/>
        <pt x="27" y="-156" on="1"/>
        <pt x="15" y="-162" on="0"/>
        <pt x="-3" y="-167" on="1"/>
        <pt x="-20" y="-172" on="0"/>
        <pt x="-72" y="-182" on="0"/>
        <pt x="-113" y="-185" on="1"/>
        <pt x="-98" y="-167" on="0"/>
        <pt x="-76" y="-137" on="0"/>
        <pt x="-54" y="-93" on="0"/>
        <pt x="-27" y="-24" on="0"/>
        <pt x="-6" y="32" on="1"/>
        <pt x="3" y="55" on="0"/>
        <pt x="22" y="110" on="0"/>
        <pt x="33" y="139" on="1"/>
        <pt x="-3" y="134" on="0"/>
        <pt x="-53" y="126" on="0"/>
        <pt x="-58" y="124" on="1"/>
        <pt x="-66" y="123" on="0"/>
        <pt x="-71" y="124" on="1"/>
        <pt x="-84" y="126" on="0"/>
        <pt x="-85" y="137" on="1"/>
        <pt x="-84" y="151" on="0"/>
        <pt x="-67" y="161" on="0"/>
        <pt x="-50" y="168" on="1"/>
        <pt x="-42" y="172" on="0"/>
        <pt x="15" y="193" on="0"/>
        <pt x="56" y="205" on="1"/>
        <pt x="71" y="247" on="0"/>
        <pt x="100" y="330" on="0"/>
        <pt x="128" y="406" on="0"/>
        <pt x="154" y="473" on="0"/>
        <pt x="165" y="497" on="1"/>
        <pt x="182" y="534" on="0"/>
        <pt x="235" y="623" on="0"/>
        <pt x="304" y="701" on="0"/>
        <pt x="387" y="753" on="0"/>
      </contour>
      <contour>
        <pt x="422" y="545" on="1"/>
        <pt x="433" y="590" on="0"/>
        <pt x="441" y="648" on="0"/>
        <pt x="439" y="681" on="0"/>
        <pt x="428" y="694" on="0"/>
        <pt x="420" y="694" on="1"/>
        <pt x="407" y="694" on="0"/>
        <pt x="369" y="674" on="0"/>
        <pt x="327" y="637" on="0"/>
        <pt x="286" y="582" on="0"/>
        <pt x="270" y="547" on="1"/>
        <pt x="247" y="495" on="0"/>
        <pt x="189" y="344" on="0"/>
        <pt x="155" y="227" on="1"/>
        <pt x="175" y="230" on="0"/>
        <pt x="214" y="234" on="0"/>
        <pt x="233" y="234" on="1"/>
        <pt x="267" y="234" on="0"/>
        <pt x="329" y="229" on="0"/>
        <pt x="355" y="226" on="1"/>
        <pt x="364" y="274" on="0"/>
        <pt x="383" y="367" on="0"/>
        <pt x="401" y="451" on="0"/>
        <pt x="416" y="521" on="0"/>
      </contour>
    </TTGlyph>
    <TTGlyph name="AE" xMin="-113" yMin="-240" xMax="906" yMax="754">
      <contour>
        <pt x="761" y="754" on="1"/>
        <pt x="799" y="754" on="0"/>
        <pt x="854" y="729" on="0"/>
        <pt x="888" y="692" on="0"/>
        <pt x="905" y="649" on="0"/>
        <pt x="905" y="631" on="1"/>
        <pt x="906" y="598" on="0"/>
        <pt x="887" y="530" on="0"/>
        <pt x="858" y="475" on="0"/>
        <pt x="822" y="440" on="0"/>
        <pt x="806" y="440" on="1"/>
        <pt x="793" y="440" on="0"/>
        <pt x="779" y="444" on="1"/>
        <pt x="767" y="447" on="0"/>
        <pt x="735" y="461" on="0"/>
        <pt x="719" y="475" on="1"/>
        <pt x="744" y="485" on="0"/>
        <pt x="784" y="522" on="0"/>
        <pt x="811" y="568" on="0"/>
        <pt x="825" y="617" on="0"/>
        <pt x="824" y="639" on="1"/>
        <pt x="823" y="671" on="0"/>
        <pt x="796" y="706" on="0"/>
        <pt x="764" y="706" on="1"/>
        <pt x="722" y="706" on="0"/>
        <pt x="639" y="665" on="0"/>
        <pt x="574" y="592" on="0"/>
        <pt x="538" y="491" on="0"/>
        <pt x="544" y="432" on="1"/>
        <pt x="549" y="387" on="0"/>
        <pt x="593" y="325" on="0"/>
        <pt x="613" y="308" on="1"/>
        <pt x="629" y="310" on="0"/>
        <pt x="656" y="313" on="0"/>
        <pt x="670" y="313" on="1"/>
        <pt x="686" y="313" on="0"/>
        <pt x="719" y="301" on="0"/>
        <pt x="720" y="290" on="1"/>
        <pt x="720" y="282" on="0"/>
        <pt x="712" y="262" on="0"/>
        <pt x="696" y="244" on="0"/>
        <pt x="674" y="232" on="0"/>
        <pt x="659" y="232" on="1"/>
        <pt x="647" y="232" on="0"/>
        <pt x="614" y="244" on="0"/>
        <pt x="596" y="253" on="1"/>
        <pt x="559" y="245" on="0"/>
        <pt x="497" y="204" on="0"/>
        <pt x="453" y="148" on="0"/>
        <pt x="429" y="82" on="0"/>
        <pt x="430" y="51" on="1"/>
        <pt x="431" y="22" on="0"/>
        <pt x="447" y="-37" on="0"/>
        <pt x="482" y="-83" on="0"/>
        <pt x="537" y="-112" on="0"/>
        <pt x="577" y="-112" on="1"/>
        <pt x="606" y="-112" on="0"/>
        <pt x="659" y="-87" on="0"/>
        <pt x="704" y="-49" on="0"/>
        <pt x="741" y="-3" on="0"/>
        <pt x="770" y="41" on="0"/>
        <pt x="789" y="77" on="0"/>
        <pt x="793" y="85" on="1"/>
        <pt x="796" y="91" on="0"/>
        <pt x="807" y="97" on="0"/>
        <pt x="817" y="94" on="0"/>
        <pt x="823" y="82" on="0"/>
        <pt x="820" y="70" on="1"/>
        <pt x="812" y="34" on="0"/>
        <pt x="768" y="-55" on="0"/>
        <pt x="699" y="-133" on="0"/>
        <pt x="606" y="-186" on="0"/>
        <pt x="549" y="-186" on="1"/>
        <pt x="514" y="-186" on="0"/>
        <pt x="451" y="-169" on="0"/>
        <pt x="424" y="-154" on="1"/>
        <pt x="428" y="-163" on="0"/>
        <pt x="432" y="-172" on="1"/>
        <pt x="436" y="-180" on="0"/>
        <pt x="446" y="-197" on="0"/>
        <pt x="452" y="-202" on="1"/>
        <pt x="336" y="-240" on="1"/>
        <pt x="324" y="-223" on="0"/>
        <pt x="313" y="-166" on="0"/>
        <pt x="311" y="-138" on="1"/>
        <pt x="308" y="-105" on="0"/>
        <pt x="310" y="-70" on="1"/>
        <pt x="312" y="-35" on="0"/>
        <pt x="330" y="78" on="0"/>
        <pt x="341" y="145" on="1"/>
        <pt x="321" y="151" on="0"/>
        <pt x="274" y="159" on="0"/>
        <pt x="245" y="159" on="1"/>
        <pt x="219" y="159" on="0"/>
        <pt x="162" y="155" on="0"/>
        <pt x="134" y="152" on="1"/>
        <pt x="122" y="108" on="0"/>
        <pt x="110" y="59" on="1"/>
        <pt x="97" y="6" on="0"/>
        <pt x="76" y="-69" on="0"/>
        <pt x="57" y="-119" on="0"/>
        <pt x="38" y="-149" on="0"/>
        <pt x="27" y="-156" on="1"/>
        <pt x="15" y="-162" on="0"/>
        <pt x="-3" y="-167" on="1"/>
        <pt x="-20" y="-172" on="0"/>
        <pt x="-72" y="-182" on="0"/>
        <pt x="-113" y="-185" on="1"/>
        <pt x="-98" y="-167" on="0"/>
        <pt x="-76" y="-137" on="0"/>
        <pt x="-54" y="-93" on="0"/>
        <pt x="-27" y="-24" on="0"/>
        <pt x="-6" y="32" on="1"/>
        <pt x="3" y="55" on="0"/>
        <pt x="22" y="110" on="0"/>
        <pt x="33" y="139" on="1"/>
        <pt x="-3" y="134" on="0"/>
        <pt x="-53" y="126" on="0"/>
        <pt x="-58" y="124" on="1"/>
        <pt x="-66" y="123" on="0"/>
        <pt x="-71" y="124" on="1"/>
        <pt x="-84" y="126" on="0"/>
        <pt x="-85" y="137" on="1"/>
        <pt x="-84" y="151" on="0"/>
        <pt x="-67" y="161" on="0"/>
        <pt x="-50" y="168" on="1"/>
        <pt x="-42" y="172" on="0"/>
        <pt x="15" y="193" on="0"/>
        <pt x="56" y="205" on="1"/>
        <pt x="71" y="247" on="0"/>
        <pt x="100" y="330" on="0"/>
        <pt x="128" y="406" on="0"/>
        <pt x="154" y="473" on="0"/>
        <pt x="165" y="497" on="1"/>
        <pt x="182" y="534" on="0"/>
        <pt x="235" y="623" on="0"/>
        <pt x="304" y="701" on="0"/>
        <pt x="387" y="753" on="0"/>
        <pt x="433" y="753" on="1"/>
        <pt x="468" y="753" on="0"/>
        <pt x="513" y="714" on="0"/>
        <pt x="510" y="663" on="1"/>
        <pt x="510" y="658" on="0"/>
        <pt x="509" y="648" on="0"/>
        <pt x="508" y="641" on="1"/>
        <pt x="558" y="695" on="0"/>
        <pt x="695" y="754" on="0"/>
      </contour>
      <contour>
        <pt x="422" y="545" on="1"/>
        <pt x="433" y="591" on="0"/>
        <pt x="441" y="649" on="0"/>
        <pt x="439" y="682" on="0"/>
        <pt x="428" y="694" on="0"/>
        <pt x="420" y="694" on="1"/>
        <pt x="407" y="694" on="0"/>
        <pt x="369" y="674" on="0"/>
        <pt x="327" y="637" on="0"/>
        <pt x="286" y="582" on="0"/>
        <pt x="270" y="547" on="1"/>
        <pt x="247" y="495" on="0"/>
        <pt x="189" y="344" on="0"/>
        <pt x="155" y="227" on="1"/>
        <pt x="175" y="230" on="0"/>
        <pt x="214" y="234" on="0"/>
        <pt x="233" y="234" on="1"/>
        <pt x="267" y="234" on="0"/>
        <pt x="329" y="229" on="0"/>
        <pt x="355" y="226" on="1"/>
        <pt x="364" y="274" on="0"/>
        <pt x="383" y="367" on="0"/>
        <pt x="401" y="451" on="0"/>
        <pt x="416" y="521" on="0"/>
      </contour>
      <contour>
        <pt x="443" y="240" on="1"/>
        <pt x="488" y="269" on="0"/>
        <pt x="540" y="288" on="1"/>
        <pt x="517" y="300" on="0"/>
        <pt x="477" y="335" on="0"/>
        <pt x="463" y="356" on="1"/>
        <pt x="458" y="327" on="0"/>
        <pt x="448" y="269" on="0"/>
      </contour>
    </TTGlyph>
    <TTGlyph name="Aacute" xMin="-113" yMin="-240" xMax="526" yMax="949">
      <component glyphName="A" x="0" y="0" flags="0x204"/>
      <component glyphName="acute" x="82" y="246" flags="0x4"/>
    </TTGlyph>
    <TTGlyph name="Acircumflex" xMin="-113" yMin="-240" xMax="578" yMax="928">
      <component glyphName="A" x="0" y="0" flags="0x204"/>
      <component glyphName="circumflex" x="82" y="225" flags="0x4"/>
    </TTGlyph>
    <TTGlyph name="Adieresis" xMin="-113" yMin="-240" xMax="600" yMax="898">
      <component glyphName="A" x="0" y="0" flags="0x204"/>
      <component glyphName="dieresis" x="113" y="225" flags="0x4"/>
    </TTGlyph>
    <TTGlyph name="Agrave" xMin="-113" yMin="-240" xMax="529" yMax="957">
      <component glyphName="A" x="0" y="0" flags="0x204"/>
      <component glyphName="grave" x="82" y="256" flags="0x4"/>
    </TTGlyph>
    <TTGlyph name="Aring" xMin="-113" yMin="-240" xMax="512" yMax="865">
      <contour>
        <pt x="422" y="545" on="1"/>
        <pt x="433" y="590" on="0"/>
        <pt x="441" y="648" on="0"/>
        <pt x="439" y="681" on="0"/>
        <pt x="428" y="694" on="0"/>
        <pt x="420" y="694" on="1"/>
        <pt x="407" y="694" on="0"/>
        <pt x="369" y="674" on="0"/>
        <pt x="327" y="637" on="0"/>
        <pt x="286" y="582" on="0"/>
        <pt x="270" y="547" on="1"/>
        <pt x="247" y="495" on="0"/>
        <pt x="189" y="344" on="0"/>
        <pt x="155" y="227" on="1"/>
        <pt x="175" y="230" on="0"/>
        <pt x="214" y="234" on="0"/>
        <pt x="233" y="234" on="1"/>
        <pt x="267" y="234" on="0"/>
        <pt x="329" y="229" on="0"/>
        <pt x="355" y="226" on="1"/>
        <pt x="364" y="274" on="0"/>
        <pt x="383" y="367" on="0"/>
        <pt x="401" y="451" on="0"/>
        <pt x="416" y="521" on="0"/>
      </contour>
      <contour>
        <pt x="446" y="865" on="1"/>
        <pt x="482" y="865" on="0"/>
        <pt x="508" y="831" on="0"/>
        <pt x="508" y="813" on="1"/>
        <pt x="508" y="797" on="0"/>
        <pt x="487" y="758" on="0"/>
        <pt x="466" y="748" on="1"/>
        <pt x="488" y="740" on="0"/>
        <pt x="512" y="701" on="0"/>
        <pt x="510" y="663" on="1"/>
        <pt x="509" y="646" on="0"/>
        <pt x="495" y="553" on="0"/>
        <pt x="475" y="427" on="0"/>
        <pt x="450" y="282" on="0"/>
        <pt x="439" y="213" on="1"/>
        <pt x="460" y="213" on="1"/>
        <pt x="470" y="213" on="0"/>
        <pt x="494" y="215" on="0"/>
        <pt x="507" y="217" on="1"/>
        <pt x="502" y="205" on="0"/>
        <pt x="490" y="184" on="0"/>
        <pt x="484" y="176" on="1"/>
        <pt x="477" y="167" on="0"/>
        <pt x="470" y="160" on="1"/>
        <pt x="461" y="149" on="0"/>
        <pt x="437" y="132" on="0"/>
        <pt x="426" y="127" on="1"/>
        <pt x="419" y="78" on="0"/>
        <pt x="410" y="1" on="0"/>
        <pt x="409" y="-24" on="1"/>
        <pt x="407" y="-62" on="0"/>
        <pt x="411" y="-95" on="1"/>
        <pt x="414" y="-124" on="0"/>
        <pt x="432" y="-184" on="0"/>
        <pt x="452" y="-202" on="1"/>
        <pt x="336" y="-240" on="1"/>
        <pt x="324" y="-223" on="0"/>
        <pt x="313" y="-166" on="0"/>
        <pt x="311" y="-138" on="1"/>
        <pt x="308" y="-105" on="0"/>
        <pt x="310" y="-70" on="1"/>
        <pt x="312" y="-35" on="0"/>
        <pt x="330" y="78" on="0"/>
        <pt x="341" y="145" on="1"/>
        <pt x="321" y="151" on="0"/>
        <pt x="274" y="159" on="0"/>
        <pt x="245" y="159" on="1"/>
        <pt x="219" y="159" on="0"/>
        <pt x="162" y="155" on="0"/>
        <pt x="134" y="152" on="1"/>
        <pt x="122" y="108" on="0"/>
        <pt x="110" y="59" on="1"/>
        <pt x="97" y="6" on="0"/>
        <pt x="76" y="-69" on="0"/>
        <pt x="57" y="-119" on="0"/>
        <pt x="38" y="-149" on="0"/>
        <pt x="27" y="-156" on="1"/>
        <pt x="15" y="-162" on="0"/>
        <pt x="-3" y="-167" on="1"/>
        <pt x="-20" y="-172" on="0"/>
        <pt x="-72" y="-182" on="0"/>
        <pt x="-113" y="-185" on="1"/>
        <pt x="-98" y="-167" on="0"/>
        <pt x="-76" y="-137" on="0"/>
        <pt x="-54" y="-93" on="0"/>
        <pt x="-27" y="-24" on="0"/>
        <pt x="-6" y="32" on="1"/>
        <pt x="3" y="55" on="0"/>
        <pt x="22" y="110" on="0"/>
        <pt x="33" y="139" on="1"/>
        <pt x="-3" y="134" on="0"/>
        <pt x="-53" y="126" on="0"/>
        <pt x="-58" y="124" on="1"/>
        <pt x="-66" y="123" on="0"/>
        <pt x="-71" y="124" on="1"/>
        <pt x="-84" y="126" on="0"/>
        <pt x="-85" y="137" on="1"/>
        <pt x="-84" y="151" on="0"/>
        <pt x="-67" y="161" on="0"/>
        <pt x="-50" y="168" on="1"/>
        <pt x="-42" y="172" on="0"/>
        <pt x="15" y="193" on="0"/>
        <pt x="56" y="205" on="1"/>
        <pt x="71" y="247" on="0"/>
        <pt x="100" y="330" on="0"/>
        <pt x="128" y="406" on="0"/>
        <pt x="154" y="473" on="0"/>
        <pt x="165" y="497" on="1"/>
        <pt x="180" y="530" on="0"/>
        <pt x="227" y="610" on="0"/>
        <pt x="286" y="682" on="0"/>
        <pt x="357" y="738" on="0"/>
        <pt x="397" y="748" on="1"/>
        <pt x="380" y="756" on="0"/>
        <pt x="370" y="783" on="0"/>
        <pt x="370" y="796" on="1"/>
        <pt x="370" y="809" on="0"/>
        <pt x="382" y="833" on="0"/>
        <pt x="403" y="853" on="0"/>
        <pt x="431" y="865" on="0"/>
      </contour>
      <contour>
        <pt x="437" y="776" on="1"/>
        <pt x="451" y="776" on="0"/>
        <pt x="464" y="799" on="0"/>
        <pt x="464" y="807" on="1"/>
        <pt x="464" y="815" on="0"/>
        <pt x="455" y="829" on="0"/>
        <pt x="441" y="829" on="1"/>
        <pt x="430" y="829" on="0"/>
        <pt x="414" y="811" on="0"/>
        <pt x="414" y="800" on="1"/>
        <pt x="414" y="792" on="0"/>
        <pt x="423" y="776" on="0"/>
      </contour>
    </TTGlyph>
    <TTGlyph name="Atilde" xMin="-113" yMin="-240" xMax="606" yMax="902">
      <component glyphName="A" x="0" y="0" flags="0x204"/>
      <component glyphName="tilde" x="97" y="219" flags="0x4"/>
    </TTGlyph>
    <TTGlyph name="B" xMin="-5" yMin="-190" xMax="598" yMax="767">
      <contour>
        <pt x="535" y="94" on="1"/>
        <pt x="529" y="27" on="0"/>
        <pt x="461" y="-79" on="0"/>
        <pt x="356" y="-152" on="0"/>
        <pt x="224" y="-190" on="0"/>
        <pt x="154" y="-190" on="1"/>
        <pt x="128" y="-190" on="0"/>
        <pt x="83" y="-183" on="0"/>
        <pt x="47" y="-173" on="0"/>
        <pt x="22" y="-164" on="0"/>
        <pt x="17" y="-161" on="1"/>
        <pt x="8" y="-156" on="0"/>
        <pt x="-3" y="-141" on="0"/>
        <pt x="-4" y="-127" on="1"/>
        <pt x="-5" y="-119" on="0"/>
        <pt x="-5" y="-110" on="0"/>
        <pt x="-3" y="-100" on="0"/>
        <pt x="2" y="-83" on="0"/>
        <pt x="6" y="-68" on="1"/>
        <pt x="8" y="-59" on="0"/>
        <pt x="35" y="36" on="0"/>
        <pt x="73" y="173" on="0"/>
        <pt x="118" y="333" on="0"/>
        <pt x="160" y="483" on="0"/>
        <pt x="194" y="604" on="0"/>
        <pt x="202" y="633" on="1"/>
        <pt x="188" y="623" on="0"/>
        <pt x="161" y="601" on="0"/>
        <pt x="147" y="588" on="1"/>
        <pt x="132" y="574" on="0"/>
        <pt x="103" y="583" on="0"/>
        <pt x="97" y="603" on="1"/>
        <pt x="95" y="613" on="0"/>
        <pt x="94" y="624" on="1"/>
        <pt x="93" y="633" on="0"/>
        <pt x="96" y="656" on="0"/>
        <pt x="102" y="667" on="1"/>
        <pt x="135" y="687" on="0"/>
        <pt x="198" y="715" on="0"/>
        <pt x="227" y="726" on="1"/>
        <pt x="233" y="743" on="0"/>
        <pt x="248" y="761" on="0"/>
        <pt x="264" y="767" on="0"/>
        <pt x="282" y="765" on="0"/>
        <pt x="292" y="763" on="1"/>
        <pt x="314" y="758" on="0"/>
        <pt x="321" y="749" on="1"/>
        <pt x="335" y="751" on="0"/>
        <pt x="361" y="753" on="0"/>
        <pt x="375" y="753" on="1"/>
        <pt x="433" y="753" on="0"/>
        <pt x="519" y="723" on="0"/>
        <pt x="574" y="672" on="0"/>
        <pt x="598" y="604" on="0"/>
        <pt x="595" y="566" on="1"/>
        <pt x="592" y="533" on="0"/>
        <pt x="563" y="462" on="0"/>
        <pt x="515" y="393" on="0"/>
        <pt x="451" y="328" on="0"/>
        <pt x="412" y="301" on="1"/>
        <pt x="443" y="283" on="0"/>
        <pt x="491" y="235" on="0"/>
        <pt x="523" y="179" on="0"/>
        <pt x="537" y="121" on="0"/>
      </contour>
      <contour>
        <pt x="204" y="339" on="1"/>
        <pt x="202" y="329" on="0"/>
        <pt x="197" y="309" on="0"/>
        <pt x="194" y="298" on="1"/>
        <pt x="206" y="311" on="0"/>
        <pt x="263" y="333" on="0"/>
        <pt x="289" y="333" on="1"/>
        <pt x="303" y="333" on="0"/>
        <pt x="329" y="330" on="0"/>
        <pt x="341" y="328" on="1"/>
        <pt x="369" y="346" on="0"/>
        <pt x="421" y="403" on="0"/>
        <pt x="460" y="468" on="0"/>
        <pt x="485" y="536" on="0"/>
        <pt x="488" y="565" on="1"/>
        <pt x="494" y="634" on="0"/>
        <pt x="435" y="701" on="0"/>
        <pt x="381" y="701" on="1"/>
        <pt x="345" y="701" on="0"/>
        <pt x="306" y="688" on="1"/>
        <pt x="298" y="662" on="0"/>
        <pt x="274" y="585" on="0"/>
        <pt x="247" y="493" on="0"/>
        <pt x="217" y="391" on="0"/>
      </contour>
      <contour>
        <pt x="187" y="273" on="1"/>
        <pt x="173" y="219" on="0"/>
        <pt x="159" y="156" on="1"/>
        <pt x="146" y="102" on="0"/>
        <pt x="116" y="-41" on="0"/>
        <pt x="99" y="-122" on="1"/>
        <pt x="105" y="-127" on="0"/>
        <pt x="125" y="-131" on="0"/>
        <pt x="135" y="-133" on="1"/>
        <pt x="146" y="-135" on="0"/>
        <pt x="159" y="-135" on="1"/>
        <pt x="204" y="-135" on="0"/>
        <pt x="297" y="-98" on="0"/>
        <pt x="375" y="-30" on="0"/>
        <pt x="428" y="67" on="0"/>
        <pt x="433" y="127" on="1"/>
        <pt x="435" y="154" on="0"/>
        <pt x="424" y="197" on="0"/>
        <pt x="403" y="232" on="0"/>
        <pt x="376" y="259" on="0"/>
        <pt x="361" y="269" on="1"/>
        <pt x="315" y="244" on="0"/>
        <pt x="260" y="227" on="1"/>
        <pt x="242" y="222" on="0"/>
        <pt x="216" y="229" on="0"/>
        <pt x="198" y="244" on="0"/>
        <pt x="188" y="264" on="0"/>
      </contour>
    </TTGlyph>
    <TTGlyph name="C" xMin="-2" yMin="-186" xMax="568" yMax="756">
      <contour>
        <pt x="215" y="-186" on="1"/>
        <pt x="165" y="-186" on="0"/>
        <pt x="84" y="-138" on="0"/>
        <pt x="27" y="-54" on="0"/>
        <pt x="-2" y="59" on="0"/>
        <pt x="0" y="123" on="1"/>
        <pt x="2" y="183" on="0"/>
        <pt x="29" y="323" on="0"/>
        <pt x="79" y="464" on="0"/>
        <pt x="150" y="595" on="0"/>
        <pt x="242" y="695" on="0"/>
        <pt x="354" y="756" on="0"/>
        <pt x="421" y="756" on="1"/>
        <pt x="462" y="756" on="0"/>
        <pt x="519" y="723" on="0"/>
        <pt x="554" y="669" on="0"/>
        <pt x="568" y="601" on="0"/>
        <pt x="567" y="566" on="1"/>
        <pt x="565" y="533" on="0"/>
        <pt x="550" y="471" on="0"/>
        <pt x="523" y="422" on="0"/>
        <pt x="484" y="393" on="0"/>
        <pt x="459" y="393" on="1"/>
        <pt x="447" y="394" on="0"/>
        <pt x="436" y="401" on="1"/>
        <pt x="426" y="407" on="0"/>
        <pt x="405" y="431" on="0"/>
        <pt x="396" y="454" on="1"/>
        <pt x="423" y="465" on="0"/>
        <pt x="454" y="520" on="0"/>
        <pt x="462" y="550" on="1"/>
        <pt x="471" y="584" on="0"/>
        <pt x="474" y="626" on="1"/>
        <pt x="476" y="667" on="0"/>
        <pt x="438" y="705" on="0"/>
        <pt x="414" y="705" on="1"/>
        <pt x="367" y="705" on="0"/>
        <pt x="263" y="607" on="0"/>
        <pt x="174" y="440" on="0"/>
        <pt x="113" y="218" on="0"/>
        <pt x="108" y="94" on="1"/>
        <pt x="106" y="38" on="0"/>
        <pt x="125" y="-40" on="0"/>
        <pt x="160" y="-90" on="0"/>
        <pt x="204" y="-112" on="0"/>
        <pt x="226" y="-112" on="1"/>
        <pt x="261" y="-112" on="0"/>
        <pt x="323" y="-82" on="0"/>
        <pt x="374" y="-38" on="0"/>
        <pt x="411" y="9" on="0"/>
        <pt x="421" y="27" on="1"/>
        <pt x="428" y="40" on="0"/>
        <pt x="444" y="46" on="0"/>
        <pt x="456" y="37" on="0"/>
        <pt x="460" y="18" on="0"/>
        <pt x="454" y="5" on="1"/>
        <pt x="437" y="-29" on="0"/>
        <pt x="388" y="-97" on="0"/>
        <pt x="327" y="-152" on="0"/>
        <pt x="255" y="-186" on="0"/>
      </contour>
    </TTGlyph>
    <TTGlyph name="Ccedilla" xMin="-2" yMin="-401" xMax="568" yMax="756">
      <contour>
        <pt x="198" y="-239" on="1"/>
        <pt x="253" y="-237" on="0"/>
        <pt x="305" y="-273" on="0"/>
        <pt x="300" y="-305" on="1"/>
        <pt x="298" y="-322" on="0"/>
        <pt x="272" y="-353" on="0"/>
        <pt x="230" y="-378" on="0"/>
        <pt x="175" y="-396" on="0"/>
        <pt x="145" y="-399" on="1"/>
        <pt x="132" y="-401" on="0"/>
        <pt x="119" y="-393" on="0"/>
        <pt x="118" y="-381" on="0"/>
        <pt x="130" y="-370" on="0"/>
        <pt x="143" y="-367" on="1"/>
        <pt x="176" y="-359" on="0"/>
        <pt x="224" y="-331" on="0"/>
        <pt x="227" y="-313" on="1"/>
        <pt x="229" y="-296" on="0"/>
        <pt x="190" y="-276" on="0"/>
        <pt x="156" y="-280" on="1"/>
        <pt x="129" y="-282" on="0"/>
        <pt x="132" y="-260" on="1"/>
        <pt x="133" y="-256" on="0"/>
        <pt x="142" y="-233" on="0"/>
        <pt x="152" y="-206" on="0"/>
        <pt x="162" y="-183" on="0"/>
        <pt x="164" y="-179" on="1"/>
        <pt x="125" y="-168" on="0"/>
        <pt x="63" y="-113" on="0"/>
        <pt x="20" y="-33" on="0"/>
        <pt x="-2" y="67" on="0"/>
        <pt x="0" y="123" on="1"/>
        <pt x="2" y="183" on="0"/>
        <pt x="29" y="323" on="0"/>
        <pt x="79" y="464" on="0"/>
        <pt x="150" y="595" on="0"/>
        <pt x="242" y="695" on="0"/>
        <pt x="355" y="756" on="0"/>
        <pt x="421" y="756" on="1"/>
        <pt x="462" y="756" on="0"/>
        <pt x="519" y="723" on="0"/>
        <pt x="554" y="669" on="0"/>
        <pt x="568" y="601" on="0"/>
        <pt x="567" y="566" on="1"/>
        <pt x="565" y="533" on="0"/>
        <pt x="550" y="471" on="0"/>
        <pt x="523" y="422" on="0"/>
        <pt x="484" y="393" on="0"/>
        <pt x="459" y="393" on="1"/>
        <pt x="447" y="394" on="0"/>
        <pt x="436" y="401" on="1"/>
        <pt x="426" y="407" on="0"/>
        <pt x="405" y="431" on="0"/>
        <pt x="396" y="454" on="1"/>
        <pt x="423" y="465" on="0"/>
        <pt x="454" y="520" on="0"/>
        <pt x="462" y="550" on="1"/>
        <pt x="471" y="584" on="0"/>
        <pt x="474" y="626" on="1"/>
        <pt x="476" y="667" on="0"/>
        <pt x="438" y="705" on="0"/>
        <pt x="414" y="705" on="1"/>
        <pt x="367" y="705" on="0"/>
        <pt x="263" y="607" on="0"/>
        <pt x="174" y="440" on="0"/>
        <pt x="113" y="218" on="0"/>
        <pt x="108" y="94" on="1"/>
        <pt x="106" y="38" on="0"/>
        <pt x="125" y="-40" on="0"/>
        <pt x="160" y="-90" on="0"/>
        <pt x="204" y="-112" on="0"/>
        <pt x="226" y="-112" on="1"/>
        <pt x="261" y="-112" on="0"/>
        <pt x="323" y="-82" on="0"/>
        <pt x="374" y="-38" on="0"/>
        <pt x="411" y="9" on="0"/>
        <pt x="421" y="27" on="1"/>
        <pt x="428" y="40" on="0"/>
        <pt x="444" y="46" on="0"/>
        <pt x="456" y="37" on="0"/>
        <pt x="460" y="18" on="0"/>
        <pt x="454" y="5" on="1"/>
        <pt x="438" y="-28" on="0"/>
        <pt x="391" y="-94" on="0"/>
        <pt x="333" y="-148" on="0"/>
        <pt x="263" y="-183" on="0"/>
        <pt x="225" y="-186" on="1"/>
        <pt x="222" y="-194" on="0"/>
        <pt x="209" y="-219" on="0"/>
      </contour>
    </TTGlyph>
    <TTGlyph name="D" xMin="-6" yMin="-187" xMax="617" yMax="753">
      <contour>
        <pt x="4" y="-129" on="1"/>
        <pt x="-5" y="-123" on="0"/>
        <pt x="-6" y="-109" on="0"/>
        <pt x="-2" y="-102" on="1"/>
        <pt x="2" y="-94" on="0"/>
        <pt x="10" y="-86" on="1"/>
        <pt x="18" y="-79" on="0"/>
        <pt x="40" y="-22" on="0"/>
        <pt x="65" y="59" on="0"/>
        <pt x="90" y="155" on="0"/>
        <pt x="112" y="247" on="0"/>
        <pt x="128" y="325" on="0"/>
        <pt x="132" y="348" on="1"/>
        <pt x="137" y="376" on="0"/>
        <pt x="143" y="409" on="1"/>
        <pt x="148" y="438" on="0"/>
        <pt x="160" y="515" on="0"/>
        <pt x="165" y="562" on="1"/>
        <pt x="245" y="598" on="1"/>
        <pt x="262" y="606" on="0"/>
        <pt x="276" y="583" on="0"/>
        <pt x="269" y="547" on="1"/>
        <pt x="266" y="529" on="0"/>
        <pt x="250" y="448" on="0"/>
        <pt x="229" y="351" on="0"/>
        <pt x="206" y="250" on="0"/>
        <pt x="195" y="211" on="1"/>
        <pt x="185" y="174" on="0"/>
        <pt x="172" y="126" on="1"/>
        <pt x="149" y="44" on="0"/>
        <pt x="108" y="-98" on="1"/>
        <pt x="122" y="-122" on="0"/>
        <pt x="160" y="-122" on="1"/>
        <pt x="202" y="-122" on="0"/>
        <pt x="313" y="-58" on="0"/>
        <pt x="417" y="70" on="0"/>
        <pt x="496" y="263" on="0"/>
        <pt x="506" y="392" on="1"/>
        <pt x="511" y="462" on="0"/>
        <pt x="487" y="568" on="0"/>
        <pt x="438" y="640" on="0"/>
        <pt x="367" y="676" on="0"/>
        <pt x="324" y="676" on="1"/>
        <pt x="223" y="676" on="0"/>
        <pt x="115" y="592" on="1"/>
        <pt x="110" y="675" on="1"/>
        <pt x="136" y="704" on="0"/>
        <pt x="203" y="735" on="0"/>
        <pt x="232" y="743" on="1"/>
        <pt x="266" y="752" on="0"/>
        <pt x="301" y="753" on="1"/>
        <pt x="365" y="753" on="0"/>
        <pt x="484" y="704" on="0"/>
        <pt x="571" y="604" on="0"/>
        <pt x="617" y="453" on="0"/>
        <pt x="610" y="352" on="1"/>
        <pt x="606" y="294" on="0"/>
        <pt x="567" y="169" on="0"/>
        <pt x="504" y="49" on="0"/>
        <pt x="418" y="-59" on="0"/>
        <pt x="316" y="-140" on="0"/>
        <pt x="200" y="-187" on="0"/>
        <pt x="138" y="-187" on="1"/>
        <pt x="119" y="-186" on="0"/>
        <pt x="97" y="-180" on="1"/>
        <pt x="78" y="-175" on="0"/>
        <pt x="30" y="-151" on="0"/>
      </contour>
    </TTGlyph>
    <TTGlyph name="E" xMin="-32" yMin="-186" xMax="552" yMax="754">
      <contour>
        <pt x="195" y="-186" on="1"/>
        <pt x="148" y="-186" on="0"/>
        <pt x="67" y="-156" on="0"/>
        <pt x="6" y="-102" on="0"/>
        <pt x="-30" y="-29" on="0"/>
        <pt x="-31" y="14" on="1"/>
        <pt x="-32" y="70" on="0"/>
        <pt x="5" y="158" on="0"/>
        <pt x="66" y="226" on="0"/>
        <pt x="144" y="273" on="0"/>
        <pt x="185" y="288" on="1"/>
        <pt x="163" y="300" on="0"/>
        <pt x="124" y="334" on="0"/>
        <pt x="94" y="376" on="0"/>
        <pt x="76" y="422" on="0"/>
        <pt x="76" y="445" on="1"/>
        <pt x="74" y="515" on="0"/>
        <pt x="135" y="629" on="0"/>
        <pt x="231" y="710" on="0"/>
        <pt x="350" y="754" on="0"/>
        <pt x="407" y="754" on="1"/>
        <pt x="445" y="754" on="0"/>
        <pt x="499" y="729" on="0"/>
        <pt x="533" y="692" on="0"/>
        <pt x="550" y="649" on="0"/>
        <pt x="551" y="631" on="1"/>
        <pt x="552" y="598" on="0"/>
        <pt x="533" y="530" on="0"/>
        <pt x="504" y="475" on="0"/>
        <pt x="468" y="440" on="0"/>
        <pt x="451" y="440" on="1"/>
        <pt x="438" y="440" on="0"/>
        <pt x="424" y="444" on="1"/>
        <pt x="412" y="447" on="0"/>
        <pt x="380" y="461" on="0"/>
        <pt x="364" y="475" on="1"/>
        <pt x="390" y="485" on="0"/>
        <pt x="430" y="522" on="0"/>
        <pt x="457" y="568" on="0"/>
        <pt x="470" y="617" on="0"/>
        <pt x="470" y="639" on="1"/>
        <pt x="469" y="671" on="0"/>
        <pt x="441" y="706" on="0"/>
        <pt x="410" y="706" on="1"/>
        <pt x="368" y="706" on="0"/>
        <pt x="284" y="665" on="0"/>
        <pt x="219" y="592" on="0"/>
        <pt x="182" y="491" on="0"/>
        <pt x="188" y="432" on="1"/>
        <pt x="193" y="387" on="0"/>
        <pt x="238" y="325" on="0"/>
        <pt x="258" y="308" on="1"/>
        <pt x="274" y="310" on="0"/>
        <pt x="302" y="313" on="0"/>
        <pt x="314" y="313" on="1"/>
        <pt x="331" y="313" on="0"/>
        <pt x="365" y="301" on="0"/>
        <pt x="365" y="290" on="1"/>
        <pt x="365" y="282" on="0"/>
        <pt x="358" y="262" on="0"/>
        <pt x="342" y="244" on="0"/>
        <pt x="320" y="232" on="0"/>
        <pt x="305" y="232" on="1"/>
        <pt x="293" y="232" on="0"/>
        <pt x="259" y="244" on="0"/>
        <pt x="242" y="253" on="1"/>
        <pt x="204" y="245" on="0"/>
        <pt x="142" y="204" on="0"/>
        <pt x="99" y="148" on="0"/>
        <pt x="75" y="82" on="0"/>
        <pt x="76" y="51" on="1"/>
        <pt x="77" y="22" on="0"/>
        <pt x="93" y="-37" on="0"/>
        <pt x="127" y="-83" on="0"/>
        <pt x="182" y="-112" on="0"/>
        <pt x="221" y="-112" on="1"/>
        <pt x="250" y="-112" on="0"/>
        <pt x="303" y="-87" on="0"/>
        <pt x="349" y="-49" on="0"/>
        <pt x="387" y="-3" on="0"/>
        <pt x="415" y="41" on="0"/>
        <pt x="434" y="77" on="0"/>
        <pt x="438" y="85" on="1"/>
        <pt x="441" y="91" on="0"/>
        <pt x="452" y="97" on="0"/>
        <pt x="463" y="94" on="0"/>
        <pt x="469" y="82" on="0"/>
        <pt x="466" y="70" on="1"/>
        <pt x="458" y="34" on="0"/>
        <pt x="414" y="-55" on="0"/>
        <pt x="345" y="-133" on="0"/>
        <pt x="252" y="-186" on="0"/>
      </contour>
    </TTGlyph>
    <TTGlyph name="Eacute" xMin="-32" yMin="-186" xMax="552" yMax="949">
      <component glyphName="E" x="0" y="0" flags="0x204"/>
      <component glyphName="acute" x="72" y="246" flags="0x4"/>
    </TTGlyph>
    <TTGlyph name="Ecircumflex" xMin="-32" yMin="-186" xMax="568" yMax="939">
      <component glyphName="E" x="0" y="0" flags="0x204"/>
      <component glyphName="circumflex" x="72" y="236" flags="0x4"/>
    </TTGlyph>
    <TTGlyph name="Edieresis" xMin="-32" yMin="-186" xMax="569" yMax="898">
      <component glyphName="E" x="0" y="0" flags="0x204"/>
      <component glyphName="dieresis" x="82" y="225" flags="0x4"/>
    </TTGlyph>
    <TTGlyph name="Egrave" xMin="-32" yMin="-186" xMax="552" yMax="947">
      <component glyphName="E" x="0" y="0" flags="0x204"/>
      <component glyphName="grave" x="51" y="246" flags="0x4"/>
    </TTGlyph>
    <TTGlyph name="Eth" xMin="-27" yMin="-187" xMax="617" yMax="753">
      <contour>
        <pt x="300" y="258" on="1"/>
        <pt x="263" y="260" on="0"/>
        <pt x="207" y="258" on="1"/>
        <pt x="204" y="246" on="0"/>
        <pt x="198" y="222" on="0"/>
        <pt x="195" y="211" on="1"/>
        <pt x="185" y="174" on="0"/>
        <pt x="172" y="126" on="1"/>
        <pt x="149" y="44" on="0"/>
        <pt x="108" y="-98" on="1"/>
        <pt x="122" y="-122" on="0"/>
        <pt x="160" y="-122" on="1"/>
        <pt x="202" y="-122" on="0"/>
        <pt x="313" y="-58" on="0"/>
        <pt x="417" y="70" on="0"/>
        <pt x="496" y="263" on="0"/>
        <pt x="506" y="392" on="1"/>
        <pt x="511" y="462" on="0"/>
        <pt x="487" y="568" on="0"/>
        <pt x="438" y="640" on="0"/>
        <pt x="367" y="676" on="0"/>
        <pt x="324" y="676" on="1"/>
        <pt x="223" y="676" on="0"/>
        <pt x="115" y="592" on="1"/>
        <pt x="110" y="675" on="1"/>
        <pt x="136" y="704" on="0"/>
        <pt x="203" y="735" on="0"/>
        <pt x="232" y="743" on="1"/>
        <pt x="266" y="752" on="0"/>
        <pt x="301" y="753" on="1"/>
        <pt x="365" y="753" on="0"/>
        <pt x="484" y="704" on="0"/>
        <pt x="571" y="604" on="0"/>
        <pt x="617" y="453" on="0"/>
        <pt x="610" y="352" on="1"/>
        <pt x="606" y="294" on="0"/>
        <pt x="567" y="169" on="0"/>
        <pt x="504" y="49" on="0"/>
        <pt x="418" y="-59" on="0"/>
        <pt x="316" y="-140" on="0"/>
        <pt x="200" y="-187" on="0"/>
        <pt x="138" y="-187" on="1"/>
        <pt x="119" y="-186" on="0"/>
        <pt x="97" y="-180" on="1"/>
        <pt x="78" y="-175" on="0"/>
        <pt x="30" y="-151" on="0"/>
        <pt x="4" y="-129" on="1"/>
        <pt x="-5" y="-123" on="0"/>
        <pt x="-6" y="-109" on="0"/>
        <pt x="-2" y="-102" on="1"/>
        <pt x="2" y="-94" on="0"/>
        <pt x="10" y="-86" on="1"/>
        <pt x="19" y="-79" on="0"/>
        <pt x="46" y="-6" on="0"/>
        <pt x="75" y="94" on="0"/>
        <pt x="103" y="207" on="0"/>
        <pt x="114" y="255" on="1"/>
        <pt x="88" y="253" on="0"/>
        <pt x="11" y="245" on="0"/>
        <pt x="-26" y="236" on="1"/>
        <pt x="-27" y="243" on="0"/>
        <pt x="-25" y="259" on="0"/>
        <pt x="-23" y="266" on="1"/>
        <pt x="-21" y="274" on="0"/>
        <pt x="-18" y="281" on="1"/>
        <pt x="-14" y="290" on="0"/>
        <pt x="1" y="312" on="0"/>
        <pt x="7" y="315" on="1"/>
        <pt x="15" y="318" on="0"/>
        <pt x="85" y="325" on="0"/>
        <pt x="129" y="327" on="1"/>
        <pt x="130" y="339" on="0"/>
        <pt x="132" y="348" on="1"/>
        <pt x="137" y="376" on="0"/>
        <pt x="143" y="409" on="1"/>
        <pt x="148" y="438" on="0"/>
        <pt x="160" y="515" on="0"/>
        <pt x="165" y="562" on="1"/>
        <pt x="245" y="598" on="1"/>
        <pt x="262" y="606" on="0"/>
        <pt x="276" y="583" on="0"/>
        <pt x="269" y="547" on="1"/>
        <pt x="267" y="535" on="0"/>
        <pt x="258" y="488" on="0"/>
        <pt x="246" y="429" on="0"/>
        <pt x="231" y="361" on="0"/>
        <pt x="223" y="327" on="1"/>
        <pt x="252" y="326" on="0"/>
        <pt x="298" y="324" on="0"/>
        <pt x="319" y="322" on="1"/>
        <pt x="334" y="320" on="0"/>
        <pt x="339" y="305" on="0"/>
        <pt x="333" y="288" on="1"/>
        <pt x="327" y="271" on="0"/>
        <pt x="312" y="257" on="0"/>
      </contour>
    </TTGlyph>
    <TTGlyph name="Euro" xMin="-48" yMin="69" xMax="394" yMax="671">
      <contour>
        <pt x="293" y="671" on="1"/>
        <pt x="314" y="670" on="0"/>
        <pt x="333" y="660" on="1"/>
        <pt x="350" y="652" on="0"/>
        <pt x="383" y="615" on="0"/>
        <pt x="394" y="582" on="1"/>
        <pt x="392" y="580" on="0"/>
        <pt x="379" y="558" on="0"/>
        <pt x="367" y="550" on="1"/>
        <pt x="359" y="545" on="0"/>
        <pt x="346" y="540" on="0"/>
        <pt x="341" y="544" on="1"/>
        <pt x="337" y="546" on="0"/>
        <pt x="334" y="558" on="0"/>
        <pt x="334" y="563" on="1"/>
        <pt x="334" y="572" on="0"/>
        <pt x="329" y="594" on="0"/>
        <pt x="319" y="613" on="0"/>
        <pt x="301" y="626" on="0"/>
        <pt x="288" y="626" on="1"/>
        <pt x="269" y="626" on="0"/>
        <pt x="228" y="591" on="0"/>
        <pt x="189" y="537" on="0"/>
        <pt x="154" y="471" on="0"/>
        <pt x="141" y="439" on="1"/>
        <pt x="141" y="438" on="0"/>
        <pt x="140" y="437" on="0"/>
        <pt x="140" y="436" on="1"/>
        <pt x="155" y="436" on="1"/>
        <pt x="178" y="436" on="0"/>
        <pt x="223" y="434" on="0"/>
        <pt x="260" y="431" on="0"/>
        <pt x="287" y="428" on="0"/>
        <pt x="292" y="427" on="1"/>
        <pt x="301" y="425" on="0"/>
        <pt x="302" y="413" on="0"/>
        <pt x="297" y="403" on="1"/>
        <pt x="295" y="400" on="0"/>
        <pt x="292" y="396" on="1"/>
        <pt x="290" y="393" on="0"/>
        <pt x="284" y="386" on="0"/>
        <pt x="280" y="383" on="1"/>
        <pt x="217" y="386" on="0"/>
        <pt x="178" y="386" on="1"/>
        <pt x="138" y="386" on="1"/>
        <pt x="134" y="387" on="0"/>
        <pt x="127" y="386" on="0"/>
        <pt x="122" y="386" on="1"/>
        <pt x="119" y="375" on="0"/>
        <pt x="113" y="356" on="0"/>
        <pt x="110" y="346" on="1"/>
        <pt x="117" y="346" on="1"/>
        <pt x="162" y="347" on="0"/>
        <pt x="222" y="346" on="0"/>
        <pt x="249" y="344" on="1"/>
        <pt x="261" y="343" on="0"/>
        <pt x="265" y="333" on="0"/>
        <pt x="260" y="319" on="1"/>
        <pt x="255" y="306" on="0"/>
        <pt x="243" y="296" on="0"/>
        <pt x="232" y="297" on="1"/>
        <pt x="209" y="297" on="0"/>
        <pt x="135" y="296" on="0"/>
        <pt x="98" y="294" on="1"/>
        <pt x="93" y="271" on="0"/>
        <pt x="89" y="237" on="0"/>
        <pt x="88" y="226" on="1"/>
        <pt x="87" y="215" on="0"/>
        <pt x="90" y="176" on="0"/>
        <pt x="103" y="137" on="0"/>
        <pt x="130" y="108" on="0"/>
        <pt x="154" y="108" on="1"/>
        <pt x="179" y="108" on="0"/>
        <pt x="246" y="159" on="0"/>
        <pt x="274" y="197" on="1"/>
        <pt x="283" y="198" on="0"/>
        <pt x="290" y="195" on="1"/>
        <pt x="294" y="193" on="0"/>
        <pt x="297" y="191" on="1"/>
        <pt x="300" y="189" on="0"/>
        <pt x="303" y="186" on="1"/>
        <pt x="308" y="181" on="0"/>
        <pt x="306" y="175" on="1"/>
        <pt x="281" y="135" on="0"/>
        <pt x="230" y="92" on="0"/>
        <pt x="208" y="82" on="1"/>
        <pt x="182" y="71" on="0"/>
        <pt x="159" y="69" on="1"/>
        <pt x="129" y="69" on="0"/>
        <pt x="76" y="102" on="0"/>
        <pt x="38" y="158" on="0"/>
        <pt x="19" y="234" on="0"/>
        <pt x="23" y="278" on="1"/>
        <pt x="23" y="280" on="0"/>
        <pt x="24" y="286" on="0"/>
        <pt x="24" y="288" on="1"/>
        <pt x="11" y="287" on="0"/>
        <pt x="-1" y="285" on="1"/>
        <pt x="-12" y="283" on="0"/>
        <pt x="-35" y="278" on="0"/>
        <pt x="-46" y="276" on="1"/>
        <pt x="-48" y="287" on="0"/>
        <pt x="-44" y="299" on="1"/>
        <pt x="-42" y="305" on="0"/>
        <pt x="-40" y="310" on="1"/>
        <pt x="-37" y="317" on="0"/>
        <pt x="-24" y="334" on="0"/>
        <pt x="-18" y="336" on="1"/>
        <pt x="-14" y="338" on="0"/>
        <pt x="12" y="340" on="0"/>
        <pt x="32" y="342" on="1"/>
        <pt x="34" y="351" on="0"/>
        <pt x="39" y="370" on="0"/>
        <pt x="41" y="379" on="1"/>
        <pt x="32" y="378" on="0"/>
        <pt x="22" y="377" on="1"/>
        <pt x="14" y="376" on="0"/>
        <pt x="-6" y="374" on="0"/>
        <pt x="-15" y="373" on="1"/>
        <pt x="-18" y="378" on="0"/>
        <pt x="-17" y="390" on="0"/>
        <pt x="-15" y="396" on="1"/>
        <pt x="-13" y="403" on="0"/>
        <pt x="-10" y="410" on="1"/>
        <pt x="-7" y="416" on="0"/>
        <pt x="-3" y="421" on="1"/>
        <pt x="0" y="426" on="0"/>
        <pt x="9" y="433" on="0"/>
        <pt x="14" y="433" on="1"/>
        <pt x="20" y="433" on="0"/>
        <pt x="36" y="434" on="0"/>
        <pt x="43" y="434" on="1"/>
        <pt x="51" y="434" on="0"/>
        <pt x="59" y="435" on="1"/>
        <pt x="76" y="482" on="0"/>
        <pt x="125" y="567" on="0"/>
        <pt x="185" y="632" on="0"/>
        <pt x="255" y="671" on="0"/>
      </contour>
    </TTGlyph>
    <TTGlyph name="F" xMin="39" yMin="-189" xMax="592" yMax="752">
      <contour>
        <pt x="383" y="352" on="1"/>
        <pt x="404" y="394" on="0"/>
        <pt x="446" y="477" on="0"/>
        <pt x="480" y="549" on="0"/>
        <pt x="504" y="606" on="0"/>
        <pt x="506" y="623" on="1"/>
        <pt x="508" y="641" on="0"/>
        <pt x="498" y="667" on="0"/>
        <pt x="475" y="683" on="0"/>
        <pt x="444" y="692" on="0"/>
        <pt x="425" y="693" on="1"/>
        <pt x="392" y="695" on="0"/>
        <pt x="301" y="688" on="0"/>
        <pt x="217" y="669" on="0"/>
        <pt x="156" y="635" on="0"/>
        <pt x="154" y="610" on="1"/>
        <pt x="153" y="596" on="0"/>
        <pt x="159" y="585" on="1"/>
        <pt x="164" y="576" on="0"/>
        <pt x="191" y="560" on="0"/>
        <pt x="218" y="562" on="1"/>
        <pt x="223" y="562" on="0"/>
        <pt x="230" y="563" on="1"/>
        <pt x="236" y="564" on="0"/>
        <pt x="254" y="567" on="0"/>
        <pt x="266" y="570" on="1"/>
        <pt x="217" y="504" on="1"/>
        <pt x="203" y="484" on="0"/>
        <pt x="171" y="476" on="0"/>
        <pt x="158" y="478" on="1"/>
        <pt x="151" y="479" on="0"/>
        <pt x="110" y="491" on="0"/>
        <pt x="69" y="515" on="0"/>
        <pt x="39" y="556" on="0"/>
        <pt x="42" y="587" on="1"/>
        <pt x="46" y="623" on="0"/>
        <pt x="100" y="684" on="0"/>
        <pt x="197" y="728" on="0"/>
        <pt x="332" y="752" on="0"/>
        <pt x="417" y="752" on="1"/>
        <pt x="481" y="752" on="0"/>
        <pt x="557" y="725" on="0"/>
        <pt x="592" y="682" on="0"/>
        <pt x="591" y="625" on="0"/>
        <pt x="579" y="595" on="1"/>
        <pt x="573" y="581" on="0"/>
        <pt x="550" y="532" on="0"/>
        <pt x="518" y="467" on="0"/>
        <pt x="482" y="389" on="0"/>
        <pt x="464" y="347" on="1"/>
        <pt x="491" y="345" on="0"/>
        <pt x="536" y="339" on="0"/>
        <pt x="549" y="337" on="1"/>
        <pt x="564" y="333" on="0"/>
        <pt x="559" y="324" on="1"/>
        <pt x="550" y="306" on="0"/>
        <pt x="533" y="288" on="0"/>
        <pt x="513" y="281" on="0"/>
        <pt x="489" y="282" on="0"/>
        <pt x="474" y="283" on="1"/>
        <pt x="465" y="283" on="0"/>
        <pt x="447" y="284" on="0"/>
        <pt x="437" y="285" on="1"/>
        <pt x="418" y="240" on="0"/>
        <pt x="383" y="152" on="0"/>
        <pt x="354" y="73" on="0"/>
        <pt x="332" y="7" on="0"/>
        <pt x="328" y="-15" on="1"/>
        <pt x="322" y="-46" on="0"/>
        <pt x="319" y="-73" on="1"/>
        <pt x="317" y="-96" on="0"/>
        <pt x="317" y="-146" on="0"/>
        <pt x="325" y="-161" on="1"/>
        <pt x="304" y="-167" on="0"/>
        <pt x="273" y="-175" on="0"/>
        <pt x="262" y="-177" on="1"/>
        <pt x="250" y="-180" on="0"/>
        <pt x="242" y="-182" on="1"/>
        <pt x="214" y="-189" on="0"/>
        <pt x="191" y="-172" on="0"/>
        <pt x="196" y="-140" on="1"/>
        <pt x="198" y="-118" on="0"/>
        <pt x="207" y="-63" on="0"/>
        <pt x="226" y="6" on="0"/>
        <pt x="257" y="91" on="0"/>
        <pt x="281" y="143" on="1"/>
        <pt x="295" y="173" on="0"/>
        <pt x="331" y="246" on="0"/>
        <pt x="351" y="288" on="1"/>
        <pt x="307" y="288" on="0"/>
        <pt x="256" y="282" on="1"/>
        <pt x="228" y="278" on="0"/>
        <pt x="201" y="273" on="1"/>
        <pt x="178" y="268" on="0"/>
        <pt x="125" y="255" on="0"/>
        <pt x="102" y="247" on="1"/>
        <pt x="99" y="255" on="0"/>
        <pt x="98" y="271" on="0"/>
        <pt x="99" y="278" on="1"/>
        <pt x="100" y="285" on="0"/>
        <pt x="102" y="292" on="1"/>
        <pt x="104" y="299" on="0"/>
        <pt x="108" y="306" on="1"/>
        <pt x="114" y="318" on="0"/>
        <pt x="127" y="336" on="1"/>
        <pt x="174" y="342" on="0"/>
        <pt x="260" y="348" on="0"/>
        <pt x="293" y="350" on="1"/>
        <pt x="332" y="352" on="0"/>
        <pt x="366" y="352" on="1"/>
        <pt x="371" y="353" on="0"/>
        <pt x="378" y="352" on="0"/>
      </contour>
    </TTGlyph>
    <TTGlyph name="G" xMin="13" yMin="-195" xMax="589" yMax="756">
      <contour>
        <pt x="219" y="-195" on="1"/>
        <pt x="170" y="-195" on="0"/>
        <pt x="92" y="-144" on="0"/>
        <pt x="38" y="-56" on="0"/>
        <pt x="13" y="60" on="0"/>
        <pt x="16" y="125" on="1"/>
        <pt x="20" y="194" on="0"/>
        <pt x="54" y="341" on="0"/>
        <pt x="112" y="481" on="0"/>
        <pt x="189" y="607" on="0"/>
        <pt x="282" y="701" on="0"/>
        <pt x="388" y="756" on="0"/>
        <pt x="446" y="756" on="1"/>
        <pt x="484" y="756" on="0"/>
        <pt x="536" y="718" on="0"/>
        <pt x="565" y="657" on="0"/>
        <pt x="573" y="581" on="0"/>
        <pt x="564" y="506" on="0"/>
        <pt x="539" y="437" on="0"/>
        <pt x="521" y="415" on="1"/>
        <pt x="498" y="386" on="0"/>
        <pt x="461" y="383" on="0"/>
        <pt x="444" y="395" on="1"/>
        <pt x="437" y="401" on="0"/>
        <pt x="430" y="409" on="1"/>
        <pt x="423" y="416" on="0"/>
        <pt x="407" y="437" on="0"/>
        <pt x="398" y="453" on="1"/>
        <pt x="417" y="460" on="0"/>
        <pt x="449" y="493" on="0"/>
        <pt x="472" y="535" on="0"/>
        <pt x="485" y="582" on="0"/>
        <pt x="486" y="605" on="1"/>
        <pt x="487" y="623" on="0"/>
        <pt x="483" y="658" on="0"/>
        <pt x="471" y="685" on="0"/>
        <pt x="450" y="702" on="0"/>
        <pt x="434" y="702" on="1"/>
        <pt x="394" y="702" on="0"/>
        <pt x="318" y="641" on="0"/>
        <pt x="251" y="540" on="0"/>
        <pt x="194" y="410" on="0"/>
        <pt x="152" y="272" on="0"/>
        <pt x="126" y="138" on="0"/>
        <pt x="123" y="83" on="1"/>
        <pt x="119" y="14" on="0"/>
        <pt x="137" y="-72" on="0"/>
        <pt x="168" y="-121" on="0"/>
        <pt x="204" y="-138" on="0"/>
        <pt x="219" y="-138" on="1"/>
        <pt x="247" y="-138" on="0"/>
        <pt x="317" y="-86" on="0"/>
        <pt x="381" y="3" on="0"/>
        <pt x="432" y="119" on="0"/>
        <pt x="443" y="183" on="1"/>
        <pt x="418" y="183" on="0"/>
        <pt x="367" y="182" on="0"/>
        <pt x="321" y="180" on="0"/>
        <pt x="285" y="177" on="0"/>
        <pt x="275" y="175" on="1"/>
        <pt x="268" y="178" on="0"/>
        <pt x="263" y="186" on="0"/>
        <pt x="261" y="191" on="1"/>
        <pt x="259" y="195" on="0"/>
        <pt x="259" y="201" on="1"/>
        <pt x="259" y="207" on="0"/>
        <pt x="261" y="212" on="1"/>
        <pt x="263" y="217" on="0"/>
        <pt x="269" y="228" on="0"/>
        <pt x="274" y="234" on="1"/>
        <pt x="306" y="240" on="0"/>
        <pt x="368" y="248" on="0"/>
        <pt x="435" y="253" on="0"/>
        <pt x="512" y="256" on="0"/>
        <pt x="560" y="257" on="1"/>
        <pt x="580" y="258" on="0"/>
        <pt x="589" y="246" on="0"/>
        <pt x="581" y="222" on="1"/>
        <pt x="575" y="203" on="0"/>
        <pt x="556" y="179" on="0"/>
        <pt x="534" y="181" on="1"/>
        <pt x="527" y="181" on="0"/>
        <pt x="523" y="182" on="1"/>
        <pt x="514" y="123" on="0"/>
        <pt x="456" y="-9" on="0"/>
        <pt x="372" y="-121" on="0"/>
        <pt x="271" y="-195" on="0"/>
      </contour>
    </TTGlyph>
    <TTGlyph name="H" xMin="-12" yMin="-189" xMax="675" yMax="744">
      <contour>
        <pt x="23" y="-189" on="1"/>
        <pt x="-1" y="-189" on="0"/>
        <pt x="-12" y="-178" on="0"/>
        <pt x="-8" y="-162" on="1"/>
        <pt x="-7" y="-157" on="0"/>
        <pt x="11" y="-78" on="0"/>
        <pt x="38" y="35" on="0"/>
        <pt x="69" y="167" on="0"/>
        <pt x="83" y="225" on="1"/>
        <pt x="62" y="223" on="0"/>
        <pt x="42" y="234" on="0"/>
        <pt x="43" y="253" on="0"/>
        <pt x="64" y="273" on="0"/>
        <pt x="84" y="280" on="1"/>
        <pt x="88" y="282" on="0"/>
        <pt x="96" y="284" on="1"/>
        <pt x="101" y="301" on="0"/>
        <pt x="105" y="319" on="1"/>
        <pt x="109" y="334" on="0"/>
        <pt x="117" y="368" on="0"/>
        <pt x="121" y="384" on="1"/>
        <pt x="191" y="683" on="1"/>
        <pt x="197" y="706" on="0"/>
        <pt x="222" y="729" on="0"/>
        <pt x="256" y="737" on="1"/>
        <pt x="284" y="744" on="0"/>
        <pt x="306" y="741" on="0"/>
        <pt x="305" y="736" on="1"/>
        <pt x="302" y="725" on="0"/>
        <pt x="278" y="641" on="0"/>
        <pt x="245" y="520" on="0"/>
        <pt x="207" y="375" on="0"/>
        <pt x="189" y="304" on="1"/>
        <pt x="249" y="313" on="0"/>
        <pt x="335" y="319" on="1"/>
        <pt x="368" y="323" on="0"/>
        <pt x="431" y="325" on="0"/>
        <pt x="460" y="324" on="1"/>
        <pt x="474" y="378" on="0"/>
        <pt x="501" y="486" on="0"/>
        <pt x="525" y="578" on="0"/>
        <pt x="544" y="649" on="0"/>
        <pt x="549" y="666" on="1"/>
        <pt x="555" y="685" on="0"/>
        <pt x="566" y="709" on="0"/>
        <pt x="581" y="723" on="0"/>
        <pt x="601" y="729" on="0"/>
        <pt x="614" y="731" on="1"/>
        <pt x="621" y="731" on="0"/>
        <pt x="631" y="732" on="1"/>
        <pt x="639" y="732" on="0"/>
        <pt x="661" y="733" on="0"/>
        <pt x="675" y="731" on="1"/>
        <pt x="637" y="629" on="0"/>
        <pt x="572" y="420" on="0"/>
        <pt x="544" y="321" on="1"/>
        <pt x="562" y="319" on="0"/>
        <pt x="589" y="317" on="0"/>
        <pt x="597" y="315" on="1"/>
        <pt x="621" y="311" on="0"/>
        <pt x="634" y="293" on="0"/>
        <pt x="623" y="276" on="1"/>
        <pt x="611" y="261" on="1"/>
        <pt x="605" y="253" on="0"/>
        <pt x="587" y="232" on="0"/>
        <pt x="573" y="219" on="1"/>
        <pt x="565" y="222" on="0"/>
        <pt x="548" y="228" on="0"/>
        <pt x="540" y="231" on="1"/>
        <pt x="530" y="234" on="0"/>
        <pt x="521" y="237" on="1"/>
        <pt x="514" y="213" on="0"/>
        <pt x="502" y="168" on="0"/>
        <pt x="497" y="145" on="1"/>
        <pt x="485" y="96" on="0"/>
        <pt x="474" y="44" on="1"/>
        <pt x="465" y="-1" on="0"/>
        <pt x="446" y="-110" on="0"/>
        <pt x="441" y="-163" on="1"/>
        <pt x="433" y="-167" on="0"/>
        <pt x="417" y="-170" on="0"/>
        <pt x="411" y="-171" on="1"/>
        <pt x="404" y="-172" on="0"/>
        <pt x="397" y="-173" on="1"/>
        <pt x="396" y="-173" on="1"/>
        <pt x="394" y="-173" on="1"/>
        <pt x="392" y="-173" on="1"/>
        <pt x="388" y="-173" on="0"/>
        <pt x="380" y="-173" on="0"/>
        <pt x="376" y="-171" on="1"/>
        <pt x="371" y="-170" on="0"/>
        <pt x="366" y="-168" on="1"/>
        <pt x="361" y="-166" on="0"/>
        <pt x="352" y="-163" on="0"/>
        <pt x="347" y="-160" on="1"/>
        <pt x="355" y="-127" on="0"/>
        <pt x="364" y="-69" on="0"/>
        <pt x="366" y="-47" on="1"/>
        <pt x="369" y="-21" on="0"/>
        <pt x="370" y="-1" on="1"/>
        <pt x="371" y="25" on="0"/>
        <pt x="358" y="87" on="0"/>
        <pt x="331" y="147" on="0"/>
        <pt x="292" y="199" on="0"/>
        <pt x="267" y="217" on="1"/>
        <pt x="242" y="234" on="0"/>
        <pt x="197" y="244" on="0"/>
        <pt x="174" y="242" on="1"/>
        <pt x="167" y="212" on="0"/>
        <pt x="155" y="156" on="0"/>
        <pt x="151" y="130" on="1"/>
        <pt x="140" y="72" on="0"/>
        <pt x="130" y="17" on="1"/>
        <pt x="122" y="-30" on="0"/>
        <pt x="105" y="-131" on="0"/>
        <pt x="101" y="-167" on="1"/>
        <pt x="85" y="-175" on="0"/>
        <pt x="57" y="-184" on="0"/>
        <pt x="46" y="-186" on="1"/>
        <pt x="34" y="-189" on="0"/>
      </contour>
      <contour>
        <pt x="419" y="255" on="1"/>
        <pt x="384" y="259" on="0"/>
        <pt x="321" y="260" on="0"/>
        <pt x="297" y="260" on="1"/>
        <pt x="317" y="249" on="0"/>
        <pt x="348" y="213" on="0"/>
        <pt x="365" y="190" on="1"/>
        <pt x="381" y="169" on="0"/>
        <pt x="401" y="119" on="0"/>
        <pt x="408" y="96" on="1"/>
        <pt x="416" y="138" on="0"/>
        <pt x="434" y="218" on="0"/>
        <pt x="442" y="253" on="1"/>
        <pt x="436" y="254" on="0"/>
        <pt x="425" y="255" on="0"/>
      </contour>
    </TTGlyph>
    <TTGlyph name="I" xMin="-77" yMin="-187" xMax="543" yMax="751">
      <contour>
        <pt x="260" y="253" on="1"/>
        <pt x="241" y="273" on="0"/>
        <pt x="218" y="332" on="0"/>
        <pt x="212" y="361" on="1"/>
        <pt x="205" y="394" on="0"/>
        <pt x="202" y="431" on="1"/>
        <pt x="197" y="503" on="0"/>
        <pt x="239" y="621" on="0"/>
        <pt x="311" y="705" on="0"/>
        <pt x="400" y="751" on="0"/>
        <pt x="442" y="751" on="1"/>
        <pt x="461" y="751" on="0"/>
        <pt x="484" y="733" on="0"/>
        <pt x="496" y="707" on="0"/>
        <pt x="499" y="679" on="0"/>
        <pt x="499" y="670" on="1"/>
        <pt x="499" y="638" on="0"/>
        <pt x="496" y="576" on="0"/>
        <pt x="489" y="506" on="0"/>
        <pt x="475" y="426" on="0"/>
        <pt x="464" y="377" on="1"/>
        <pt x="458" y="350" on="0"/>
        <pt x="436" y="266" on="0"/>
        <pt x="421" y="215" on="1"/>
        <pt x="466" y="214" on="0"/>
        <pt x="521" y="209" on="0"/>
        <pt x="529" y="208" on="1"/>
        <pt x="536" y="207" on="0"/>
        <pt x="543" y="195" on="0"/>
        <pt x="535" y="182" on="1"/>
        <pt x="527" y="170" on="0"/>
        <pt x="498" y="166" on="0"/>
        <pt x="484" y="166" on="1"/>
        <pt x="476" y="166" on="0"/>
        <pt x="433" y="166" on="0"/>
        <pt x="404" y="164" on="1"/>
        <pt x="383" y="102" on="0"/>
        <pt x="330" y="-23" on="0"/>
        <pt x="266" y="-124" on="0"/>
        <pt x="190" y="-187" on="0"/>
        <pt x="147" y="-187" on="1"/>
        <pt x="85" y="-187" on="0"/>
        <pt x="0" y="-140" on="0"/>
        <pt x="-53" y="-77" on="0"/>
        <pt x="-77" y="-14" on="0"/>
        <pt x="-77" y="3" on="1"/>
        <pt x="-77" y="33" on="0"/>
        <pt x="-45" y="95" on="0"/>
        <pt x="24" y="150" on="0"/>
        <pt x="134" y="192" on="0"/>
        <pt x="211" y="203" on="1"/>
        <pt x="243" y="207" on="0"/>
        <pt x="301" y="212" on="0"/>
        <pt x="327" y="214" on="1"/>
        <pt x="347" y="289" on="0"/>
        <pt x="388" y="445" on="0"/>
        <pt x="403" y="511" on="1"/>
        <pt x="409" y="538" on="0"/>
        <pt x="421" y="601" on="0"/>
        <pt x="428" y="657" on="0"/>
        <pt x="429" y="695" on="0"/>
        <pt x="424" y="697" on="1"/>
        <pt x="421" y="698" on="0"/>
        <pt x="397" y="681" on="0"/>
        <pt x="365" y="649" on="0"/>
        <pt x="334" y="604" on="0"/>
        <pt x="324" y="578" on="1"/>
        <pt x="306" y="527" on="0"/>
        <pt x="296" y="478" on="1"/>
        <pt x="288" y="436" on="0"/>
        <pt x="284" y="342" on="0"/>
        <pt x="301" y="304" on="1"/>
        <pt x="299" y="290" on="0"/>
        <pt x="295" y="281" on="1"/>
        <pt x="292" y="276" on="0"/>
        <pt x="290" y="272" on="1"/>
        <pt x="287" y="269" on="0"/>
        <pt x="283" y="265" on="1"/>
        <pt x="279" y="262" on="0"/>
        <pt x="268" y="255" on="0"/>
      </contour>
      <contour>
        <pt x="248" y="-26" on="1"/>
        <pt x="259" y="-3" on="0"/>
        <pt x="291" y="93" on="0"/>
        <pt x="309" y="156" on="1"/>
        <pt x="260" y="150" on="0"/>
        <pt x="160" y="129" on="0"/>
        <pt x="79" y="94" on="0"/>
        <pt x="28" y="44" on="0"/>
        <pt x="28" y="10" on="1"/>
        <pt x="28" y="-26" on="0"/>
        <pt x="57" y="-80" on="0"/>
        <pt x="98" y="-116" on="0"/>
        <pt x="141" y="-135" on="0"/>
        <pt x="156" y="-135" on="1"/>
        <pt x="171" y="-135" on="0"/>
        <pt x="198" y="-112" on="0"/>
        <pt x="221" y="-79" on="0"/>
        <pt x="240" y="-41" on="0"/>
      </contour>
    </TTGlyph>
    <TTGlyph name="Iacute" xMin="-77" yMin="-187" xMax="546" yMax="949">
      <component glyphName="I" x="0" y="0" flags="0x204"/>
      <component glyphName="acute" x="102" y="246" flags="0x4"/>
    </TTGlyph>
    <TTGlyph name="Icircumflex" xMin="-77" yMin="-187" xMax="609" yMax="928">
      <component glyphName="I" x="0" y="0" flags="0x204"/>
      <component glyphName="circumflex" x="113" y="225" flags="0x4"/>
    </TTGlyph>
    <TTGlyph name="Idieresis" xMin="-77" yMin="-187" xMax="600" yMax="898">
      <component glyphName="I" x="0" y="0" flags="0x204"/>
      <component glyphName="dieresis" x="113" y="225" flags="0x4"/>
    </TTGlyph>
    <TTGlyph name="Igrave" xMin="-77" yMin="-187" xMax="543" yMax="947">
      <component glyphName="I" x="0" y="0" flags="0x204"/>
      <component glyphName="grave" x="72" y="246" flags="0x4"/>
    </TTGlyph>
    <TTGlyph name="J" xMin="-84" yMin="-197" xMax="605" yMax="748">
      <contour>
        <pt x="71" y="-197" on="1"/>
        <pt x="42" y="-197" on="0"/>
        <pt x="-14" y="-174" on="0"/>
        <pt x="-58" y="-132" on="0"/>
        <pt x="-84" y="-71" on="0"/>
        <pt x="-82" y="-32" on="1"/>
        <pt x="-79" y="36" on="0"/>
        <pt x="-31" y="152" on="0"/>
        <pt x="33" y="236" on="0"/>
        <pt x="99" y="283" on="0"/>
        <pt x="121" y="283" on="1"/>
        <pt x="135" y="283" on="0"/>
        <pt x="158" y="264" on="0"/>
        <pt x="171" y="235" on="0"/>
        <pt x="174" y="200" on="0"/>
        <pt x="168" y="184" on="1"/>
        <pt x="158" y="191" on="0"/>
        <pt x="104" y="167" on="0"/>
        <pt x="46" y="110" on="0"/>
        <pt x="0" y="26" on="0"/>
        <pt x="-3" y="-26" on="1"/>
        <pt x="-5" y="-60" on="0"/>
        <pt x="6" y="-108" on="0"/>
        <pt x="27" y="-138" on="0"/>
        <pt x="54" y="-152" on="0"/>
        <pt x="69" y="-152" on="1"/>
        <pt x="105" y="-152" on="0"/>
        <pt x="165" y="-98" on="0"/>
        <pt x="215" y="-1" on="0"/>
        <pt x="259" y="134" on="0"/>
        <pt x="279" y="216" on="1"/>
        <pt x="285" y="241" on="0"/>
        <pt x="304" y="315" on="0"/>
        <pt x="326" y="402" on="0"/>
        <pt x="351" y="495" on="0"/>
        <pt x="373" y="580" on="0"/>
        <pt x="393" y="653" on="0"/>
        <pt x="399" y="676" on="1"/>
        <pt x="366" y="676" on="0"/>
        <pt x="333" y="672" on="1"/>
        <pt x="305" y="669" on="0"/>
        <pt x="245" y="658" on="0"/>
        <pt x="225" y="649" on="1"/>
        <pt x="223" y="650" on="0"/>
        <pt x="221" y="659" on="0"/>
        <pt x="220" y="664" on="1"/>
        <pt x="219" y="670" on="0"/>
        <pt x="218" y="677" on="1"/>
        <pt x="217" y="685" on="0"/>
        <pt x="218" y="693" on="1"/>
        <pt x="219" y="700" on="0"/>
        <pt x="221" y="717" on="0"/>
        <pt x="224" y="726" on="1"/>
        <pt x="250" y="734" on="0"/>
        <pt x="319" y="743" on="0"/>
        <pt x="349" y="745" on="1"/>
        <pt x="384" y="748" on="0"/>
        <pt x="421" y="748" on="1"/>
        <pt x="448" y="748" on="0"/>
        <pt x="477" y="745" on="1"/>
        <pt x="502" y="743" on="0"/>
        <pt x="564" y="735" on="0"/>
        <pt x="595" y="727" on="1"/>
        <pt x="602" y="720" on="0"/>
        <pt x="604" y="711" on="1"/>
        <pt x="605" y="707" on="0"/>
        <pt x="605" y="702" on="1"/>
        <pt x="605" y="694" on="0"/>
        <pt x="602" y="687" on="1"/>
        <pt x="600" y="681" on="0"/>
        <pt x="591" y="668" on="0"/>
        <pt x="584" y="664" on="1"/>
        <pt x="573" y="667" on="0"/>
        <pt x="540" y="670" on="0"/>
        <pt x="524" y="672" on="1"/>
        <pt x="506" y="674" on="0"/>
        <pt x="486" y="675" on="1"/>
        <pt x="380" y="203" on="1"/>
        <pt x="376" y="186" on="0"/>
        <pt x="356" y="113" on="0"/>
        <pt x="321" y="24" on="0"/>
        <pt x="272" y="-70" on="0"/>
        <pt x="206" y="-147" on="0"/>
        <pt x="122" y="-197" on="0"/>
      </contour>
    </TTGlyph>
    <TTGlyph name="K" xMin="-51" yMin="-280" xMax="551" yMax="752">
      <contour>
        <pt x="19" y="200" on="1"/>
        <pt x="14" y="222" on="0"/>
        <pt x="25" y="235" on="0"/>
        <pt x="45" y="240" on="1"/>
        <pt x="52" y="269" on="0"/>
        <pt x="64" y="321" on="0"/>
        <pt x="70" y="346" on="1"/>
        <pt x="87" y="418" on="0"/>
        <pt x="118" y="531" on="0"/>
        <pt x="145" y="621" on="0"/>
        <pt x="169" y="693" on="0"/>
        <pt x="180" y="724" on="1"/>
        <pt x="191" y="732" on="0"/>
        <pt x="213" y="741" on="0"/>
        <pt x="223" y="744" on="1"/>
        <pt x="234" y="748" on="0"/>
        <pt x="246" y="750" on="1"/>
        <pt x="256" y="751" on="0"/>
        <pt x="264" y="750" on="1"/>
        <pt x="271" y="749" on="0"/>
        <pt x="281" y="743" on="0"/>
        <pt x="282" y="737" on="1"/>
        <pt x="244" y="636" on="0"/>
        <pt x="189" y="464" on="0"/>
        <pt x="171" y="401" on="1"/>
        <pt x="150" y="327" on="0"/>
        <pt x="136" y="266" on="1"/>
        <pt x="184" y="285" on="0"/>
        <pt x="273" y="356" on="0"/>
        <pt x="347" y="443" on="0"/>
        <pt x="406" y="538" on="0"/>
        <pt x="442" y="626" on="0"/>
        <pt x="455" y="700" on="0"/>
        <pt x="446" y="722" on="1"/>
        <pt x="470" y="733" on="0"/>
        <pt x="491" y="739" on="1"/>
        <pt x="502" y="743" on="0"/>
        <pt x="512" y="745" on="1"/>
        <pt x="538" y="752" on="0"/>
        <pt x="551" y="721" on="0"/>
        <pt x="549" y="690" on="1"/>
        <pt x="546" y="619" on="0"/>
        <pt x="481" y="483" on="0"/>
        <pt x="381" y="364" on="0"/>
        <pt x="260" y="270" on="0"/>
        <pt x="201" y="243" on="1"/>
        <pt x="218" y="245" on="0"/>
        <pt x="250" y="247" on="0"/>
        <pt x="264" y="247" on="1"/>
        <pt x="291" y="247" on="0"/>
        <pt x="337" y="236" on="0"/>
        <pt x="372" y="210" on="0"/>
        <pt x="391" y="168" on="0"/>
        <pt x="390" y="137" on="1"/>
        <pt x="388" y="89" on="0"/>
        <pt x="366" y="15" on="0"/>
        <pt x="341" y="-48" on="0"/>
        <pt x="319" y="-102" on="0"/>
        <pt x="318" y="-130" on="1"/>
        <pt x="317" y="-158" on="0"/>
        <pt x="335" y="-195" on="0"/>
        <pt x="364" y="-218" on="0"/>
        <pt x="396" y="-228" on="0"/>
        <pt x="410" y="-228" on="1"/>
        <pt x="427" y="-228" on="0"/>
        <pt x="467" y="-221" on="0"/>
        <pt x="482" y="-216" on="1"/>
        <pt x="488" y="-214" on="0"/>
        <pt x="495" y="-224" on="0"/>
        <pt x="495" y="-228" on="1"/>
        <pt x="495" y="-232" on="0"/>
        <pt x="485" y="-253" on="0"/>
        <pt x="471" y="-259" on="1"/>
        <pt x="457" y="-266" on="0"/>
        <pt x="413" y="-280" on="0"/>
        <pt x="375" y="-280" on="1"/>
        <pt x="350" y="-280" on="0"/>
        <pt x="296" y="-257" on="0"/>
        <pt x="252" y="-216" on="0"/>
        <pt x="224" y="-162" on="0"/>
        <pt x="226" y="-131" on="1"/>
        <pt x="227" y="-98" on="0"/>
        <pt x="249" y="-32" on="0"/>
        <pt x="274" y="30" on="0"/>
        <pt x="295" y="87" on="0"/>
        <pt x="296" y="112" on="1"/>
        <pt x="298" y="157" on="0"/>
        <pt x="248" y="202" on="0"/>
        <pt x="188" y="202" on="1"/>
        <pt x="168" y="202" on="0"/>
        <pt x="133" y="198" on="0"/>
        <pt x="122" y="196" on="1"/>
        <pt x="95" y="60" on="0"/>
        <pt x="75" y="-78" on="0"/>
        <pt x="74" y="-99" on="1"/>
        <pt x="74" y="-117" on="1"/>
        <pt x="74" y="-125" on="0"/>
        <pt x="76" y="-142" on="0"/>
        <pt x="78" y="-150" on="1"/>
        <pt x="60" y="-163" on="0"/>
        <pt x="25" y="-176" on="0"/>
        <pt x="11" y="-179" on="1"/>
        <pt x="-6" y="-183" on="0"/>
        <pt x="-20" y="-183" on="1"/>
        <pt x="-27" y="-183" on="0"/>
        <pt x="-33" y="-181" on="1"/>
        <pt x="-38" y="-179" on="0"/>
        <pt x="-49" y="-175" on="0"/>
        <pt x="-51" y="-170" on="1"/>
        <pt x="-35" y="-103" on="0"/>
        <pt x="-5" y="21" on="0"/>
        <pt x="6" y="70" on="1"/>
        <pt x="19" y="126" on="0"/>
        <pt x="31" y="177" on="1"/>
        <pt x="27" y="181" on="0"/>
        <pt x="21" y="191" on="0"/>
      </contour>
    </TTGlyph>
    <TTGlyph name="L" xMin="-104" yMin="-202" xMax="545" yMax="752">
      <contour>
        <pt x="165" y="340" on="1"/>
        <pt x="114" y="340" on="0"/>
        <pt x="51" y="362" on="0"/>
        <pt x="40" y="379" on="1"/>
        <pt x="35" y="386" on="0"/>
        <pt x="27" y="414" on="0"/>
        <pt x="34" y="431" on="1"/>
        <pt x="48" y="420" on="0"/>
        <pt x="81" y="409" on="0"/>
        <pt x="95" y="407" on="1"/>
        <pt x="112" y="404" on="0"/>
        <pt x="128" y="404" on="1"/>
        <pt x="158" y="404" on="0"/>
        <pt x="215" y="414" on="0"/>
        <pt x="243" y="423" on="1"/>
        <pt x="255" y="483" on="0"/>
        <pt x="278" y="579" on="0"/>
        <pt x="293" y="609" on="1"/>
        <pt x="309" y="642" on="0"/>
        <pt x="344" y="695" on="0"/>
        <pt x="387" y="732" on="0"/>
        <pt x="439" y="752" on="0"/>
        <pt x="473" y="752" on="1"/>
        <pt x="498" y="752" on="0"/>
        <pt x="527" y="732" on="0"/>
        <pt x="542" y="702" on="0"/>
        <pt x="545" y="667" on="0"/>
        <pt x="545" y="652" on="1"/>
        <pt x="545" y="619" on="0"/>
        <pt x="513" y="541" on="0"/>
        <pt x="455" y="465" on="0"/>
        <pt x="374" y="397" on="0"/>
        <pt x="324" y="375" on="1"/>
        <pt x="307" y="309" on="0"/>
        <pt x="274" y="180" on="0"/>
        <pt x="258" y="138" on="1"/>
        <pt x="244" y="99" on="0"/>
        <pt x="201" y="3" on="0"/>
        <pt x="170" y="-41" on="1"/>
        <pt x="189" y="-53" on="0"/>
        <pt x="228" y="-79" on="0"/>
        <pt x="268" y="-100" on="0"/>
        <pt x="309" y="-114" on="0"/>
        <pt x="332" y="-114" on="1"/>
        <pt x="356" y="-113" on="0"/>
        <pt x="379" y="-107" on="1"/>
        <pt x="399" y="-102" on="0"/>
        <pt x="443" y="-79" on="0"/>
        <pt x="462" y="-58" on="1"/>
        <pt x="469" y="-70" on="0"/>
        <pt x="464" y="-118" on="0"/>
        <pt x="438" y="-166" on="0"/>
        <pt x="390" y="-202" on="0"/>
        <pt x="354" y="-202" on="1"/>
        <pt x="316" y="-202" on="0"/>
        <pt x="250" y="-181" on="0"/>
        <pt x="192" y="-151" on="0"/>
        <pt x="141" y="-116" on="0"/>
        <pt x="119" y="-101" on="1"/>
        <pt x="89" y="-130" on="0"/>
        <pt x="17" y="-166" on="0"/>
        <pt x="-27" y="-166" on="1"/>
        <pt x="-62" y="-166" on="0"/>
        <pt x="-104" y="-127" on="0"/>
        <pt x="-102" y="-94" on="1"/>
        <pt x="-101" y="-82" on="0"/>
        <pt x="-89" y="-49" on="0"/>
        <pt x="-56" y="-19" on="0"/>
        <pt x="2" y="2" on="0"/>
        <pt x="48" y="2" on="1"/>
        <pt x="65" y="2" on="0"/>
        <pt x="96" y="-5" on="0"/>
        <pt x="111" y="-10" on="1"/>
        <pt x="122" y="10" on="0"/>
        <pt x="144" y="62" on="0"/>
        <pt x="157" y="95" on="1"/>
        <pt x="180" y="158" on="0"/>
        <pt x="214" y="285" on="0"/>
        <pt x="226" y="345" on="1"/>
        <pt x="212" y="342" on="0"/>
        <pt x="181" y="340" on="0"/>
      </contour>
      <contour>
        <pt x="-1" y="-112" on="1"/>
        <pt x="12" y="-107" on="0"/>
        <pt x="46" y="-97" on="0"/>
        <pt x="68" y="-74" on="1"/>
        <pt x="53" y="-69" on="0"/>
        <pt x="45" y="-69" on="1"/>
        <pt x="9" y="-69" on="0"/>
        <pt x="-24" y="-90" on="0"/>
        <pt x="-24" y="-100" on="1"/>
        <pt x="-24" y="-107" on="0"/>
        <pt x="-12" y="-114" on="0"/>
      </contour>
      <contour>
        <pt x="377" y="584" on="1"/>
        <pt x="372" y="569" on="0"/>
        <pt x="356" y="511" on="0"/>
        <pt x="347" y="473" on="1"/>
        <pt x="401" y="508" on="0"/>
        <pt x="466" y="598" on="0"/>
        <pt x="466" y="643" on="1"/>
        <pt x="466" y="670" on="0"/>
        <pt x="450" y="670" on="1"/>
        <pt x="436" y="670" on="0"/>
        <pt x="392" y="627" on="0"/>
      </contour>
    </TTGlyph>
    <TTGlyph name="Lslash" xMin="-104" yMin="-202" xMax="545" yMax="752">
      <contour>
        <pt x="-1" y="-112" on="1"/>
        <pt x="12" y="-107" on="0"/>
        <pt x="46" y="-97" on="0"/>
        <pt x="68" y="-74" on="1"/>
        <pt x="53" y="-69" on="0"/>
        <pt x="45" y="-69" on="1"/>
        <pt x="9" y="-69" on="0"/>
        <pt x="-24" y="-90" on="0"/>
        <pt x="-24" y="-100" on="1"/>
        <pt x="-24" y="-107" on="0"/>
        <pt x="-12" y="-114" on="0"/>
      </contour>
      <contour>
        <pt x="377" y="584" on="1"/>
        <pt x="372" y="569" on="0"/>
        <pt x="356" y="511" on="0"/>
        <pt x="347" y="473" on="1"/>
        <pt x="401" y="508" on="0"/>
        <pt x="466" y="598" on="0"/>
        <pt x="466" y="643" on="1"/>
        <pt x="466" y="670" on="0"/>
        <pt x="450" y="670" on="1"/>
        <pt x="436" y="670" on="0"/>
        <pt x="392" y="627" on="0"/>
      </contour>
      <contour>
        <pt x="375" y="200" on="1"/>
        <pt x="355" y="198" on="0"/>
        <pt x="302" y="187" on="0"/>
        <pt x="272" y="181" on="1"/>
        <pt x="268" y="170" on="0"/>
        <pt x="262" y="148" on="0"/>
        <pt x="258" y="138" on="1"/>
        <pt x="244" y="99" on="0"/>
        <pt x="201" y="3" on="0"/>
        <pt x="170" y="-41" on="1"/>
        <pt x="189" y="-53" on="0"/>
        <pt x="228" y="-79" on="0"/>
        <pt x="268" y="-100" on="0"/>
        <pt x="309" y="-114" on="0"/>
        <pt x="332" y="-114" on="1"/>
        <pt x="356" y="-113" on="0"/>
        <pt x="379" y="-107" on="1"/>
        <pt x="399" y="-102" on="0"/>
        <pt x="443" y="-79" on="0"/>
        <pt x="462" y="-58" on="1"/>
        <pt x="469" y="-70" on="0"/>
        <pt x="464" y="-118" on="0"/>
        <pt x="438" y="-166" on="0"/>
        <pt x="390" y="-202" on="0"/>
        <pt x="354" y="-202" on="1"/>
        <pt x="316" y="-202" on="0"/>
        <pt x="250" y="-181" on="0"/>
        <pt x="192" y="-151" on="0"/>
        <pt x="141" y="-116" on="0"/>
        <pt x="119" y="-101" on="1"/>
        <pt x="89" y="-130" on="0"/>
        <pt x="17" y="-166" on="0"/>
        <pt x="-27" y="-166" on="1"/>
        <pt x="-62" y="-166" on="0"/>
        <pt x="-104" y="-127" on="0"/>
        <pt x="-102" y="-94" on="1"/>
        <pt x="-101" y="-82" on="0"/>
        <pt x="-89" y="-49" on="0"/>
        <pt x="-56" y="-19" on="0"/>
        <pt x="2" y="2" on="0"/>
        <pt x="48" y="2" on="1"/>
        <pt x="65" y="2" on="0"/>
        <pt x="96" y="-5" on="0"/>
        <pt x="111" y="-10" on="1"/>
        <pt x="122" y="10" on="0"/>
        <pt x="144" y="62" on="0"/>
        <pt x="157" y="95" on="1"/>
        <pt x="164" y="112" on="0"/>
        <pt x="175" y="144" on="0"/>
        <pt x="180" y="161" on="1"/>
        <pt x="154" y="155" on="0"/>
        <pt x="88" y="134" on="0"/>
        <pt x="58" y="121" on="1"/>
        <pt x="56" y="128" on="0"/>
        <pt x="55" y="143" on="0"/>
        <pt x="56" y="150" on="1"/>
        <pt x="57" y="158" on="0"/>
        <pt x="58" y="166" on="1"/>
        <pt x="60" y="175" on="0"/>
        <pt x="71" y="200" on="0"/>
        <pt x="77" y="204" on="1"/>
        <pt x="84" y="209" on="0"/>
        <pt x="157" y="229" on="0"/>
        <pt x="202" y="239" on="1"/>
        <pt x="209" y="265" on="0"/>
        <pt x="221" y="319" on="0"/>
        <pt x="226" y="345" on="1"/>
        <pt x="212" y="342" on="0"/>
        <pt x="181" y="340" on="0"/>
        <pt x="165" y="340" on="1"/>
        <pt x="114" y="340" on="0"/>
        <pt x="51" y="362" on="0"/>
        <pt x="40" y="379" on="1"/>
        <pt x="35" y="386" on="0"/>
        <pt x="27" y="414" on="0"/>
        <pt x="34" y="431" on="1"/>
        <pt x="48" y="420" on="0"/>
        <pt x="81" y="409" on="0"/>
        <pt x="95" y="407" on="1"/>
        <pt x="112" y="404" on="0"/>
        <pt x="128" y="404" on="1"/>
        <pt x="158" y="404" on="0"/>
        <pt x="215" y="414" on="0"/>
        <pt x="243" y="423" on="1"/>
        <pt x="255" y="483" on="0"/>
        <pt x="278" y="579" on="0"/>
        <pt x="293" y="609" on="1"/>
        <pt x="309" y="642" on="0"/>
        <pt x="344" y="695" on="0"/>
        <pt x="387" y="732" on="0"/>
        <pt x="439" y="752" on="0"/>
        <pt x="473" y="752" on="1"/>
        <pt x="498" y="752" on="0"/>
        <pt x="527" y="732" on="0"/>
        <pt x="542" y="702" on="0"/>
        <pt x="545" y="667" on="0"/>
        <pt x="545" y="652" on="1"/>
        <pt x="545" y="619" on="0"/>
        <pt x="513" y="541" on="0"/>
        <pt x="455" y="465" on="0"/>
        <pt x="374" y="397" on="0"/>
        <pt x="324" y="375" on="1"/>
        <pt x="316" y="344" on="0"/>
        <pt x="301" y="284" on="0"/>
        <pt x="293" y="255" on="1"/>
        <pt x="319" y="259" on="0"/>
        <pt x="362" y="264" on="0"/>
        <pt x="383" y="266" on="1"/>
        <pt x="397" y="267" on="0"/>
        <pt x="405" y="254" on="0"/>
        <pt x="401" y="234" on="1"/>
        <pt x="398" y="217" on="0"/>
        <pt x="387" y="202" on="0"/>
      </contour>
    </TTGlyph>
    <TTGlyph name="M" xMin="-104" yMin="-188" xMax="741" yMax="746">
      <contour>
        <pt x="23" y="-187" on="1"/>
        <pt x="-16" y="-188" on="0"/>
        <pt x="-67" y="-158" on="0"/>
        <pt x="-96" y="-101" on="0"/>
        <pt x="-104" y="-20" on="0"/>
        <pt x="-100" y="28" on="1"/>
        <pt x="-95" y="65" on="0"/>
        <pt x="-82" y="105" on="1"/>
        <pt x="-71" y="139" on="0"/>
        <pt x="-26" y="221" on="0"/>
        <pt x="12" y="260" on="1"/>
        <pt x="20" y="258" on="0"/>
        <pt x="30" y="253" on="0"/>
        <pt x="33" y="250" on="1"/>
        <pt x="36" y="246" on="0"/>
        <pt x="37" y="243" on="1"/>
        <pt x="39" y="232" on="0"/>
        <pt x="23" y="204" on="0"/>
        <pt x="15" y="188" on="1"/>
        <pt x="-7" y="142" on="0"/>
        <pt x="-29" y="60" on="0"/>
        <pt x="-32" y="25" on="1"/>
        <pt x="-34" y="-5" on="0"/>
        <pt x="-29" y="-54" on="0"/>
        <pt x="-19" y="-89" on="0"/>
        <pt x="-7" y="-108" on="0"/>
        <pt x="-2" y="-108" on="1"/>
        <pt x="3" y="-108" on="0"/>
        <pt x="14" y="-94" on="0"/>
        <pt x="19" y="-84" on="1"/>
        <pt x="25" y="-74" on="0"/>
        <pt x="41" y="-33" on="0"/>
        <pt x="59" y="21" on="0"/>
        <pt x="76" y="84" on="0"/>
        <pt x="83" y="116" on="1"/>
        <pt x="97" y="180" on="0"/>
        <pt x="129" y="341" on="0"/>
        <pt x="160" y="429" on="1"/>
        <pt x="170" y="466" on="0"/>
        <pt x="185" y="510" on="1"/>
        <pt x="197" y="548" on="0"/>
        <pt x="234" y="649" on="0"/>
        <pt x="258" y="708" on="1"/>
        <pt x="258" y="713" on="0"/>
        <pt x="275" y="722" on="0"/>
        <pt x="286" y="727" on="1"/>
        <pt x="298" y="732" on="0"/>
        <pt x="313" y="737" on="1"/>
        <pt x="333" y="744" on="0"/>
        <pt x="356" y="746" on="0"/>
        <pt x="368" y="738" on="0"/>
        <pt x="372" y="725" on="0"/>
        <pt x="372" y="717" on="1"/>
        <pt x="374" y="684" on="0"/>
        <pt x="375" y="626" on="0"/>
        <pt x="376" y="604" on="1"/>
        <pt x="377" y="578" on="0"/>
        <pt x="377" y="557" on="1"/>
        <pt x="378" y="529" on="0"/>
        <pt x="370" y="436" on="0"/>
        <pt x="361" y="334" on="0"/>
        <pt x="354" y="237" on="0"/>
        <pt x="356" y="205" on="1"/>
        <pt x="356" y="188" on="0"/>
        <pt x="359" y="159" on="0"/>
        <pt x="361" y="145" on="1"/>
        <pt x="374" y="181" on="0"/>
        <pt x="406" y="260" on="0"/>
        <pt x="438" y="333" on="0"/>
        <pt x="466" y="396" on="0"/>
        <pt x="474" y="417" on="1"/>
        <pt x="486" y="445" on="0"/>
        <pt x="526" y="531" on="0"/>
        <pt x="567" y="617" on="0"/>
        <pt x="602" y="689" on="0"/>
        <pt x="610" y="703" on="1"/>
        <pt x="616" y="713" on="0"/>
        <pt x="645" y="729" on="0"/>
        <pt x="678" y="741" on="0"/>
        <pt x="707" y="746" on="0"/>
        <pt x="712" y="744" on="1"/>
        <pt x="725" y="741" on="0"/>
        <pt x="736" y="731" on="0"/>
        <pt x="737" y="729" on="1"/>
        <pt x="739" y="725" on="0"/>
        <pt x="741" y="706" on="0"/>
        <pt x="739" y="686" on="1"/>
        <pt x="737" y="662" on="0"/>
        <pt x="718" y="564" on="0"/>
        <pt x="691" y="439" on="0"/>
        <pt x="660" y="297" on="0"/>
        <pt x="632" y="160" on="0"/>
        <pt x="611" y="40" on="0"/>
        <pt x="608" y="-1" on="1"/>
        <pt x="606" y="-47" on="0"/>
        <pt x="614" y="-82" on="1"/>
        <pt x="617" y="-97" on="0"/>
        <pt x="629" y="-125" on="0"/>
        <pt x="649" y="-146" on="0"/>
        <pt x="677" y="-156" on="0"/>
        <pt x="696" y="-154" on="1"/>
        <pt x="671" y="-171" on="0"/>
        <pt x="623" y="-187" on="0"/>
        <pt x="600" y="-187" on="1"/>
        <pt x="575" y="-188" on="0"/>
        <pt x="537" y="-171" on="0"/>
        <pt x="511" y="-140" on="0"/>
        <pt x="499" y="-97" on="0"/>
        <pt x="501" y="-71" on="1"/>
        <pt x="503" y="-47" on="0"/>
        <pt x="525" y="63" on="0"/>
        <pt x="556" y="202" on="0"/>
        <pt x="593" y="353" on="0"/>
        <pt x="626" y="486" on="0"/>
        <pt x="650" y="582" on="0"/>
        <pt x="653" y="597" on="1"/>
        <pt x="655" y="609" on="0"/>
        <pt x="658" y="630" on="0"/>
        <pt x="660" y="638" on="1"/>
        <pt x="650" y="618" on="0"/>
        <pt x="621" y="562" on="0"/>
        <pt x="589" y="498" on="0"/>
        <pt x="556" y="429" on="0"/>
        <pt x="541" y="397" on="1"/>
        <pt x="516" y="345" on="0"/>
        <pt x="468" y="236" on="0"/>
        <pt x="430" y="138" on="0"/>
        <pt x="405" y="60" on="0"/>
        <pt x="403" y="39" on="1"/>
        <pt x="403" y="25" on="1"/>
        <pt x="403" y="19" on="0"/>
        <pt x="404" y="3" on="0"/>
        <pt x="406" y="-4" on="1"/>
        <pt x="366" y="-35" on="1"/>
        <pt x="357" y="-38" on="0"/>
        <pt x="344" y="-42" on="0"/>
        <pt x="338" y="-42" on="1"/>
        <pt x="315" y="-42" on="0"/>
        <pt x="303" y="-18" on="1"/>
        <pt x="291" y="4" on="0"/>
        <pt x="271" y="132" on="0"/>
        <pt x="275" y="225" on="1"/>
        <pt x="277" y="271" on="0"/>
        <pt x="286" y="365" on="0"/>
        <pt x="295" y="451" on="0"/>
        <pt x="303" y="526" on="0"/>
        <pt x="303" y="553" on="1"/>
        <pt x="304" y="573" on="0"/>
        <pt x="300" y="606" on="0"/>
        <pt x="298" y="620" on="1"/>
        <pt x="289" y="597" on="0"/>
        <pt x="267" y="518" on="0"/>
        <pt x="243" y="422" on="0"/>
        <pt x="218" y="316" on="0"/>
        <pt x="195" y="218" on="0"/>
        <pt x="175" y="135" on="0"/>
        <pt x="169" y="110" on="1"/>
        <pt x="159" y="70" on="0"/>
        <pt x="139" y="-32" on="0"/>
        <pt x="109" y="-123" on="0"/>
        <pt x="61" y="-186" on="0"/>
      </contour>
    </TTGlyph>
    <TTGlyph name="N" xMin="-43" yMin="-182" xMax="649" yMax="756">
      <contour>
        <pt x="156" y="472" on="1"/>
        <pt x="151" y="454" on="0"/>
        <pt x="136" y="387" on="0"/>
        <pt x="119" y="301" on="0"/>
        <pt x="100" y="206" on="0"/>
        <pt x="85" y="114" on="0"/>
        <pt x="73" y="33" on="0"/>
        <pt x="72" y="5" on="1"/>
        <pt x="71" y="-26" on="0"/>
        <pt x="72" y="-56" on="1"/>
        <pt x="73" y="-82" on="0"/>
        <pt x="78" y="-139" on="0"/>
        <pt x="85" y="-161" on="1"/>
        <pt x="68" y="-169" on="0"/>
        <pt x="42" y="-176" on="0"/>
        <pt x="34" y="-178" on="1"/>
        <pt x="24" y="-180" on="0"/>
        <pt x="17" y="-180" on="1"/>
        <pt x="9" y="-180" on="0"/>
        <pt x="-13" y="-177" on="0"/>
        <pt x="-31" y="-159" on="0"/>
        <pt x="-43" y="-121" on="0"/>
        <pt x="-41" y="-85" on="1"/>
        <pt x="-40" y="-61" on="0"/>
        <pt x="-27" y="10" on="0"/>
        <pt x="-9" y="95" on="0"/>
        <pt x="14" y="186" on="0"/>
        <pt x="36" y="273" on="0"/>
        <pt x="55" y="351" on="0"/>
        <pt x="62" y="379" on="1"/>
        <pt x="71" y="415" on="0"/>
        <pt x="82" y="463" on="1"/>
        <pt x="101" y="545" on="0"/>
        <pt x="139" y="709" on="1"/>
        <pt x="146" y="714" on="0"/>
        <pt x="162" y="723" on="0"/>
        <pt x="168" y="726" on="1"/>
        <pt x="175" y="730" on="0"/>
        <pt x="182" y="732" on="1"/>
        <pt x="214" y="744" on="0"/>
        <pt x="241" y="726" on="0"/>
        <pt x="243" y="699" on="1"/>
        <pt x="244" y="681" on="0"/>
        <pt x="251" y="613" on="0"/>
        <pt x="257" y="529" on="0"/>
        <pt x="261" y="440" on="0"/>
        <pt x="261" y="402" on="1"/>
        <pt x="261" y="377" on="0"/>
        <pt x="263" y="309" on="0"/>
        <pt x="267" y="233" on="0"/>
        <pt x="273" y="154" on="0"/>
        <pt x="281" y="82" on="0"/>
        <pt x="290" y="22" on="0"/>
        <pt x="295" y="3" on="1"/>
        <pt x="297" y="-5" on="0"/>
        <pt x="302" y="-19" on="0"/>
        <pt x="304" y="-26" on="1"/>
        <pt x="310" y="-2" on="0"/>
        <pt x="325" y="64" on="0"/>
        <pt x="342" y="139" on="0"/>
        <pt x="358" y="218" on="0"/>
        <pt x="364" y="253" on="1"/>
        <pt x="369" y="281" on="0"/>
        <pt x="381" y="369" on="0"/>
        <pt x="389" y="420" on="1"/>
        <pt x="378" y="424" on="0"/>
        <pt x="368" y="428" on="1"/>
        <pt x="359" y="432" on="0"/>
        <pt x="341" y="444" on="0"/>
        <pt x="335" y="452" on="1"/>
        <pt x="336" y="465" on="0"/>
        <pt x="339" y="477" on="0"/>
        <pt x="347" y="472" on="1"/>
        <pt x="353" y="469" on="0"/>
        <pt x="378" y="461" on="0"/>
        <pt x="395" y="459" on="1"/>
        <pt x="400" y="487" on="0"/>
        <pt x="413" y="543" on="0"/>
        <pt x="420" y="569" on="1"/>
        <pt x="431" y="612" on="0"/>
        <pt x="459" y="681" on="0"/>
        <pt x="496" y="729" on="0"/>
        <pt x="546" y="755" on="0"/>
        <pt x="579" y="756" on="1"/>
        <pt x="610" y="756" on="0"/>
        <pt x="649" y="705" on="0"/>
        <pt x="646" y="642" on="1"/>
        <pt x="644" y="595" on="0"/>
        <pt x="609" y="520" on="0"/>
        <pt x="559" y="463" on="0"/>
        <pt x="499" y="426" on="0"/>
        <pt x="472" y="418" on="1"/>
        <pt x="463" y="371" on="0"/>
        <pt x="447" y="276" on="0"/>
        <pt x="432" y="187" on="0"/>
        <pt x="417" y="107" on="0"/>
        <pt x="410" y="76" on="1"/>
        <pt x="403" y="46" on="0"/>
        <pt x="395" y="11" on="1"/>
        <pt x="388" y="-19" on="0"/>
        <pt x="368" y="-97" on="0"/>
        <pt x="357" y="-140" on="1"/>
        <pt x="353" y="-149" on="0"/>
        <pt x="341" y="-162" on="0"/>
        <pt x="335" y="-166" on="1"/>
        <pt x="328" y="-171" on="0"/>
        <pt x="321" y="-174" on="1"/>
        <pt x="301" y="-182" on="0"/>
        <pt x="273" y="-172" on="0"/>
        <pt x="262" y="-150" on="1"/>
        <pt x="251" y="-127" on="0"/>
        <pt x="234" y="-59" on="0"/>
        <pt x="225" y="-19" on="1"/>
        <pt x="216" y="24" on="0"/>
        <pt x="207" y="125" on="0"/>
        <pt x="202" y="230" on="0"/>
        <pt x="200" y="334" on="0"/>
        <pt x="197" y="380" on="1"/>
        <pt x="192" y="440" on="0"/>
        <pt x="182" y="535" on="0"/>
        <pt x="176" y="568" on="1"/>
        <pt x="172" y="548" on="0"/>
        <pt x="162" y="498" on="0"/>
      </contour>
      <contour>
        <pt x="492" y="514" on="1"/>
        <pt x="487" y="495" on="0"/>
        <pt x="484" y="478" on="1"/>
        <pt x="508" y="492" on="0"/>
        <pt x="550" y="535" on="0"/>
        <pt x="580" y="583" on="0"/>
        <pt x="597" y="631" on="0"/>
        <pt x="598" y="651" on="1"/>
        <pt x="599" y="665" on="0"/>
        <pt x="592" y="682" on="0"/>
        <pt x="583" y="682" on="1"/>
        <pt x="578" y="682" on="0"/>
        <pt x="557" y="671" on="0"/>
        <pt x="531" y="636" on="0"/>
        <pt x="504" y="570" on="0"/>
      </contour>
    </TTGlyph>
    <TTGlyph name="Ntilde" xMin="-43" yMin="-182" xMax="649" yMax="882">
      <component glyphName="N" x="0" y="0" flags="0x204"/>
      <component glyphName="tilde" x="36" y="199" flags="0x4"/>
    </TTGlyph>
    <TTGlyph name="O" xMin="6" yMin="-195" xMax="532" yMax="765">
      <contour>
        <pt x="524" y="336" on="1"/>
        <pt x="519" y="273" on="0"/>
        <pt x="489" y="146" on="0"/>
        <pt x="444" y="28" on="0"/>
        <pt x="384" y="-75" on="0"/>
        <pt x="311" y="-151" on="0"/>
        <pt x="228" y="-195" on="0"/>
        <pt x="183" y="-195" on="1"/>
        <pt x="174" y="-195" on="0"/>
        <pt x="137" y="-188" on="0"/>
        <pt x="95" y="-163" on="0"/>
        <pt x="52" y="-115" on="0"/>
        <pt x="20" y="-34" on="0"/>
        <pt x="6" y="86" on="0"/>
        <pt x="13" y="171" on="1"/>
        <pt x="25" y="305" on="0"/>
        <pt x="100" y="524" on="0"/>
        <pt x="197" y="680" on="0"/>
        <pt x="301" y="765" on="0"/>
        <pt x="341" y="765" on="1"/>
        <pt x="357" y="765" on="0"/>
        <pt x="378" y="752" on="0"/>
        <pt x="384" y="742" on="1"/>
        <pt x="391" y="744" on="0"/>
        <pt x="409" y="746" on="0"/>
        <pt x="420" y="746" on="1"/>
        <pt x="449" y="746" on="0"/>
        <pt x="494" y="686" on="0"/>
        <pt x="523" y="578" on="0"/>
        <pt x="532" y="427" on="0"/>
      </contour>
      <contour>
        <pt x="186" y="-137" on="1"/>
        <pt x="225" y="-137" on="0"/>
        <pt x="307" y="-57" on="0"/>
        <pt x="377" y="80" on="0"/>
        <pt x="427" y="262" on="0"/>
        <pt x="436" y="364" on="1"/>
        <pt x="438" y="391" on="0"/>
        <pt x="440" y="461" on="0"/>
        <pt x="438" y="533" on="0"/>
        <pt x="431" y="604" on="0"/>
        <pt x="419" y="658" on="0"/>
        <pt x="401" y="692" on="0"/>
        <pt x="389" y="692" on="1"/>
        <pt x="376" y="691" on="0"/>
        <pt x="363" y="684" on="1"/>
        <pt x="352" y="678" on="0"/>
        <pt x="323" y="651" on="0"/>
        <pt x="309" y="627" on="1"/>
        <pt x="306" y="629" on="0"/>
        <pt x="303" y="637" on="0"/>
        <pt x="301" y="641" on="1"/>
        <pt x="299" y="645" on="0"/>
        <pt x="298" y="650" on="1"/>
        <pt x="296" y="653" on="0"/>
        <pt x="296" y="662" on="0"/>
        <pt x="295" y="668" on="1"/>
        <pt x="275" y="646" on="0"/>
        <pt x="220" y="565" on="0"/>
        <pt x="165" y="445" on="0"/>
        <pt x="120" y="282" on="0"/>
        <pt x="111" y="178" on="1"/>
        <pt x="103" y="86" on="0"/>
        <pt x="111" y="-36" on="0"/>
        <pt x="134" y="-108" on="0"/>
        <pt x="168" y="-137" on="0"/>
      </contour>
    </TTGlyph>
    <TTGlyph name="OE" xMin="6" yMin="-195" xMax="957" yMax="765">
      <contour>
        <pt x="812" y="754" on="1"/>
        <pt x="850" y="754" on="0"/>
        <pt x="905" y="729" on="0"/>
        <pt x="939" y="692" on="0"/>
        <pt x="956" y="649" on="0"/>
        <pt x="956" y="631" on="1"/>
        <pt x="957" y="598" on="0"/>
        <pt x="939" y="530" on="0"/>
        <pt x="910" y="475" on="0"/>
        <pt x="874" y="440" on="0"/>
        <pt x="857" y="440" on="1"/>
        <pt x="844" y="440" on="0"/>
        <pt x="830" y="444" on="1"/>
        <pt x="818" y="447" on="0"/>
        <pt x="786" y="461" on="0"/>
        <pt x="770" y="475" on="1"/>
        <pt x="796" y="485" on="0"/>
        <pt x="836" y="522" on="0"/>
        <pt x="863" y="568" on="0"/>
        <pt x="877" y="617" on="0"/>
        <pt x="876" y="639" on="1"/>
        <pt x="874" y="671" on="0"/>
        <pt x="847" y="706" on="0"/>
        <pt x="815" y="706" on="1"/>
        <pt x="774" y="706" on="0"/>
        <pt x="690" y="665" on="0"/>
        <pt x="626" y="592" on="0"/>
        <pt x="589" y="491" on="0"/>
        <pt x="595" y="432" on="1"/>
        <pt x="597" y="409" on="0"/>
        <pt x="612" y="372" on="0"/>
        <pt x="632" y="341" on="0"/>
        <pt x="655" y="317" on="0"/>
        <pt x="665" y="308" on="1"/>
        <pt x="680" y="310" on="0"/>
        <pt x="709" y="313" on="0"/>
        <pt x="721" y="313" on="1"/>
        <pt x="738" y="313" on="0"/>
        <pt x="771" y="301" on="0"/>
        <pt x="771" y="290" on="1"/>
        <pt x="771" y="282" on="0"/>
        <pt x="763" y="262" on="0"/>
        <pt x="748" y="244" on="0"/>
        <pt x="726" y="232" on="0"/>
        <pt x="711" y="232" on="1"/>
        <pt x="698" y="232" on="0"/>
        <pt x="666" y="244" on="0"/>
        <pt x="648" y="253" on="1"/>
        <pt x="610" y="245" on="0"/>
        <pt x="548" y="204" on="0"/>
        <pt x="504" y="148" on="0"/>
        <pt x="480" y="82" on="0"/>
        <pt x="481" y="51" on="1"/>
        <pt x="482" y="22" on="0"/>
        <pt x="498" y="-37" on="0"/>
        <pt x="533" y="-83" on="0"/>
        <pt x="589" y="-112" on="0"/>
        <pt x="628" y="-112" on="1"/>
        <pt x="657" y="-112" on="0"/>
        <pt x="710" y="-87" on="0"/>
        <pt x="755" y="-49" on="0"/>
        <pt x="793" y="-3" on="0"/>
        <pt x="821" y="41" on="0"/>
        <pt x="840" y="77" on="0"/>
        <pt x="844" y="85" on="1"/>
        <pt x="847" y="91" on="0"/>
        <pt x="859" y="97" on="0"/>
        <pt x="869" y="94" on="0"/>
        <pt x="874" y="82" on="0"/>
        <pt x="871" y="70" on="1"/>
        <pt x="863" y="34" on="0"/>
        <pt x="820" y="-55" on="0"/>
        <pt x="751" y="-133" on="0"/>
        <pt x="657" y="-186" on="0"/>
        <pt x="600" y="-186" on="1"/>
        <pt x="528" y="-186" on="0"/>
        <pt x="416" y="-116" on="0"/>
        <pt x="391" y="-58" on="1"/>
        <pt x="349" y="-120" on="0"/>
        <pt x="243" y="-195" on="0"/>
        <pt x="183" y="-195" on="1"/>
        <pt x="174" y="-195" on="0"/>
        <pt x="137" y="-188" on="0"/>
        <pt x="95" y="-163" on="0"/>
        <pt x="52" y="-115" on="0"/>
        <pt x="20" y="-34" on="0"/>
        <pt x="6" y="86" on="0"/>
        <pt x="13" y="171" on="1"/>
        <pt x="25" y="305" on="0"/>
        <pt x="100" y="524" on="0"/>
        <pt x="197" y="680" on="0"/>
        <pt x="301" y="765" on="0"/>
        <pt x="341" y="765" on="1"/>
        <pt x="357" y="765" on="0"/>
        <pt x="378" y="752" on="0"/>
        <pt x="384" y="742" on="1"/>
        <pt x="391" y="744" on="0"/>
        <pt x="409" y="746" on="0"/>
        <pt x="420" y="746" on="1"/>
        <pt x="455" y="746" on="0"/>
        <pt x="506" y="662" on="0"/>
        <pt x="518" y="587" on="1"/>
        <pt x="541" y="626" on="0"/>
        <pt x="609" y="687" on="0"/>
        <pt x="687" y="731" on="0"/>
        <pt x="772" y="754" on="0"/>
      </contour>
      <contour>
        <pt x="436" y="364" on="1"/>
        <pt x="438" y="391" on="0"/>
        <pt x="440" y="461" on="0"/>
        <pt x="438" y="533" on="0"/>
        <pt x="431" y="604" on="0"/>
        <pt x="419" y="658" on="0"/>
        <pt x="401" y="692" on="0"/>
        <pt x="389" y="692" on="1"/>
        <pt x="376" y="691" on="0"/>
        <pt x="363" y="684" on="1"/>
        <pt x="352" y="678" on="0"/>
        <pt x="323" y="651" on="0"/>
        <pt x="309" y="627" on="1"/>
        <pt x="306" y="629" on="0"/>
        <pt x="303" y="637" on="0"/>
        <pt x="301" y="641" on="1"/>
        <pt x="299" y="645" on="0"/>
        <pt x="298" y="650" on="1"/>
        <pt x="296" y="653" on="0"/>
        <pt x="296" y="662" on="0"/>
        <pt x="295" y="668" on="1"/>
        <pt x="275" y="646" on="0"/>
        <pt x="220" y="565" on="0"/>
        <pt x="165" y="445" on="0"/>
        <pt x="120" y="282" on="0"/>
        <pt x="111" y="178" on="1"/>
        <pt x="103" y="86" on="0"/>
        <pt x="111" y="-36" on="0"/>
        <pt x="134" y="-108" on="0"/>
        <pt x="168" y="-137" on="0"/>
        <pt x="186" y="-137" on="1"/>
        <pt x="225" y="-137" on="0"/>
        <pt x="307" y="-57" on="0"/>
        <pt x="377" y="80" on="0"/>
        <pt x="427" y="262" on="0"/>
      </contour>
      <contour>
        <pt x="513" y="251" on="1"/>
        <pt x="533" y="262" on="0"/>
        <pt x="571" y="281" on="0"/>
        <pt x="591" y="288" on="1"/>
        <pt x="553" y="307" on="0"/>
        <pt x="525" y="342" on="1"/>
        <pt x="525" y="340" on="0"/>
        <pt x="524" y="338" on="0"/>
        <pt x="524" y="336" on="1"/>
        <pt x="522" y="315" on="0"/>
        <pt x="517" y="273" on="0"/>
      </contour>
    </TTGlyph>
    <TTGlyph name="Oacute" xMin="6" yMin="-195" xMax="532" yMax="949">
      <component glyphName="O" x="0" y="0" flags="0x204"/>
      <component glyphName="acute" x="51" y="246" flags="0x4"/>
    </TTGlyph>
    <TTGlyph name="Ocircumflex" xMin="6" yMin="-195" xMax="537" yMax="939">
      <component glyphName="O" x="0" y="0" flags="0x204"/>
      <component glyphName="circumflex" x="41" y="236" flags="0x4"/>
    </TTGlyph>
    <TTGlyph name="Odieresis" xMin="6" yMin="-195" xMax="538" yMax="898">
      <component glyphName="O" x="0" y="0" flags="0x204"/>
      <component glyphName="dieresis" x="51" y="225" flags="0x4"/>
    </TTGlyph>
    <TTGlyph name="Ograve" xMin="6" yMin="-195" xMax="532" yMax="947">
      <component glyphName="O" x="0" y="0" flags="0x204"/>
      <component glyphName="grave" x="51" y="246" flags="0x4"/>
    </TTGlyph>
    <TTGlyph name="Oslash" xMin="-28" yMin="-215" xMax="614" yMax="780">
      <contour>
        <pt x="560" y="773" on="1"/>
        <pt x="592" y="780" on="0"/>
        <pt x="614" y="776" on="0"/>
        <pt x="612" y="771" on="1"/>
        <pt x="606" y="761" on="0"/>
        <pt x="558" y="681" on="0"/>
        <pt x="523" y="623" on="1"/>
        <pt x="537" y="569" on="0"/>
        <pt x="545" y="424" on="0"/>
        <pt x="538" y="336" on="1"/>
        <pt x="532" y="273" on="0"/>
        <pt x="503" y="146" on="0"/>
        <pt x="457" y="28" on="0"/>
        <pt x="396" y="-75" on="0"/>
        <pt x="324" y="-151" on="0"/>
        <pt x="241" y="-195" on="0"/>
        <pt x="196" y="-195" on="1"/>
        <pt x="183" y="-195" on="0"/>
        <pt x="131" y="-181" on="0"/>
        <pt x="103" y="-157" on="1"/>
        <pt x="88" y="-190" on="1"/>
        <pt x="71" y="-200" on="0"/>
        <pt x="40" y="-210" on="0"/>
        <pt x="29" y="-212" on="1"/>
        <pt x="15" y="-215" on="0"/>
        <pt x="4" y="-215" on="1"/>
        <pt x="-22" y="-215" on="0"/>
        <pt x="-28" y="-202" on="0"/>
        <pt x="-18" y="-185" on="1"/>
        <pt x="-16" y="-180" on="0"/>
        <pt x="19" y="-116" on="0"/>
        <pt x="46" y="-68" on="1"/>
        <pt x="32" y="-26" on="0"/>
        <pt x="19" y="89" on="0"/>
        <pt x="27" y="171" on="1"/>
        <pt x="38" y="305" on="0"/>
        <pt x="113" y="524" on="0"/>
        <pt x="210" y="680" on="0"/>
        <pt x="314" y="765" on="0"/>
        <pt x="354" y="765" on="1"/>
        <pt x="371" y="765" on="0"/>
        <pt x="390" y="752" on="0"/>
        <pt x="396" y="742" on="1"/>
        <pt x="404" y="744" on="0"/>
        <pt x="421" y="746" on="0"/>
        <pt x="432" y="746" on="1"/>
        <pt x="460" y="746" on="0"/>
        <pt x="482" y="718" on="1"/>
        <pt x="489" y="729" on="0"/>
        <pt x="501" y="746" on="0"/>
        <pt x="518" y="760" on="0"/>
        <pt x="541" y="769" on="0"/>
      </contour>
      <contour>
        <pt x="123" y="178" on="1"/>
        <pt x="121" y="145" on="0"/>
        <pt x="118" y="87" on="0"/>
        <pt x="118" y="62" on="1"/>
        <pt x="145" y="108" on="0"/>
        <pt x="175" y="163" on="1"/>
        <pt x="201" y="209" on="0"/>
        <pt x="267" y="330" on="0"/>
        <pt x="304" y="396" on="1"/>
        <pt x="437" y="636" on="1"/>
        <pt x="431" y="662" on="0"/>
        <pt x="414" y="692" on="0"/>
        <pt x="402" y="692" on="1"/>
        <pt x="389" y="691" on="0"/>
        <pt x="376" y="684" on="1"/>
        <pt x="365" y="678" on="0"/>
        <pt x="336" y="651" on="0"/>
        <pt x="322" y="627" on="1"/>
        <pt x="317" y="631" on="0"/>
        <pt x="313" y="641" on="1"/>
        <pt x="311" y="645" on="0"/>
        <pt x="310" y="650" on="1"/>
        <pt x="308" y="656" on="0"/>
        <pt x="307" y="668" on="1"/>
        <pt x="288" y="646" on="0"/>
        <pt x="232" y="565" on="0"/>
        <pt x="177" y="445" on="0"/>
        <pt x="132" y="282" on="0"/>
      </contour>
      <contour>
        <pt x="449" y="364" on="1"/>
        <pt x="451" y="391" on="0"/>
        <pt x="453" y="463" on="0"/>
        <pt x="452" y="501" on="1"/>
        <pt x="424" y="453" on="0"/>
        <pt x="366" y="353" on="0"/>
        <pt x="311" y="255" on="0"/>
        <pt x="261" y="164" on="0"/>
        <pt x="242" y="125" on="1"/>
        <pt x="208" y="59" on="0"/>
        <pt x="157" y="-43" on="0"/>
        <pt x="139" y="-81" on="1"/>
        <pt x="151" y="-112" on="0"/>
        <pt x="182" y="-137" on="0"/>
        <pt x="199" y="-137" on="1"/>
        <pt x="238" y="-137" on="0"/>
        <pt x="319" y="-57" on="0"/>
        <pt x="389" y="80" on="0"/>
        <pt x="440" y="262" on="0"/>
      </contour>
    </TTGlyph>
    <TTGlyph name="Otilde" xMin="6" yMin="-195" xMax="545" yMax="912">
      <component glyphName="O" x="0" y="0" flags="0x204"/>
      <component glyphName="tilde" x="36" y="229" flags="0x4"/>
    </TTGlyph>
    <TTGlyph name="P" xMin="-51" yMin="-177" xMax="584" yMax="756">
      <contour>
        <pt x="-51" y="-143" on="1"/>
        <pt x="-47" y="-140" on="0"/>
        <pt x="-30" y="-126" on="0"/>
        <pt x="-7" y="-88" on="0"/>
        <pt x="21" y="-16" on="0"/>
        <pt x="36" y="46" on="1"/>
        <pt x="44" y="79" on="0"/>
        <pt x="70" y="181" on="0"/>
        <pt x="101" y="297" on="0"/>
        <pt x="133" y="420" on="0"/>
        <pt x="163" y="531" on="0"/>
        <pt x="187" y="621" on="0"/>
        <pt x="194" y="646" on="1"/>
        <pt x="175" y="634" on="0"/>
        <pt x="157" y="619" on="1"/>
        <pt x="141" y="606" on="0"/>
        <pt x="105" y="573" on="0"/>
        <pt x="88" y="555" on="1"/>
        <pt x="75" y="566" on="0"/>
        <pt x="68" y="579" on="1"/>
        <pt x="64" y="585" on="0"/>
        <pt x="61" y="592" on="1"/>
        <pt x="55" y="607" on="0"/>
        <pt x="55" y="639" on="0"/>
        <pt x="80" y="656" on="1"/>
        <pt x="93" y="665" on="0"/>
        <pt x="146" y="699" on="0"/>
        <pt x="224" y="732" on="0"/>
        <pt x="328" y="756" on="0"/>
        <pt x="391" y="756" on="1"/>
        <pt x="454" y="756" on="0"/>
        <pt x="531" y="706" on="0"/>
        <pt x="572" y="634" on="0"/>
        <pt x="584" y="554" on="0"/>
        <pt x="581" y="524" on="1"/>
        <pt x="575" y="468" on="0"/>
        <pt x="515" y="346" on="0"/>
        <pt x="409" y="243" on="0"/>
        <pt x="257" y="171" on="0"/>
        <pt x="159" y="166" on="1"/>
        <pt x="151" y="128" on="0"/>
        <pt x="135" y="48" on="0"/>
        <pt x="117" y="-29" on="0"/>
        <pt x="98" y="-96" on="0"/>
        <pt x="88" y="-120" on="1"/>
        <pt x="78" y="-146" on="0"/>
        <pt x="46" y="-177" on="0"/>
        <pt x="11" y="-177" on="1"/>
        <pt x="-7" y="-177" on="0"/>
        <pt x="-38" y="-159" on="0"/>
      </contour>
      <contour>
        <pt x="186" y="313" on="1"/>
        <pt x="183" y="297" on="0"/>
        <pt x="174" y="246" on="0"/>
        <pt x="168" y="214" on="1"/>
        <pt x="195" y="218" on="0"/>
        <pt x="261" y="239" on="0"/>
        <pt x="327" y="275" on="0"/>
        <pt x="390" y="326" on="0"/>
        <pt x="442" y="393" on="0"/>
        <pt x="477" y="478" on="0"/>
        <pt x="482" y="530" on="1"/>
        <pt x="487" y="580" on="0"/>
        <pt x="466" y="647" on="0"/>
        <pt x="426" y="688" on="0"/>
        <pt x="374" y="705" on="0"/>
        <pt x="348" y="705" on="1"/>
        <pt x="323" y="705" on="0"/>
        <pt x="275" y="691" on="0"/>
        <pt x="251" y="680" on="1"/>
        <pt x="254" y="679" on="0"/>
        <pt x="258" y="675" on="1"/>
        <pt x="264" y="669" on="0"/>
        <pt x="267" y="658" on="1"/>
        <pt x="243" y="561" on="0"/>
        <pt x="212" y="431" on="0"/>
        <pt x="203" y="390" on="1"/>
        <pt x="192" y="342" on="0"/>
      </contour>
    </TTGlyph>
    <TTGlyph name="Q" xMin="22" yMin="-190" xMax="561" yMax="755">
      <contour>
        <pt x="385" y="755" on="1"/>
        <pt x="424" y="755" on="0"/>
        <pt x="482" y="721" on="0"/>
        <pt x="522" y="666" on="0"/>
        <pt x="546" y="598" on="0"/>
        <pt x="558" y="529" on="0"/>
        <pt x="561" y="467" on="0"/>
        <pt x="560" y="447" on="1"/>
        <pt x="555" y="369" on="0"/>
        <pt x="520" y="225" on="0"/>
        <pt x="468" y="98" on="0"/>
        <pt x="402" y="-9" on="0"/>
        <pt x="366" y="-51" on="1"/>
        <pt x="371" y="-56" on="0"/>
        <pt x="382" y="-68" on="0"/>
        <pt x="387" y="-73" on="1"/>
        <pt x="415" y="-101" on="0"/>
        <pt x="444" y="-120" on="1"/>
        <pt x="469" y="-137" on="0"/>
        <pt x="529" y="-160" on="0"/>
        <pt x="556" y="-152" on="1"/>
        <pt x="557" y="-166" on="0"/>
        <pt x="538" y="-181" on="0"/>
        <pt x="527" y="-185" on="1"/>
        <pt x="514" y="-189" on="0"/>
        <pt x="496" y="-190" on="1"/>
        <pt x="473" y="-190" on="0"/>
        <pt x="422" y="-171" on="0"/>
        <pt x="375" y="-144" on="0"/>
        <pt x="333" y="-112" on="0"/>
        <pt x="319" y="-100" on="1"/>
        <pt x="274" y="-144" on="0"/>
        <pt x="187" y="-188" on="0"/>
        <pt x="150" y="-188" on="1"/>
        <pt x="89" y="-188" on="0"/>
        <pt x="37" y="-135" on="0"/>
        <pt x="40" y="-96" on="1"/>
        <pt x="41" y="-77" on="0"/>
        <pt x="63" y="-35" on="0"/>
        <pt x="102" y="0" on="0"/>
        <pt x="156" y="22" on="0"/>
        <pt x="191" y="22" on="1"/>
        <pt x="225" y="22" on="0"/>
        <pt x="278" y="10" on="0"/>
        <pt x="304" y="-4" on="1"/>
        <pt x="336" y="41" on="0"/>
        <pt x="394" y="154" on="0"/>
        <pt x="439" y="276" on="0"/>
        <pt x="469" y="400" on="0"/>
        <pt x="473" y="456" on="1"/>
        <pt x="477" y="528" on="0"/>
        <pt x="461" y="621" on="0"/>
        <pt x="431" y="676" on="0"/>
        <pt x="395" y="698" on="0"/>
        <pt x="380" y="698" on="1"/>
        <pt x="346" y="698" on="0"/>
        <pt x="263" y="631" on="0"/>
        <pt x="187" y="511" on="0"/>
        <pt x="131" y="347" on="0"/>
        <pt x="124" y="250" on="1"/>
        <pt x="123" y="208" on="0"/>
        <pt x="132" y="175" on="1"/>
        <pt x="136" y="161" on="0"/>
        <pt x="149" y="134" on="0"/>
        <pt x="169" y="113" on="0"/>
        <pt x="197" y="101" on="0"/>
        <pt x="216" y="102" on="1"/>
        <pt x="214" y="85" on="0"/>
        <pt x="192" y="67" on="0"/>
        <pt x="180" y="63" on="1"/>
        <pt x="166" y="58" on="0"/>
        <pt x="148" y="58" on="1"/>
        <pt x="133" y="58" on="0"/>
        <pt x="89" y="83" on="0"/>
        <pt x="48" y="137" on="0"/>
        <pt x="22" y="222" on="0"/>
        <pt x="27" y="282" on="1"/>
        <pt x="30" y="322" on="0"/>
        <pt x="53" y="423" on="0"/>
        <pt x="95" y="528" on="0"/>
        <pt x="154" y="628" on="0"/>
        <pt x="232" y="707" on="0"/>
        <pt x="328" y="755" on="0"/>
      </contour>
      <contour>
        <pt x="152" y="-119" on="1"/>
        <pt x="178" y="-119" on="0"/>
        <pt x="235" y="-84" on="0"/>
        <pt x="263" y="-54" on="1"/>
        <pt x="239" y="-38" on="0"/>
        <pt x="212" y="-38" on="1"/>
        <pt x="193" y="-38" on="0"/>
        <pt x="162" y="-49" on="0"/>
        <pt x="140" y="-67" on="0"/>
        <pt x="127" y="-88" on="0"/>
        <pt x="127" y="-98" on="1"/>
        <pt x="126" y="-107" on="0"/>
        <pt x="138" y="-119" on="0"/>
      </contour>
    </TTGlyph>
    <TTGlyph name="R" xMin="-36" yMin="-253" xMax="592" yMax="757">
      <contour>
        <pt x="180" y="216" on="1"/>
        <pt x="192" y="218" on="0"/>
        <pt x="216" y="223" on="0"/>
        <pt x="230" y="227" on="1"/>
        <pt x="213" y="243" on="0"/>
        <pt x="185" y="247" on="1"/>
        <pt x="182" y="231" on="0"/>
      </contour>
      <contour>
        <pt x="589" y="525" on="1"/>
        <pt x="585" y="482" on="0"/>
        <pt x="548" y="388" on="0"/>
        <pt x="482" y="300" on="0"/>
        <pt x="388" y="224" on="0"/>
        <pt x="328" y="200" on="1"/>
        <pt x="337" y="183" on="0"/>
        <pt x="353" y="145" on="0"/>
        <pt x="359" y="121" on="1"/>
        <pt x="368" y="89" on="0"/>
        <pt x="381" y="21" on="0"/>
        <pt x="390" y="-43" on="0"/>
        <pt x="397" y="-98" on="0"/>
        <pt x="399" y="-116" on="1"/>
        <pt x="403" y="-146" on="0"/>
        <pt x="434" y="-171" on="0"/>
        <pt x="473" y="-174" on="0"/>
        <pt x="512" y="-162" on="0"/>
        <pt x="523" y="-155" on="1"/>
        <pt x="522" y="-156" on="0"/>
        <pt x="502" y="-189" on="0"/>
        <pt x="468" y="-226" on="0"/>
        <pt x="421" y="-253" on="0"/>
        <pt x="392" y="-248" on="1"/>
        <pt x="372" y="-245" on="0"/>
        <pt x="341" y="-224" on="0"/>
        <pt x="318" y="-183" on="0"/>
        <pt x="304" y="-119" on="0"/>
        <pt x="302" y="-73" on="1"/>
        <pt x="300" y="-11" on="0"/>
        <pt x="295" y="102" on="0"/>
        <pt x="276" y="150" on="1"/>
        <pt x="273" y="158" on="0"/>
        <pt x="267" y="173" on="0"/>
        <pt x="263" y="179" on="1"/>
        <pt x="222" y="169" on="0"/>
        <pt x="171" y="166" on="1"/>
        <pt x="164" y="128" on="0"/>
        <pt x="148" y="48" on="0"/>
        <pt x="131" y="-28" on="0"/>
        <pt x="112" y="-95" on="0"/>
        <pt x="103" y="-119" on="1"/>
        <pt x="93" y="-144" on="0"/>
        <pt x="62" y="-175" on="0"/>
        <pt x="28" y="-175" on="1"/>
        <pt x="8" y="-175" on="0"/>
        <pt x="-22" y="-157" on="0"/>
        <pt x="-36" y="-141" on="1"/>
        <pt x="-32" y="-138" on="0"/>
        <pt x="-15" y="-125" on="0"/>
        <pt x="8" y="-86" on="0"/>
        <pt x="35" y="-14" on="0"/>
        <pt x="49" y="47" on="1"/>
        <pt x="54" y="72" on="0"/>
        <pt x="71" y="139" on="0"/>
        <pt x="81" y="179" on="1"/>
        <pt x="41" y="201" on="0"/>
        <pt x="44" y="238" on="1"/>
        <pt x="46" y="261" on="0"/>
        <pt x="84" y="293" on="0"/>
        <pt x="111" y="299" on="1"/>
        <pt x="124" y="351" on="0"/>
        <pt x="151" y="457" on="0"/>
        <pt x="175" y="550" on="0"/>
        <pt x="195" y="625" on="0"/>
        <pt x="201" y="647" on="1"/>
        <pt x="183" y="635" on="0"/>
        <pt x="165" y="620" on="1"/>
        <pt x="149" y="607" on="0"/>
        <pt x="112" y="574" on="0"/>
        <pt x="96" y="556" on="1"/>
        <pt x="88" y="562" on="0"/>
        <pt x="78" y="576" on="0"/>
        <pt x="75" y="581" on="1"/>
        <pt x="71" y="587" on="0"/>
        <pt x="69" y="594" on="1"/>
        <pt x="62" y="608" on="0"/>
        <pt x="62" y="641" on="0"/>
        <pt x="86" y="658" on="1"/>
        <pt x="99" y="667" on="0"/>
        <pt x="152" y="701" on="0"/>
        <pt x="230" y="733" on="0"/>
        <pt x="333" y="757" on="0"/>
        <pt x="396" y="757" on="1"/>
        <pt x="459" y="757" on="0"/>
        <pt x="537" y="707" on="0"/>
        <pt x="579" y="635" on="0"/>
        <pt x="592" y="555" on="0"/>
      </contour>
      <contour>
        <pt x="287" y="250" on="1"/>
        <pt x="322" y="267" on="0"/>
        <pt x="391" y="317" on="0"/>
        <pt x="447" y="387" on="0"/>
        <pt x="485" y="476" on="0"/>
        <pt x="490" y="532" on="1"/>
        <pt x="494" y="582" on="0"/>
        <pt x="473" y="649" on="0"/>
        <pt x="432" y="689" on="0"/>
        <pt x="380" y="706" on="0"/>
        <pt x="354" y="706" on="1"/>
        <pt x="330" y="706" on="0"/>
        <pt x="281" y="692" on="0"/>
        <pt x="258" y="681" on="1"/>
        <pt x="261" y="680" on="0"/>
        <pt x="265" y="676" on="1"/>
        <pt x="267" y="673" on="0"/>
        <pt x="272" y="664" on="0"/>
        <pt x="273" y="659" on="1"/>
        <pt x="250" y="562" on="0"/>
        <pt x="222" y="432" on="0"/>
        <pt x="213" y="391" on="1"/>
        <pt x="202" y="343" on="0"/>
        <pt x="197" y="314" on="1"/>
        <pt x="196" y="310" on="0"/>
        <pt x="195" y="302" on="0"/>
        <pt x="194" y="297" on="1"/>
        <pt x="216" y="292" on="0"/>
        <pt x="264" y="271" on="0"/>
      </contour>
    </TTGlyph>
    <TTGlyph name="S" xMin="-51" yMin="-197" xMax="508" yMax="783">
      <contour>
        <pt x="367" y="459" on="1"/>
        <pt x="366" y="462" on="0"/>
        <pt x="380" y="487" on="0"/>
        <pt x="397" y="524" on="0"/>
        <pt x="414" y="571" on="0"/>
        <pt x="421" y="621" on="0"/>
        <pt x="413" y="671" on="0"/>
        <pt x="396" y="694" on="1"/>
        <pt x="386" y="706" on="0"/>
        <pt x="347" y="709" on="0"/>
        <pt x="298" y="694" on="0"/>
        <pt x="245" y="663" on="0"/>
        <pt x="201" y="622" on="0"/>
        <pt x="170" y="572" on="0"/>
        <pt x="168" y="546" on="1"/>
        <pt x="166" y="525" on="0"/>
        <pt x="173" y="489" on="0"/>
        <pt x="185" y="459" on="0"/>
        <pt x="199" y="433" on="0"/>
        <pt x="205" y="423" on="1"/>
        <pt x="213" y="409" on="0"/>
        <pt x="247" y="375" on="0"/>
        <pt x="287" y="332" on="0"/>
        <pt x="327" y="278" on="0"/>
        <pt x="357" y="210" on="0"/>
        <pt x="369" y="126" on="0"/>
        <pt x="362" y="75" on="1"/>
        <pt x="351" y="1" on="0"/>
        <pt x="303" y="-98" on="0"/>
        <pt x="246" y="-158" on="0"/>
        <pt x="188" y="-185" on="0"/>
        <pt x="169" y="-189" on="1"/>
        <pt x="154" y="-192" on="0"/>
        <pt x="113" y="-197" on="0"/>
        <pt x="68" y="-190" on="0"/>
        <pt x="22" y="-169" on="0"/>
        <pt x="4" y="-147" on="1"/>
        <pt x="-17" y="-122" on="0"/>
        <pt x="-29" y="-93" on="1"/>
        <pt x="-40" y="-68" on="0"/>
        <pt x="-51" y="-3" on="0"/>
        <pt x="-40" y="32" on="1"/>
        <pt x="-32" y="41" on="0"/>
        <pt x="-14" y="55" on="0"/>
        <pt x="-5" y="60" on="1"/>
        <pt x="5" y="66" on="0"/>
        <pt x="16" y="71" on="1"/>
        <pt x="29" y="75" on="0"/>
        <pt x="42" y="78" on="1"/>
        <pt x="53" y="80" on="0"/>
        <pt x="78" y="81" on="0"/>
        <pt x="89" y="77" on="1"/>
        <pt x="74" y="60" on="0"/>
        <pt x="68" y="45" on="1"/>
        <pt x="64" y="37" on="0"/>
        <pt x="62" y="31" on="1"/>
        <pt x="58" y="12" on="0"/>
        <pt x="61" y="-41" on="0"/>
        <pt x="80" y="-90" on="0"/>
        <pt x="116" y="-125" on="0"/>
        <pt x="146" y="-126" on="1"/>
        <pt x="219" y="-128" on="0"/>
        <pt x="270" y="-12" on="1"/>
        <pt x="287" y="24" on="0"/>
        <pt x="288" y="98" on="0"/>
        <pt x="269" y="166" on="0"/>
        <pt x="238" y="225" on="0"/>
        <pt x="222" y="246" on="1"/>
        <pt x="206" y="267" on="0"/>
        <pt x="161" y="316" on="0"/>
        <pt x="117" y="374" on="0"/>
        <pt x="82" y="442" on="0"/>
        <pt x="76" y="482" on="1"/>
        <pt x="68" y="538" on="0"/>
        <pt x="105" y="631" on="0"/>
        <pt x="168" y="701" on="0"/>
        <pt x="243" y="745" on="0"/>
        <pt x="272" y="751" on="1"/>
        <pt x="433" y="783" on="0"/>
        <pt x="483" y="697" on="1"/>
        <pt x="504" y="664" on="0"/>
        <pt x="508" y="590" on="0"/>
        <pt x="495" y="527" on="0"/>
        <pt x="476" y="484" on="0"/>
        <pt x="473" y="482" on="1"/>
        <pt x="467" y="476" on="0"/>
        <pt x="441" y="462" on="0"/>
        <pt x="412" y="456" on="1"/>
        <pt x="404" y="454" on="0"/>
        <pt x="396" y="454" on="1"/>
        <pt x="389" y="454" on="0"/>
        <pt x="373" y="456" on="0"/>
      </contour>
    </TTGlyph>
    <TTGlyph name="Scaron" xMin="-51" yMin="-197" xMax="588" yMax="935">
      <component glyphName="S" x="0" y="0" flags="0x204"/>
      <component glyphName="caron" x="92" y="236" flags="0x4"/>
    </TTGlyph>
    <TTGlyph name="T" xMin="31" yMin="-184" xMax="553" yMax="743">
      <contour>
        <pt x="61" y="626" on="1"/>
        <pt x="49" y="622" on="0"/>
        <pt x="37" y="628" on="0"/>
        <pt x="31" y="642" on="0"/>
        <pt x="31" y="659" on="0"/>
        <pt x="32" y="667" on="1"/>
        <pt x="33" y="674" on="0"/>
        <pt x="38" y="692" on="0"/>
        <pt x="46" y="708" on="0"/>
        <pt x="57" y="719" on="0"/>
        <pt x="66" y="721" on="1"/>
        <pt x="112" y="729" on="0"/>
        <pt x="199" y="737" on="0"/>
        <pt x="234" y="739" on="1"/>
        <pt x="274" y="742" on="0"/>
        <pt x="311" y="742" on="1"/>
        <pt x="319" y="742" on="0"/>
        <pt x="335" y="741" on="0"/>
        <pt x="343" y="741" on="1"/>
        <pt x="352" y="743" on="0"/>
        <pt x="363" y="742" on="0"/>
        <pt x="367" y="741" on="1"/>
        <pt x="396" y="740" on="0"/>
        <pt x="427" y="738" on="1"/>
        <pt x="453" y="736" on="0"/>
        <pt x="518" y="731" on="0"/>
        <pt x="550" y="727" on="1"/>
        <pt x="553" y="719" on="0"/>
        <pt x="551" y="707" on="1"/>
        <pt x="550" y="701" on="0"/>
        <pt x="549" y="695" on="1"/>
        <pt x="548" y="689" on="0"/>
        <pt x="544" y="684" on="1"/>
        <pt x="541" y="679" on="0"/>
        <pt x="532" y="670" on="0"/>
        <pt x="526" y="667" on="1"/>
        <pt x="492" y="668" on="0"/>
        <pt x="429" y="669" on="0"/>
        <pt x="405" y="669" on="1"/>
        <pt x="351" y="669" on="1"/>
        <pt x="338" y="623" on="0"/>
        <pt x="300" y="488" on="0"/>
        <pt x="261" y="339" on="0"/>
        <pt x="226" y="192" on="0"/>
        <pt x="216" y="133" on="1"/>
        <pt x="206" y="76" on="0"/>
        <pt x="196" y="21" on="1"/>
        <pt x="192" y="-2" on="0"/>
        <pt x="183" y="-52" on="0"/>
        <pt x="176" y="-100" on="0"/>
        <pt x="170" y="-144" on="0"/>
        <pt x="168" y="-162" on="1"/>
        <pt x="152" y="-170" on="0"/>
        <pt x="124" y="-179" on="0"/>
        <pt x="113" y="-181" on="1"/>
        <pt x="100" y="-184" on="0"/>
        <pt x="89" y="-184" on="1"/>
        <pt x="65" y="-184" on="0"/>
        <pt x="54" y="-173" on="0"/>
        <pt x="58" y="-157" on="1"/>
        <pt x="61" y="-143" on="0"/>
        <pt x="76" y="-81" on="1"/>
        <pt x="82" y="-55" on="0"/>
        <pt x="101" y="24" on="0"/>
        <pt x="127" y="137" on="0"/>
        <pt x="163" y="288" on="0"/>
        <pt x="186" y="386" on="1"/>
        <pt x="253" y="664" on="1"/>
        <pt x="223" y="660" on="0"/>
        <pt x="165" y="650" on="0"/>
        <pt x="114" y="639" on="0"/>
        <pt x="73" y="629" on="0"/>
      </contour>
    </TTGlyph>
    <TTGlyph name="Thorn" xMin="-43" yMin="-184" xMax="554" yMax="744">
      <contour>
        <pt x="551" y="343" on="1"/>
        <pt x="545" y="285" on="0"/>
        <pt x="483" y="160" on="0"/>
        <pt x="369" y="55" on="0"/>
        <pt x="202" y="-15" on="0"/>
        <pt x="92" y="-16" on="1"/>
        <pt x="87" y="-44" on="0"/>
        <pt x="83" y="-71" on="1"/>
        <pt x="79" y="-94" on="0"/>
        <pt x="73" y="-145" on="0"/>
        <pt x="71" y="-162" on="1"/>
        <pt x="55" y="-170" on="0"/>
        <pt x="27" y="-179" on="0"/>
        <pt x="16" y="-181" on="1"/>
        <pt x="3" y="-184" on="0"/>
        <pt x="-8" y="-184" on="1"/>
        <pt x="-32" y="-184" on="0"/>
        <pt x="-43" y="-173" on="0"/>
        <pt x="-39" y="-157" on="1"/>
        <pt x="-36" y="-143" on="0"/>
        <pt x="-21" y="-81" on="1"/>
        <pt x="-15" y="-55" on="0"/>
        <pt x="4" y="24" on="0"/>
        <pt x="30" y="137" on="0"/>
        <pt x="66" y="288" on="0"/>
        <pt x="89" y="386" on="1"/>
        <pt x="95" y="410" on="1"/>
        <pt x="82" y="397" on="1"/>
        <pt x="77" y="392" on="0"/>
        <pt x="63" y="379" on="0"/>
        <pt x="58" y="373" on="1"/>
        <pt x="51" y="379" on="0"/>
        <pt x="41" y="393" on="0"/>
        <pt x="38" y="398" on="1"/>
        <pt x="34" y="404" on="0"/>
        <pt x="32" y="411" on="1"/>
        <pt x="29" y="418" on="0"/>
        <pt x="25" y="434" on="0"/>
        <pt x="27" y="450" on="0"/>
        <pt x="38" y="467" on="0"/>
        <pt x="50" y="475" on="1"/>
        <pt x="60" y="482" on="0"/>
        <pt x="95" y="505" on="0"/>
        <pt x="121" y="518" on="1"/>
        <pt x="160" y="683" on="1"/>
        <pt x="163" y="695" on="0"/>
        <pt x="171" y="712" on="0"/>
        <pt x="185" y="724" on="0"/>
        <pt x="207" y="733" on="0"/>
        <pt x="224" y="737" on="1"/>
        <pt x="252" y="744" on="0"/>
        <pt x="274" y="741" on="0"/>
        <pt x="272" y="736" on="1"/>
        <pt x="269" y="725" on="0"/>
        <pt x="243" y="626" on="0"/>
        <pt x="223" y="557" on="1"/>
        <pt x="253" y="565" on="0"/>
        <pt x="322" y="574" on="0"/>
        <pt x="361" y="574" on="1"/>
        <pt x="424" y="574" on="0"/>
        <pt x="501" y="524" on="0"/>
        <pt x="543" y="453" on="0"/>
        <pt x="554" y="373" on="0"/>
      </contour>
      <contour>
        <pt x="99" y="30" on="1"/>
        <pt x="144" y="32" on="0"/>
        <pt x="259" y="69" on="0"/>
        <pt x="365" y="145" on="0"/>
        <pt x="444" y="264" on="0"/>
        <pt x="453" y="349" on="1"/>
        <pt x="458" y="399" on="0"/>
        <pt x="436" y="466" on="0"/>
        <pt x="396" y="506" on="0"/>
        <pt x="344" y="523" on="0"/>
        <pt x="318" y="523" on="1"/>
        <pt x="290" y="523" on="0"/>
        <pt x="232" y="504" on="0"/>
        <pt x="206" y="490" on="1"/>
        <pt x="194" y="445" on="0"/>
        <pt x="169" y="350" on="0"/>
        <pt x="146" y="257" on="0"/>
        <pt x="126" y="170" on="0"/>
        <pt x="119" y="133" on="1"/>
        <pt x="114" y="104" on="0"/>
        <pt x="104" y="53" on="0"/>
      </contour>
    </TTGlyph>
    <TTGlyph name="U" xMin="10" yMin="-187" xMax="629" yMax="742">
      <contour>
        <pt x="10" y="-9" on="1"/>
        <pt x="11" y="56" on="0"/>
        <pt x="28" y="155" on="1"/>
        <pt x="42" y="240" on="0"/>
        <pt x="104" y="504" on="0"/>
        <pt x="162" y="690" on="1"/>
        <pt x="167" y="700" on="0"/>
        <pt x="188" y="714" on="0"/>
        <pt x="199" y="719" on="1"/>
        <pt x="211" y="724" on="0"/>
        <pt x="226" y="727" on="1"/>
        <pt x="240" y="730" on="0"/>
        <pt x="253" y="732" on="1"/>
        <pt x="264" y="734" on="0"/>
        <pt x="288" y="734" on="0"/>
        <pt x="296" y="732" on="1"/>
        <pt x="261" y="644" on="0"/>
        <pt x="211" y="501" on="0"/>
        <pt x="195" y="449" on="1"/>
        <pt x="176" y="388" on="0"/>
        <pt x="164" y="341" on="1"/>
        <pt x="147" y="291" on="0"/>
        <pt x="123" y="191" on="0"/>
        <pt x="108" y="102" on="0"/>
        <pt x="101" y="32" on="0"/>
        <pt x="101" y="12" on="1"/>
        <pt x="102" y="-48" on="0"/>
        <pt x="140" y="-117" on="0"/>
        <pt x="183" y="-117" on="1"/>
        <pt x="219" y="-117" on="0"/>
        <pt x="282" y="-49" on="0"/>
        <pt x="335" y="50" on="0"/>
        <pt x="373" y="164" on="0"/>
        <pt x="383" y="209" on="1"/>
        <pt x="385" y="217" on="0"/>
        <pt x="387" y="231" on="1"/>
        <pt x="400" y="293" on="0"/>
        <pt x="418" y="369" on="1"/>
        <pt x="433" y="434" on="0"/>
        <pt x="478" y="610" on="0"/>
        <pt x="507" y="714" on="1"/>
        <pt x="515" y="722" on="0"/>
        <pt x="535" y="732" on="0"/>
        <pt x="543" y="735" on="1"/>
        <pt x="553" y="739" on="0"/>
        <pt x="563" y="740" on="1"/>
        <pt x="573" y="742" on="0"/>
        <pt x="584" y="742" on="1"/>
        <pt x="593" y="742" on="0"/>
        <pt x="617" y="739" on="0"/>
        <pt x="629" y="735" on="1"/>
        <pt x="609" y="681" on="0"/>
        <pt x="571" y="564" on="0"/>
        <pt x="556" y="514" on="1"/>
        <pt x="538" y="456" on="0"/>
        <pt x="522" y="399" on="1"/>
        <pt x="499" y="327" on="0"/>
        <pt x="471" y="212" on="0"/>
        <pt x="454" y="115" on="0"/>
        <pt x="445" y="32" on="0"/>
        <pt x="441" y="-8" on="1"/>
        <pt x="438" y="-40" on="0"/>
        <pt x="440" y="-68" on="1"/>
        <pt x="442" y="-93" on="0"/>
        <pt x="452" y="-143" on="0"/>
        <pt x="465" y="-160" on="1"/>
        <pt x="460" y="-167" on="0"/>
        <pt x="442" y="-173" on="0"/>
        <pt x="432" y="-175" on="1"/>
        <pt x="421" y="-177" on="0"/>
        <pt x="408" y="-177" on="1"/>
        <pt x="382" y="-177" on="0"/>
        <pt x="357" y="-112" on="0"/>
        <pt x="356" y="-41" on="1"/>
        <pt x="348" y="-57" on="0"/>
        <pt x="314" y="-106" on="0"/>
        <pt x="263" y="-153" on="0"/>
        <pt x="195" y="-187" on="0"/>
        <pt x="153" y="-187" on="1"/>
        <pt x="111" y="-187" on="0"/>
        <pt x="56" y="-158" on="0"/>
        <pt x="23" y="-109" on="0"/>
        <pt x="10" y="-44" on="0"/>
      </contour>
    </TTGlyph>
    <TTGlyph name="Uacute" xMin="10" yMin="-187" xMax="629" yMax="918">
      <component glyphName="U" x="0" y="0" flags="0x204"/>
      <component glyphName="acute" x="102" y="215" flags="0x4"/>
    </TTGlyph>
    <TTGlyph name="Ucircumflex" xMin="10" yMin="-187" xMax="629" yMax="918">
      <component glyphName="U" x="0" y="0" flags="0x204"/>
      <component glyphName="circumflex" x="72" y="215" flags="0x4"/>
    </TTGlyph>
    <TTGlyph name="Udieresis" xMin="10" yMin="-187" xMax="629" yMax="888">
      <component glyphName="U" x="0" y="0" flags="0x204"/>
      <component glyphName="dieresis" x="72" y="215" flags="0x4"/>
    </TTGlyph>
    <TTGlyph name="Ugrave" xMin="10" yMin="-187" xMax="629" yMax="916">
      <component glyphName="U" x="0" y="0" flags="0x204"/>
      <component glyphName="grave" x="51" y="215" flags="0x4"/>
    </TTGlyph>
    <TTGlyph name="V" xMin="46" yMin="-194" xMax="583" yMax="749">
      <contour>
        <pt x="172" y="-194" on="1"/>
        <pt x="147" y="-193" on="0"/>
        <pt x="109" y="-143" on="0"/>
        <pt x="81" y="-63" on="0"/>
        <pt x="62" y="39" on="0"/>
        <pt x="50" y="144" on="0"/>
        <pt x="46" y="243" on="0"/>
        <pt x="46" y="281" on="1"/>
        <pt x="47" y="341" on="0"/>
        <pt x="64" y="468" on="0"/>
        <pt x="85" y="580" on="0"/>
        <pt x="106" y="667" on="0"/>
        <pt x="111" y="685" on="1"/>
        <pt x="118" y="714" on="0"/>
        <pt x="142" y="735" on="0"/>
        <pt x="175" y="737" on="1"/>
        <pt x="199" y="737" on="1"/>
        <pt x="209" y="736" on="0"/>
        <pt x="229" y="734" on="0"/>
        <pt x="237" y="730" on="1"/>
        <pt x="201" y="658" on="0"/>
        <pt x="157" y="510" on="0"/>
        <pt x="133" y="362" on="0"/>
        <pt x="127" y="219" on="0"/>
        <pt x="129" y="152" on="1"/>
        <pt x="131" y="99" on="0"/>
        <pt x="139" y="8" on="0"/>
        <pt x="148" y="-39" on="1"/>
        <pt x="157" y="-85" on="0"/>
        <pt x="181" y="-99" on="0"/>
        <pt x="207" y="-66" on="0"/>
        <pt x="232" y="-3" on="0"/>
        <pt x="241" y="29" on="1"/>
        <pt x="247" y="50" on="0"/>
        <pt x="271" y="129" on="0"/>
        <pt x="301" y="225" on="0"/>
        <pt x="334" y="329" on="0"/>
        <pt x="362" y="418" on="0"/>
        <pt x="383" y="484" on="0"/>
        <pt x="387" y="495" on="1"/>
        <pt x="393" y="511" on="0"/>
        <pt x="414" y="568" on="0"/>
        <pt x="439" y="631" on="0"/>
        <pt x="466" y="694" on="0"/>
        <pt x="478" y="718" on="1"/>
        <pt x="490" y="741" on="0"/>
        <pt x="520" y="749" on="0"/>
        <pt x="549" y="732" on="0"/>
        <pt x="574" y="698" on="0"/>
        <pt x="583" y="680" on="1"/>
        <pt x="570" y="675" on="0"/>
        <pt x="543" y="636" on="0"/>
        <pt x="532" y="614" on="1"/>
        <pt x="519" y="588" on="0"/>
        <pt x="507" y="558" on="1"/>
        <pt x="499" y="536" on="0"/>
        <pt x="473" y="464" on="0"/>
        <pt x="444" y="378" on="0"/>
        <pt x="413" y="286" on="0"/>
        <pt x="385" y="204" on="0"/>
        <pt x="362" y="139" on="0"/>
        <pt x="355" y="123" on="1"/>
        <pt x="345" y="99" on="0"/>
        <pt x="319" y="36" on="0"/>
        <pt x="290" y="-30" on="0"/>
        <pt x="260" y="-95" on="0"/>
        <pt x="245" y="-121" on="1"/>
        <pt x="224" y="-159" on="0"/>
        <pt x="195" y="-194" on="0"/>
      </contour>
    </TTGlyph>
    <TTGlyph name="W" xMin="22" yMin="-194" xMax="822" yMax="759">
      <contour>
        <pt x="144" y="-191" on="1"/>
        <pt x="115" y="-191" on="0"/>
        <pt x="66" y="-140" on="0"/>
        <pt x="35" y="-45" on="0"/>
        <pt x="22" y="94" on="0"/>
        <pt x="29" y="183" on="1"/>
        <pt x="33" y="242" on="0"/>
        <pt x="57" y="365" on="0"/>
        <pt x="87" y="480" on="0"/>
        <pt x="121" y="582" on="0"/>
        <pt x="150" y="661" on="0"/>
        <pt x="169" y="709" on="0"/>
        <pt x="171" y="713" on="1"/>
        <pt x="174" y="718" on="0"/>
        <pt x="191" y="729" on="0"/>
        <pt x="214" y="737" on="0"/>
        <pt x="241" y="742" on="0"/>
        <pt x="253" y="742" on="1"/>
        <pt x="263" y="742" on="0"/>
        <pt x="272" y="741" on="1"/>
        <pt x="280" y="740" on="0"/>
        <pt x="296" y="736" on="0"/>
        <pt x="302" y="732" on="1"/>
        <pt x="291" y="725" on="0"/>
        <pt x="270" y="696" on="0"/>
        <pt x="261" y="680" on="1"/>
        <pt x="250" y="662" on="0"/>
        <pt x="241" y="641" on="1"/>
        <pt x="221" y="599" on="0"/>
        <pt x="177" y="479" on="0"/>
        <pt x="138" y="344" on="0"/>
        <pt x="109" y="205" on="0"/>
        <pt x="104" y="144" on="1"/>
        <pt x="96" y="21" on="0"/>
        <pt x="130" y="-100" on="0"/>
        <pt x="161" y="-100" on="1"/>
        <pt x="176" y="-100" on="0"/>
        <pt x="210" y="-62" on="0"/>
        <pt x="245" y="-2" on="0"/>
        <pt x="279" y="72" on="0"/>
        <pt x="294" y="108" on="1"/>
        <pt x="303" y="131" on="0"/>
        <pt x="324" y="188" on="0"/>
        <pt x="345" y="248" on="0"/>
        <pt x="365" y="307" on="0"/>
        <pt x="373" y="331" on="1"/>
        <pt x="373" y="361" on="0"/>
        <pt x="375" y="428" on="0"/>
        <pt x="382" y="497" on="0"/>
        <pt x="394" y="564" on="0"/>
        <pt x="404" y="592" on="1"/>
        <pt x="424" y="646" on="0"/>
        <pt x="478" y="697" on="0"/>
        <pt x="498" y="698" on="1"/>
        <pt x="512" y="698" on="0"/>
        <pt x="524" y="674" on="0"/>
        <pt x="523" y="654" on="1"/>
        <pt x="521" y="628" on="0"/>
        <pt x="507" y="555" on="0"/>
        <pt x="488" y="472" on="0"/>
        <pt x="464" y="387" on="0"/>
        <pt x="453" y="348" on="1"/>
        <pt x="435" y="245" on="0"/>
        <pt x="427" y="78" on="0"/>
        <pt x="438" y="-41" on="0"/>
        <pt x="465" y="-106" on="0"/>
        <pt x="484" y="-106" on="1"/>
        <pt x="506" y="-106" on="0"/>
        <pt x="555" y="-46" on="0"/>
        <pt x="603" y="53" on="0"/>
        <pt x="648" y="179" on="0"/>
        <pt x="685" y="312" on="0"/>
        <pt x="709" y="441" on="0"/>
        <pt x="713" y="493" on="1"/>
        <pt x="716" y="536" on="0"/>
        <pt x="716" y="578" on="1"/>
        <pt x="716" y="614" on="0"/>
        <pt x="710" y="696" on="0"/>
        <pt x="702" y="729" on="1"/>
        <pt x="715" y="740" on="0"/>
        <pt x="737" y="747" on="1"/>
        <pt x="748" y="751" on="0"/>
        <pt x="761" y="754" on="1"/>
        <pt x="769" y="756" on="0"/>
        <pt x="778" y="757" on="1"/>
        <pt x="786" y="758" on="0"/>
        <pt x="802" y="759" on="0"/>
        <pt x="809" y="757" on="1"/>
        <pt x="815" y="743" on="0"/>
        <pt x="820" y="699" on="0"/>
        <pt x="821" y="678" on="1"/>
        <pt x="822" y="653" on="0"/>
        <pt x="820" y="626" on="1"/>
        <pt x="812" y="520" on="0"/>
        <pt x="773" y="316" on="0"/>
        <pt x="717" y="133" on="0"/>
        <pt x="648" y="-20" on="0"/>
        <pt x="575" y="-132" on="0"/>
        <pt x="502" y="-194" on="0"/>
        <pt x="469" y="-194" on="1"/>
        <pt x="434" y="-194" on="0"/>
        <pt x="392" y="-135" on="0"/>
        <pt x="370" y="-46" on="0"/>
        <pt x="364" y="56" on="0"/>
        <pt x="365" y="99" on="1"/>
        <pt x="342" y="43" on="0"/>
        <pt x="289" y="-61" on="0"/>
        <pt x="232" y="-142" on="0"/>
        <pt x="173" y="-191" on="0"/>
      </contour>
    </TTGlyph>
    <TTGlyph name="X" xMin="-51" yMin="-188" xMax="700" yMax="760">
      <contour>
        <pt x="700" y="681" on="1"/>
        <pt x="692" y="686" on="0"/>
        <pt x="671" y="682" on="0"/>
        <pt x="662" y="678" on="1"/>
        <pt x="651" y="674" on="0"/>
        <pt x="641" y="666" on="1"/>
        <pt x="614" y="644" on="0"/>
        <pt x="509" y="524" on="0"/>
        <pt x="447" y="431" on="1"/>
        <pt x="421" y="390" on="0"/>
        <pt x="364" y="307" on="0"/>
        <pt x="335" y="263" on="1"/>
        <pt x="339" y="217" on="0"/>
        <pt x="345" y="142" on="0"/>
        <pt x="355" y="73" on="0"/>
        <pt x="370" y="3" on="0"/>
        <pt x="383" y="-38" on="1"/>
        <pt x="396" y="-80" on="0"/>
        <pt x="426" y="-122" on="0"/>
        <pt x="454" y="-122" on="1"/>
        <pt x="481" y="-122" on="0"/>
        <pt x="530" y="-94" on="0"/>
        <pt x="568" y="-61" on="0"/>
        <pt x="592" y="-33" on="0"/>
        <pt x="594" y="-33" on="1"/>
        <pt x="598" y="-33" on="0"/>
        <pt x="603" y="-50" on="0"/>
        <pt x="602" y="-58" on="1"/>
        <pt x="602" y="-65" on="0"/>
        <pt x="575" y="-107" on="0"/>
        <pt x="527" y="-152" on="0"/>
        <pt x="461" y="-188" on="0"/>
        <pt x="422" y="-188" on="1"/>
        <pt x="381" y="-188" on="0"/>
        <pt x="328" y="-129" on="0"/>
        <pt x="295" y="-32" on="0"/>
        <pt x="276" y="95" on="0"/>
        <pt x="269" y="164" on="1"/>
        <pt x="250" y="134" on="0"/>
        <pt x="212" y="74" on="0"/>
        <pt x="193" y="43" on="1"/>
        <pt x="150" y="-26" on="0"/>
        <pt x="97" y="-121" on="0"/>
        <pt x="76" y="-144" on="1"/>
        <pt x="60" y="-161" on="0"/>
        <pt x="34" y="-172" on="0"/>
        <pt x="17" y="-169" on="1"/>
        <pt x="2" y="-166" on="0"/>
        <pt x="-10" y="-160" on="1"/>
        <pt x="-21" y="-155" on="0"/>
        <pt x="-43" y="-138" on="0"/>
        <pt x="-51" y="-124" on="1"/>
        <pt x="-38" y="-121" on="0"/>
        <pt x="-13" y="-103" on="0"/>
        <pt x="-3" y="-94" on="1"/>
        <pt x="8" y="-83" on="0"/>
        <pt x="19" y="-70" on="1"/>
        <pt x="27" y="-60" on="0"/>
        <pt x="75" y="10" on="0"/>
        <pt x="141" y="110" on="0"/>
        <pt x="219" y="229" on="0"/>
        <pt x="258" y="288" on="1"/>
        <pt x="253" y="340" on="0"/>
        <pt x="241" y="446" on="0"/>
        <pt x="233" y="495" on="1"/>
        <pt x="218" y="474" on="0"/>
        <pt x="173" y="435" on="0"/>
        <pt x="152" y="435" on="1"/>
        <pt x="129" y="435" on="0"/>
        <pt x="85" y="461" on="0"/>
        <pt x="51" y="506" on="0"/>
        <pt x="32" y="567" on="0"/>
        <pt x="35" y="602" on="1"/>
        <pt x="37" y="623" on="0"/>
        <pt x="57" y="678" on="0"/>
        <pt x="91" y="726" on="0"/>
        <pt x="140" y="760" on="0"/>
        <pt x="171" y="760" on="1"/>
        <pt x="201" y="760" on="0"/>
        <pt x="245" y="734" on="0"/>
        <pt x="278" y="665" on="0"/>
        <pt x="303" y="543" on="0"/>
        <pt x="315" y="447" on="1"/>
        <pt x="317" y="431" on="0"/>
        <pt x="321" y="401" on="0"/>
        <pt x="323" y="386" on="1"/>
        <pt x="357" y="439" on="0"/>
        <pt x="412" y="521" on="0"/>
        <pt x="426" y="543" on="1"/>
        <pt x="452" y="582" on="0"/>
        <pt x="505" y="657" on="0"/>
        <pt x="557" y="715" on="0"/>
        <pt x="608" y="750" on="0"/>
        <pt x="632" y="750" on="1"/>
        <pt x="643" y="750" on="0"/>
        <pt x="664" y="735" on="0"/>
        <pt x="682" y="714" on="0"/>
        <pt x="695" y="690" on="0"/>
      </contour>
      <contour>
        <pt x="183" y="525" on="1"/>
        <pt x="194" y="525" on="0"/>
        <pt x="218" y="533" on="0"/>
        <pt x="226" y="537" on="1"/>
        <pt x="220" y="573" on="0"/>
        <pt x="205" y="633" on="0"/>
        <pt x="187" y="676" on="0"/>
        <pt x="167" y="701" on="0"/>
        <pt x="155" y="701" on="1"/>
        <pt x="135" y="701" on="0"/>
        <pt x="108" y="658" on="0"/>
        <pt x="104" y="620" on="1"/>
        <pt x="102" y="601" on="0"/>
        <pt x="112" y="566" on="0"/>
        <pt x="133" y="540" on="0"/>
        <pt x="164" y="525" on="0"/>
      </contour>
    </TTGlyph>
    <TTGlyph name="Y" xMin="5" yMin="-187" xMax="586" yMax="751">
      <contour>
        <pt x="157" y="77" on="1"/>
        <pt x="90" y="77" on="0"/>
        <pt x="29" y="163" on="0"/>
        <pt x="34" y="236" on="1"/>
        <pt x="38" y="281" on="0"/>
        <pt x="51" y="351" on="1"/>
        <pt x="62" y="411" on="0"/>
        <pt x="107" y="593" on="0"/>
        <pt x="146" y="722" on="1"/>
        <pt x="158" y="730" on="0"/>
        <pt x="183" y="739" on="0"/>
        <pt x="193" y="741" on="1"/>
        <pt x="204" y="744" on="0"/>
        <pt x="216" y="745" on="1"/>
        <pt x="225" y="746" on="0"/>
        <pt x="235" y="746" on="1"/>
        <pt x="243" y="746" on="0"/>
        <pt x="259" y="743" on="0"/>
        <pt x="264" y="739" on="1"/>
        <pt x="213" y="608" on="0"/>
        <pt x="156" y="422" on="0"/>
        <pt x="142" y="362" on="1"/>
        <pt x="125" y="292" on="0"/>
        <pt x="121" y="247" on="1"/>
        <pt x="118" y="192" on="0"/>
        <pt x="157" y="146" on="0"/>
        <pt x="196" y="146" on="1"/>
        <pt x="227" y="146" on="0"/>
        <pt x="291" y="193" on="0"/>
        <pt x="351" y="280" on="0"/>
        <pt x="402" y="403" on="0"/>
        <pt x="420" y="480" on="1"/>
        <pt x="428" y="523" on="0"/>
        <pt x="438" y="566" on="1"/>
        <pt x="446" y="603" on="0"/>
        <pt x="466" y="688" on="0"/>
        <pt x="475" y="725" on="1"/>
        <pt x="484" y="733" on="0"/>
        <pt x="505" y="742" on="0"/>
        <pt x="514" y="745" on="1"/>
        <pt x="525" y="749" on="0"/>
        <pt x="536" y="750" on="1"/>
        <pt x="546" y="751" on="0"/>
        <pt x="556" y="750" on="1"/>
        <pt x="564" y="749" on="0"/>
        <pt x="581" y="745" on="0"/>
        <pt x="586" y="740" on="1"/>
        <pt x="569" y="687" on="0"/>
        <pt x="544" y="601" on="0"/>
        <pt x="535" y="570" on="1"/>
        <pt x="524" y="534" on="0"/>
        <pt x="516" y="506" on="1"/>
        <pt x="508" y="476" on="0"/>
        <pt x="497" y="428" on="1"/>
        <pt x="486" y="386" on="0"/>
        <pt x="454" y="258" on="0"/>
        <pt x="431" y="164" on="1"/>
        <pt x="425" y="140" on="0"/>
        <pt x="407" y="68" on="0"/>
        <pt x="378" y="-10" on="0"/>
        <pt x="335" y="-87" on="0"/>
        <pt x="272" y="-149" on="0"/>
        <pt x="186" y="-187" on="0"/>
        <pt x="129" y="-187" on="1"/>
        <pt x="96" y="-186" on="0"/>
        <pt x="70" y="-177" on="1"/>
        <pt x="47" y="-169" on="0"/>
        <pt x="8" y="-138" on="0"/>
        <pt x="5" y="-109" on="1"/>
        <pt x="10" y="-98" on="0"/>
        <pt x="22" y="-80" on="0"/>
        <pt x="28" y="-72" on="1"/>
        <pt x="35" y="-63" on="0"/>
        <pt x="42" y="-55" on="1"/>
        <pt x="49" y="-48" on="0"/>
        <pt x="57" y="-42" on="1"/>
        <pt x="64" y="-37" on="0"/>
        <pt x="80" y="-29" on="0"/>
        <pt x="88" y="-29" on="1"/>
        <pt x="92" y="-38" on="0"/>
        <pt x="108" y="-62" on="0"/>
        <pt x="132" y="-83" on="0"/>
        <pt x="162" y="-97" on="0"/>
        <pt x="180" y="-97" on="1"/>
        <pt x="204" y="-97" on="0"/>
        <pt x="258" y="-66" on="0"/>
        <pt x="311" y="9" on="0"/>
        <pt x="361" y="137" on="0"/>
        <pt x="383" y="234" on="1"/>
        <pt x="370" y="211" on="0"/>
        <pt x="330" y="157" on="0"/>
        <pt x="275" y="109" on="0"/>
        <pt x="202" y="77" on="0"/>
      </contour>
    </TTGlyph>
    <TTGlyph name="Yacute" xMin="5" yMin="-187" xMax="586" yMax="918">
      <component glyphName="Y" x="0" y="0" flags="0x204"/>
      <component glyphName="acute" x="61" y="215" flags="0x4"/>
    </TTGlyph>
    <TTGlyph name="Ydieresis" xMin="5" yMin="-187" xMax="586" yMax="888">
      <component glyphName="Y" x="0" y="0" flags="0x204"/>
      <component glyphName="dieresis" x="51" y="215" flags="0x4"/>
    </TTGlyph>
    <TTGlyph name="Z" xMin="-82" yMin="-182" xMax="507" yMax="745">
      <contour>
        <pt x="72" y="167" on="1"/>
        <pt x="93" y="193" on="0"/>
        <pt x="149" y="262" on="0"/>
        <pt x="212" y="339" on="0"/>
        <pt x="277" y="422" on="0"/>
        <pt x="335" y="500" on="0"/>
        <pt x="381" y="570" on="0"/>
        <pt x="395" y="597" on="1"/>
        <pt x="401" y="610" on="0"/>
        <pt x="405" y="622" on="1"/>
        <pt x="409" y="633" on="0"/>
        <pt x="414" y="656" on="0"/>
        <pt x="412" y="667" on="1"/>
        <pt x="383" y="667" on="0"/>
        <pt x="303" y="664" on="0"/>
        <pt x="214" y="654" on="0"/>
        <pt x="125" y="634" on="0"/>
        <pt x="88" y="616" on="1"/>
        <pt x="83" y="620" on="0"/>
        <pt x="80" y="638" on="0"/>
        <pt x="82" y="649" on="1"/>
        <pt x="83" y="660" on="0"/>
        <pt x="87" y="675" on="1"/>
        <pt x="91" y="688" on="0"/>
        <pt x="96" y="699" on="1"/>
        <pt x="101" y="708" on="0"/>
        <pt x="112" y="726" on="0"/>
        <pt x="120" y="730" on="1"/>
        <pt x="158" y="735" on="0"/>
        <pt x="224" y="741" on="0"/>
        <pt x="250" y="743" on="1"/>
        <pt x="280" y="745" on="0"/>
        <pt x="305" y="745" on="1"/>
        <pt x="340" y="744" on="0"/>
        <pt x="373" y="743" on="1"/>
        <pt x="402" y="741" on="0"/>
        <pt x="467" y="738" on="0"/>
        <pt x="495" y="733" on="1"/>
        <pt x="500" y="719" on="0"/>
        <pt x="505" y="689" on="0"/>
        <pt x="506" y="677" on="1"/>
        <pt x="507" y="663" on="0"/>
        <pt x="507" y="649" on="1"/>
        <pt x="505" y="614" on="0"/>
        <pt x="447" y="502" on="0"/>
        <pt x="402" y="442" on="1"/>
        <pt x="387" y="423" on="0"/>
        <pt x="341" y="366" on="0"/>
        <pt x="284" y="297" on="0"/>
        <pt x="221" y="220" on="0"/>
        <pt x="158" y="143" on="0"/>
        <pt x="99" y="68" on="0"/>
        <pt x="76" y="36" on="1"/>
        <pt x="50" y="1" on="0"/>
        <pt x="15" y="-66" on="0"/>
        <pt x="5" y="-91" on="1"/>
        <pt x="31" y="-81" on="0"/>
        <pt x="139" y="-56" on="0"/>
        <pt x="213" y="-56" on="1"/>
        <pt x="252" y="-56" on="0"/>
        <pt x="286" y="-59" on="1"/>
        <pt x="315" y="-61" on="0"/>
        <pt x="372" y="-72" on="0"/>
        <pt x="386" y="-81" on="1"/>
        <pt x="384" y="-91" on="0"/>
        <pt x="376" y="-105" on="1"/>
        <pt x="369" y="-117" on="0"/>
        <pt x="339" y="-152" on="0"/>
        <pt x="313" y="-175" on="1"/>
        <pt x="274" y="-167" on="0"/>
        <pt x="206" y="-158" on="0"/>
        <pt x="180" y="-156" on="1"/>
        <pt x="150" y="-153" on="0"/>
        <pt x="125" y="-153" on="1"/>
        <pt x="100" y="-153" on="0"/>
        <pt x="71" y="-157" on="1"/>
        <pt x="46" y="-160" on="0"/>
        <pt x="-17" y="-171" on="0"/>
        <pt x="-52" y="-182" on="1"/>
        <pt x="-62" y="-176" on="0"/>
        <pt x="-73" y="-146" on="0"/>
        <pt x="-76" y="-131" on="1"/>
        <pt x="-80" y="-113" on="0"/>
        <pt x="-82" y="-92" on="1"/>
        <pt x="-56" y="-33" on="0"/>
        <pt x="-1" y="62" on="0"/>
        <pt x="22" y="96" on="1"/>
        <pt x="48" y="136" on="0"/>
      </contour>
    </TTGlyph>
    <TTGlyph name="Zcaron" xMin="-82" yMin="-182" xMax="547" yMax="924">
      <component glyphName="Z" x="0" y="0" flags="0x204"/>
      <component glyphName="caron" x="51" y="225" flags="0x4"/>
    </TTGlyph>
    <TTGlyph name="a" xMin="-18" yMin="-15" xMax="530" yMax="423">
      <contour>
        <pt x="513" y="199" on="1"/>
        <pt x="499" y="179" on="0"/>
        <pt x="455" y="120" on="0"/>
        <pt x="408" y="61" on="0"/>
        <pt x="363" y="12" on="0"/>
        <pt x="348" y="2" on="1"/>
        <pt x="338" y="-4" on="0"/>
        <pt x="312" y="-12" on="0"/>
        <pt x="285" y="-14" on="0"/>
        <pt x="261" y="-9" on="0"/>
        <pt x="252" y="-3" on="1"/>
        <pt x="243" y="4" on="0"/>
        <pt x="237" y="17" on="1"/>
        <pt x="232" y="28" on="0"/>
        <pt x="223" y="64" on="0"/>
        <pt x="224" y="91" on="1"/>
        <pt x="200" y="51" on="0"/>
        <pt x="142" y="8" on="0"/>
        <pt x="116" y="-2" on="1"/>
        <pt x="86" y="-13" on="0"/>
        <pt x="56" y="-15" on="1"/>
        <pt x="42" y="-15" on="0"/>
        <pt x="10" y="4" on="0"/>
        <pt x="-12" y="45" on="0"/>
        <pt x="-18" y="110" on="0"/>
        <pt x="-7" y="155" on="1"/>
        <pt x="7" y="216" on="0"/>
        <pt x="68" y="316" on="0"/>
        <pt x="140" y="387" on="0"/>
        <pt x="210" y="423" on="0"/>
        <pt x="233" y="421" on="1"/>
        <pt x="260" y="416" on="0"/>
        <pt x="277" y="405" on="1"/>
        <pt x="291" y="395" on="0"/>
        <pt x="300" y="356" on="0"/>
        <pt x="279" y="324" on="1"/>
        <pt x="293" y="327" on="0"/>
        <pt x="312" y="329" on="0"/>
        <pt x="317" y="329" on="1"/>
        <pt x="323" y="329" on="0"/>
        <pt x="325" y="328" on="1"/>
        <pt x="326" y="326" on="0"/>
        <pt x="326" y="313" on="0"/>
        <pt x="320" y="279" on="0"/>
        <pt x="308" y="221" on="0"/>
        <pt x="298" y="175" on="1"/>
        <pt x="296" y="166" on="0"/>
        <pt x="293" y="151" on="0"/>
        <pt x="290" y="136" on="0"/>
        <pt x="286" y="116" on="0"/>
        <pt x="283" y="101" on="1"/>
        <pt x="282" y="92" on="0"/>
        <pt x="283" y="71" on="0"/>
        <pt x="289" y="53" on="0"/>
        <pt x="302" y="42" on="0"/>
        <pt x="314" y="42" on="1"/>
        <pt x="324" y="42" on="0"/>
        <pt x="356" y="67" on="0"/>
        <pt x="392" y="106" on="0"/>
        <pt x="431" y="153" on="0"/>
        <pt x="465" y="197" on="0"/>
        <pt x="492" y="231" on="0"/>
        <pt x="498" y="239" on="1"/>
        <pt x="506" y="248" on="0"/>
        <pt x="522" y="251" on="0"/>
        <pt x="530" y="239" on="0"/>
        <pt x="525" y="215" on="0"/>
      </contour>
      <contour>
        <pt x="220" y="155" on="1"/>
        <pt x="225" y="175" on="0"/>
        <pt x="239" y="229" on="0"/>
        <pt x="249" y="279" on="0"/>
        <pt x="254" y="312" on="0"/>
        <pt x="250" y="311" on="1"/>
        <pt x="245" y="310" on="0"/>
        <pt x="239" y="308" on="1"/>
        <pt x="234" y="306" on="0"/>
        <pt x="218" y="304" on="0"/>
        <pt x="210" y="302" on="1"/>
        <pt x="218" y="318" on="0"/>
        <pt x="221" y="339" on="0"/>
        <pt x="220" y="345" on="1"/>
        <pt x="219" y="352" on="0"/>
        <pt x="216" y="356" on="1"/>
        <pt x="205" y="365" on="0"/>
        <pt x="150" y="318" on="0"/>
        <pt x="114" y="255" on="1"/>
        <pt x="99" y="229" on="0"/>
        <pt x="81" y="170" on="0"/>
        <pt x="74" y="118" on="0"/>
        <pt x="78" y="79" on="0"/>
        <pt x="84" y="73" on="1"/>
        <pt x="95" y="62" on="0"/>
        <pt x="123" y="63" on="0"/>
        <pt x="152" y="78" on="0"/>
        <pt x="181" y="102" on="0"/>
        <pt x="204" y="128" on="0"/>
        <pt x="219" y="150" on="0"/>
      </contour>
    </TTGlyph>
    <TTGlyph name="aacute" xMin="-18" yMin="-15" xMax="530" yMax="622">
      <component glyphName="a" x="0" y="0" flags="0x204"/>
      <component glyphName="acute" x="-112" y="-81" flags="0x4"/>
    </TTGlyph>
    <TTGlyph name="acircumflex" xMin="-18" yMin="-15" xMax="530" yMax="602">
      <component glyphName="a" x="0" y="0" flags="0x204"/>
      <component glyphName="circumflex" x="-122" y="-101" flags="0x4"/>
    </TTGlyph>
    <TTGlyph name="acute" xMin="262" yMin="562" xMax="444" yMax="703">
      <contour>
        <pt x="401" y="696" on="1"/>
        <pt x="410" y="703" on="0"/>
        <pt x="432" y="687" on="0"/>
        <pt x="437" y="671" on="1"/>
        <pt x="444" y="650" on="0"/>
        <pt x="432" y="629" on="0"/>
        <pt x="420" y="621" on="1"/>
        <pt x="414" y="616" on="0"/>
        <pt x="381" y="598" on="0"/>
        <pt x="342" y="579" on="0"/>
        <pt x="304" y="564" on="0"/>
        <pt x="294" y="563" on="1"/>
        <pt x="283" y="562" on="0"/>
        <pt x="271" y="569" on="0"/>
        <pt x="264" y="579" on="0"/>
        <pt x="262" y="592" on="0"/>
        <pt x="262" y="597" on="1"/>
        <pt x="340" y="651" on="0"/>
        <pt x="371" y="674" on="1"/>
        <pt x="389" y="687" on="0"/>
      </contour>
    </TTGlyph>
    <TTGlyph name="adieresis" xMin="-18" yMin="-15" xMax="530" yMax="561">
      <component glyphName="a" x="0" y="0" flags="0x204"/>
      <component glyphName="dieresis" x="-91" y="-112" flags="0x4"/>
    </TTGlyph>
    <TTGlyph name="ae" xMin="-18" yMin="-24" xMax="688" yMax="423">
      <contour>
        <pt x="227" y="86" on="1"/>
        <pt x="219" y="74" on="0"/>
        <pt x="191" y="39" on="0"/>
        <pt x="149" y="7" on="0"/>
        <pt x="92" y="-15" on="0"/>
        <pt x="56" y="-15" on="1"/>
        <pt x="42" y="-15" on="0"/>
        <pt x="10" y="4" on="0"/>
        <pt x="-12" y="45" on="0"/>
        <pt x="-18" y="110" on="0"/>
        <pt x="-7" y="155" on="1"/>
        <pt x="7" y="216" on="0"/>
        <pt x="68" y="316" on="0"/>
        <pt x="140" y="387" on="0"/>
        <pt x="210" y="423" on="0"/>
        <pt x="233" y="421" on="1"/>
        <pt x="267" y="418" on="0"/>
        <pt x="293" y="392" on="0"/>
        <pt x="296" y="362" on="0"/>
        <pt x="284" y="333" on="0"/>
        <pt x="281" y="327" on="1"/>
        <pt x="286" y="328" on="0"/>
        <pt x="296" y="330" on="0"/>
        <pt x="301" y="331" on="1"/>
        <pt x="333" y="369" on="0"/>
        <pt x="411" y="419" on="0"/>
        <pt x="453" y="419" on="1"/>
        <pt x="491" y="419" on="0"/>
        <pt x="524" y="381" on="0"/>
        <pt x="521" y="353" on="1"/>
        <pt x="518" y="322" on="0"/>
        <pt x="490" y="270" on="0"/>
        <pt x="450" y="228" on="0"/>
        <pt x="405" y="194" on="0"/>
        <pt x="385" y="180" on="1"/>
        <pt x="363" y="165" on="0"/>
        <pt x="323" y="138" on="0"/>
        <pt x="307" y="127" on="1"/>
        <pt x="308" y="102" on="0"/>
        <pt x="325" y="68" on="0"/>
        <pt x="349" y="47" on="0"/>
        <pt x="380" y="38" on="0"/>
        <pt x="396" y="38" on="1"/>
        <pt x="429" y="38" on="0"/>
        <pt x="502" y="80" on="0"/>
        <pt x="573" y="141" on="0"/>
        <pt x="634" y="207" on="0"/>
        <pt x="655" y="231" on="1"/>
        <pt x="662" y="240" on="0"/>
        <pt x="678" y="243" on="0"/>
        <pt x="687" y="236" on="0"/>
        <pt x="688" y="220" on="0"/>
        <pt x="681" y="209" on="1"/>
        <pt x="651" y="165" on="0"/>
        <pt x="574" y="82" on="0"/>
        <pt x="489" y="16" on="0"/>
        <pt x="400" y="-24" on="0"/>
        <pt x="358" y="-24" on="1"/>
        <pt x="341" y="-24" on="0"/>
        <pt x="301" y="-12" on="0"/>
        <pt x="265" y="15" on="0"/>
        <pt x="235" y="57" on="0"/>
      </contour>
      <contour>
        <pt x="423" y="362" on="1"/>
        <pt x="411" y="362" on="0"/>
        <pt x="378" y="338" on="0"/>
        <pt x="346" y="293" on="0"/>
        <pt x="319" y="228" on="0"/>
        <pt x="312" y="186" on="1"/>
        <pt x="324" y="195" on="0"/>
        <pt x="351" y="214" on="0"/>
        <pt x="367" y="225" on="1"/>
        <pt x="409" y="258" on="0"/>
        <pt x="442" y="308" on="0"/>
        <pt x="444" y="326" on="1"/>
        <pt x="448" y="362" on="0"/>
      </contour>
      <contour>
        <pt x="84" y="73" on="1"/>
        <pt x="99" y="59" on="0"/>
        <pt x="136" y="66" on="0"/>
        <pt x="174" y="92" on="0"/>
        <pt x="208" y="128" on="0"/>
        <pt x="219" y="143" on="1"/>
        <pt x="219" y="166" on="0"/>
        <pt x="228" y="219" on="0"/>
        <pt x="238" y="267" on="0"/>
        <pt x="247" y="304" on="0"/>
        <pt x="249" y="310" on="1"/>
        <pt x="244" y="308" on="0"/>
        <pt x="238" y="307" on="1"/>
        <pt x="233" y="305" on="0"/>
        <pt x="218" y="304" on="0"/>
        <pt x="210" y="302" on="1"/>
        <pt x="218" y="318" on="0"/>
        <pt x="221" y="339" on="0"/>
        <pt x="220" y="345" on="1"/>
        <pt x="219" y="352" on="0"/>
        <pt x="216" y="356" on="1"/>
        <pt x="205" y="365" on="0"/>
        <pt x="150" y="318" on="0"/>
        <pt x="114" y="255" on="1"/>
        <pt x="99" y="229" on="0"/>
        <pt x="81" y="170" on="0"/>
        <pt x="74" y="118" on="0"/>
        <pt x="78" y="79" on="0"/>
      </contour>
    </TTGlyph>
    <TTGlyph name="agrave" xMin="-18" yMin="-15" xMax="530" yMax="620">
      <component glyphName="a" x="0" y="0" flags="0x204"/>
      <component glyphName="grave" x="-132" y="-81" flags="0x4"/>
    </TTGlyph>
    <TTGlyph name="ampersand" xMin="-53" yMin="-51" xMax="442" yMax="761">
      <contour>
        <pt x="408" y="184" on="1"/>
        <pt x="417" y="192" on="0"/>
        <pt x="433" y="194" on="0"/>
        <pt x="442" y="185" on="0"/>
        <pt x="439" y="168" on="0"/>
        <pt x="428" y="156" on="1"/>
        <pt x="405" y="133" on="0"/>
        <pt x="351" y="80" on="0"/>
        <pt x="317" y="56" on="1"/>
        <pt x="325" y="41" on="0"/>
        <pt x="335" y="29" on="1"/>
        <pt x="343" y="18" on="0"/>
        <pt x="365" y="-3" on="0"/>
        <pt x="379" y="-8" on="1"/>
        <pt x="377" y="-12" on="0"/>
        <pt x="363" y="-20" on="0"/>
        <pt x="355" y="-25" on="1"/>
        <pt x="346" y="-30" on="0"/>
        <pt x="335" y="-36" on="1"/>
        <pt x="308" y="-49" on="0"/>
        <pt x="272" y="-51" on="0"/>
        <pt x="248" y="-39" on="0"/>
        <pt x="235" y="-15" on="0"/>
        <pt x="231" y="-2" on="1"/>
        <pt x="230" y="-1" on="0"/>
        <pt x="230" y="3" on="1"/>
        <pt x="230" y="5" on="0"/>
        <pt x="229" y="6" on="1"/>
        <pt x="197" y="-7" on="0"/>
        <pt x="127" y="-23" on="0"/>
        <pt x="89" y="-23" on="1"/>
        <pt x="41" y="-23" on="0"/>
        <pt x="-18" y="15" on="0"/>
        <pt x="-47" y="71" on="0"/>
        <pt x="-53" y="136" on="0"/>
        <pt x="-48" y="163" on="1"/>
        <pt x="-39" y="219" on="0"/>
        <pt x="58" y="347" on="0"/>
        <pt x="139" y="426" on="1"/>
        <pt x="144" y="431" on="0"/>
        <pt x="156" y="441" on="0"/>
        <pt x="161" y="446" on="1"/>
        <pt x="161" y="473" on="0"/>
        <pt x="164" y="522" on="0"/>
        <pt x="166" y="545" on="1"/>
        <pt x="167" y="554" on="0"/>
        <pt x="169" y="571" on="0"/>
        <pt x="171" y="580" on="1"/>
        <pt x="181" y="631" on="0"/>
        <pt x="225" y="700" on="0"/>
        <pt x="278" y="743" on="0"/>
        <pt x="329" y="761" on="0"/>
        <pt x="347" y="761" on="1"/>
        <pt x="359" y="761" on="0"/>
        <pt x="388" y="753" on="0"/>
        <pt x="411" y="733" on="0"/>
        <pt x="423" y="699" on="0"/>
        <pt x="419" y="673" on="1"/>
        <pt x="415" y="651" on="0"/>
        <pt x="398" y="609" on="0"/>
        <pt x="363" y="558" on="0"/>
        <pt x="304" y="492" on="0"/>
        <pt x="259" y="446" on="1"/>
        <pt x="255" y="442" on="0"/>
        <pt x="248" y="436" on="0"/>
        <pt x="245" y="432" on="1"/>
        <pt x="250" y="340" on="0"/>
        <pt x="283" y="170" on="0"/>
        <pt x="298" y="109" on="1"/>
        <pt x="300" y="101" on="0"/>
        <pt x="301" y="98" on="1"/>
        <pt x="322" y="111" on="0"/>
        <pt x="358" y="138" on="0"/>
        <pt x="385" y="162" on="0"/>
        <pt x="404" y="180" on="0"/>
      </contour>
      <contour>
        <pt x="131" y="45" on="1"/>
        <pt x="153" y="45" on="0"/>
        <pt x="193" y="52" on="0"/>
        <pt x="213" y="57" on="1"/>
        <pt x="204" y="87" on="0"/>
        <pt x="183" y="175" on="0"/>
        <pt x="175" y="230" on="1"/>
        <pt x="171" y="259" on="0"/>
        <pt x="166" y="317" on="0"/>
        <pt x="164" y="345" on="1"/>
        <pt x="49" y="216" on="0"/>
        <pt x="37" y="146" on="1"/>
        <pt x="35" y="132" on="0"/>
        <pt x="39" y="97" on="0"/>
        <pt x="59" y="66" on="0"/>
        <pt x="98" y="45" on="0"/>
      </contour>
      <contour>
        <pt x="252" y="627" on="1"/>
        <pt x="245" y="578" on="0"/>
        <pt x="243" y="524" on="1"/>
        <pt x="291" y="571" on="0"/>
        <pt x="359" y="645" on="0"/>
        <pt x="364" y="674" on="1"/>
        <pt x="366" y="688" on="0"/>
        <pt x="355" y="715" on="0"/>
        <pt x="340" y="715" on="1"/>
        <pt x="324" y="715" on="0"/>
        <pt x="294" y="699" on="0"/>
        <pt x="271" y="674" on="0"/>
        <pt x="255" y="643" on="0"/>
      </contour>
    </TTGlyph>
    <TTGlyph name="aring" xMin="-18" yMin="-15" xMax="530" yMax="586">
      <component glyphName="a" x="0" y="0" flags="0x204"/>
      <component glyphName="ring" x="-122" y="-101" flags="0x4"/>
    </TTGlyph>
    <TTGlyph name="asciicircum" xMin="-22" yMin="367" xMax="325" yMax="743">
      <contour>
        <pt x="284" y="729" on="1"/>
        <pt x="286" y="711" on="0"/>
        <pt x="288" y="676" on="0"/>
        <pt x="290" y="659" on="1"/>
        <pt x="295" y="606" on="0"/>
        <pt x="301" y="556" on="1"/>
        <pt x="306" y="513" on="0"/>
        <pt x="319" y="421" on="0"/>
        <pt x="325" y="388" on="1"/>
        <pt x="317" y="380" on="0"/>
        <pt x="299" y="372" on="0"/>
        <pt x="291" y="370" on="1"/>
        <pt x="282" y="367" on="0"/>
        <pt x="273" y="368" on="1"/>
        <pt x="254" y="368" on="0"/>
        <pt x="244" y="378" on="0"/>
        <pt x="242" y="393" on="1"/>
        <pt x="242" y="396" on="0"/>
        <pt x="238" y="448" on="0"/>
        <pt x="232" y="528" on="0"/>
        <pt x="226" y="625" on="0"/>
        <pt x="223" y="673" on="1"/>
        <pt x="193" y="621" on="0"/>
        <pt x="105" y="470" on="0"/>
        <pt x="56" y="389" on="1"/>
        <pt x="53" y="385" on="0"/>
        <pt x="46" y="381" on="1"/>
        <pt x="40" y="378" on="0"/>
        <pt x="20" y="373" on="0"/>
        <pt x="4" y="373" on="1"/>
        <pt x="-10" y="371" on="0"/>
        <pt x="-20" y="378" on="0"/>
        <pt x="-21" y="382" on="1"/>
        <pt x="-22" y="386" on="0"/>
        <pt x="-18" y="393" on="1"/>
        <pt x="-16" y="398" on="0"/>
        <pt x="-13" y="402" on="1"/>
        <pt x="-11" y="406" on="0"/>
        <pt x="-6" y="414" on="0"/>
        <pt x="-4" y="417" on="1"/>
        <pt x="161" y="696" on="1"/>
        <pt x="173" y="717" on="0"/>
        <pt x="183" y="727" on="1"/>
        <pt x="189" y="732" on="0"/>
        <pt x="221" y="740" on="0"/>
        <pt x="256" y="743" on="0"/>
        <pt x="283" y="738" on="0"/>
      </contour>
    </TTGlyph>
    <TTGlyph name="asciitilde" xMin="-32" yMin="307" xMax="357" yMax="426">
      <contour>
        <pt x="357" y="386" on="1"/>
        <pt x="357" y="371" on="0"/>
        <pt x="338" y="341" on="0"/>
        <pt x="304" y="320" on="0"/>
        <pt x="259" y="310" on="0"/>
        <pt x="232" y="314" on="1"/>
        <pt x="203" y="318" on="0"/>
        <pt x="160" y="333" on="0"/>
        <pt x="124" y="344" on="0"/>
        <pt x="89" y="347" on="0"/>
        <pt x="70" y="340" on="1"/>
        <pt x="58" y="336" on="0"/>
        <pt x="47" y="331" on="1"/>
        <pt x="37" y="326" on="0"/>
        <pt x="15" y="314" on="0"/>
        <pt x="7" y="307" on="1"/>
        <pt x="-7" y="310" on="0"/>
        <pt x="-13" y="318" on="1"/>
        <pt x="-17" y="322" on="0"/>
        <pt x="-20" y="327" on="1"/>
        <pt x="-24" y="334" on="0"/>
        <pt x="-27" y="342" on="1"/>
        <pt x="-29" y="348" on="0"/>
        <pt x="-32" y="363" on="0"/>
        <pt x="-28" y="369" on="1"/>
        <pt x="-13" y="388" on="0"/>
        <pt x="31" y="407" on="0"/>
        <pt x="51" y="411" on="1"/>
        <pt x="75" y="415" on="0"/>
        <pt x="101" y="415" on="1"/>
        <pt x="134" y="413" on="0"/>
        <pt x="175" y="401" on="0"/>
        <pt x="208" y="388" on="0"/>
        <pt x="244" y="380" on="0"/>
        <pt x="271" y="384" on="1"/>
        <pt x="280" y="386" on="0"/>
        <pt x="291" y="391" on="1"/>
        <pt x="300" y="396" on="0"/>
        <pt x="323" y="412" on="0"/>
        <pt x="335" y="426" on="1"/>
        <pt x="345" y="420" on="0"/>
        <pt x="357" y="398" on="0"/>
      </contour>
    </TTGlyph>
    <TTGlyph name="asterisk" xMin="50" yMin="401" xMax="391" yMax="740">
      <contour>
        <pt x="380" y="640" on="1"/>
        <pt x="384" y="639" on="0"/>
        <pt x="390" y="616" on="0"/>
        <pt x="391" y="588" on="0"/>
        <pt x="390" y="564" on="0"/>
        <pt x="389" y="562" on="1"/>
        <pt x="386" y="560" on="0"/>
        <pt x="371" y="559" on="1"/>
        <pt x="358" y="558" on="0"/>
        <pt x="306" y="558" on="0"/>
        <pt x="258" y="560" on="1"/>
        <pt x="253" y="559" on="0"/>
        <pt x="247" y="554" on="0"/>
        <pt x="253" y="547" on="1"/>
        <pt x="288" y="515" on="0"/>
        <pt x="325" y="478" on="0"/>
        <pt x="333" y="468" on="1"/>
        <pt x="343" y="457" on="0"/>
        <pt x="344" y="453" on="1"/>
        <pt x="343" y="448" on="0"/>
        <pt x="319" y="431" on="0"/>
        <pt x="291" y="413" on="0"/>
        <pt x="265" y="401" on="0"/>
        <pt x="261" y="401" on="1"/>
        <pt x="258" y="403" on="0"/>
        <pt x="252" y="417" on="1"/>
        <pt x="247" y="429" on="0"/>
        <pt x="230" y="479" on="0"/>
        <pt x="218" y="527" on="1"/>
        <pt x="213" y="538" on="0"/>
        <pt x="208" y="529" on="1"/>
        <pt x="185" y="487" on="0"/>
        <pt x="158" y="439" on="0"/>
        <pt x="150" y="428" on="1"/>
        <pt x="141" y="415" on="0"/>
        <pt x="137" y="412" on="1"/>
        <pt x="133" y="410" on="0"/>
        <pt x="109" y="430" on="0"/>
        <pt x="85" y="456" on="0"/>
        <pt x="66" y="481" on="0"/>
        <pt x="66" y="485" on="1"/>
        <pt x="68" y="488" on="0"/>
        <pt x="80" y="498" on="1"/>
        <pt x="91" y="506" on="0"/>
        <pt x="135" y="535" on="0"/>
        <pt x="177" y="558" on="1"/>
        <pt x="184" y="565" on="0"/>
        <pt x="175" y="568" on="1"/>
        <pt x="130" y="579" on="0"/>
        <pt x="80" y="593" on="0"/>
        <pt x="68" y="598" on="1"/>
        <pt x="54" y="603" on="0"/>
        <pt x="51" y="607" on="1"/>
        <pt x="50" y="611" on="0"/>
        <pt x="63" y="637" on="0"/>
        <pt x="81" y="665" on="0"/>
        <pt x="98" y="688" on="0"/>
        <pt x="101" y="688" on="1"/>
        <pt x="104" y="687" on="0"/>
        <pt x="115" y="678" on="1"/>
        <pt x="124" y="670" on="0"/>
        <pt x="160" y="637" on="0"/>
        <pt x="190" y="606" on="1"/>
        <pt x="197" y="600" on="0"/>
        <pt x="202" y="603" on="0"/>
        <pt x="203" y="610" on="1"/>
        <pt x="201" y="655" on="0"/>
        <pt x="202" y="705" on="0"/>
        <pt x="203" y="718" on="1"/>
        <pt x="204" y="733" on="0"/>
        <pt x="206" y="737" on="1"/>
        <pt x="208" y="740" on="0"/>
        <pt x="239" y="738" on="0"/>
        <pt x="275" y="734" on="0"/>
        <pt x="305" y="726" on="0"/>
        <pt x="305" y="723" on="1"/>
        <pt x="304" y="719" on="0"/>
        <pt x="298" y="705" on="1"/>
        <pt x="293" y="693" on="0"/>
        <pt x="269" y="647" on="0"/>
        <pt x="248" y="607" on="1"/>
        <pt x="245" y="601" on="0"/>
        <pt x="249" y="595" on="0"/>
        <pt x="257" y="598" on="1"/>
        <pt x="299" y="615" on="0"/>
        <pt x="347" y="632" on="0"/>
        <pt x="360" y="636" on="1"/>
        <pt x="375" y="640" on="0"/>
      </contour>
    </TTGlyph>
    <TTGlyph name="at" xMin="-30" yMin="-21" xMax="649" yMax="657">
      <contour>
        <pt x="646" y="341" on="1"/>
        <pt x="642" y="271" on="0"/>
        <pt x="590" y="153" on="0"/>
        <pt x="516" y="66" on="0"/>
        <pt x="432" y="17" on="0"/>
        <pt x="398" y="17" on="1"/>
        <pt x="364" y="17" on="0"/>
        <pt x="330" y="44" on="0"/>
        <pt x="319" y="83" on="0"/>
        <pt x="325" y="124" on="0"/>
        <pt x="330" y="138" on="1"/>
        <pt x="332" y="142" on="0"/>
        <pt x="336" y="154" on="0"/>
        <pt x="339" y="162" on="1"/>
        <pt x="317" y="144" on="0"/>
        <pt x="258" y="113" on="0"/>
        <pt x="223" y="113" on="1"/>
        <pt x="170" y="113" on="0"/>
        <pt x="116" y="179" on="0"/>
        <pt x="120" y="236" on="1"/>
        <pt x="122" y="267" on="0"/>
        <pt x="147" y="336" on="0"/>
        <pt x="188" y="401" on="0"/>
        <pt x="241" y="460" on="0"/>
        <pt x="298" y="504" on="0"/>
        <pt x="357" y="530" on="0"/>
        <pt x="383" y="530" on="1"/>
        <pt x="403" y="530" on="0"/>
        <pt x="427" y="516" on="0"/>
        <pt x="441" y="493" on="0"/>
        <pt x="445" y="467" on="0"/>
        <pt x="445" y="455" on="1"/>
        <pt x="447" y="461" on="0"/>
        <pt x="447" y="461" on="1"/>
        <pt x="458" y="494" on="0"/>
        <pt x="477" y="515" on="0"/>
        <pt x="493" y="493" on="1"/>
        <pt x="499" y="485" on="0"/>
        <pt x="503" y="476" on="1"/>
        <pt x="507" y="468" on="0"/>
        <pt x="511" y="452" on="0"/>
        <pt x="509" y="447" on="1"/>
        <pt x="482" y="385" on="0"/>
        <pt x="443" y="289" on="0"/>
        <pt x="429" y="255" on="1"/>
        <pt x="413" y="215" on="0"/>
        <pt x="402" y="186" on="1"/>
        <pt x="387" y="150" on="0"/>
        <pt x="382" y="105" on="0"/>
        <pt x="391" y="82" on="0"/>
        <pt x="411" y="77" on="0"/>
        <pt x="422" y="80" on="1"/>
        <pt x="444" y="87" on="0"/>
        <pt x="497" y="135" on="0"/>
        <pt x="543" y="206" on="0"/>
        <pt x="577" y="295" on="0"/>
        <pt x="580" y="343" on="1"/>
        <pt x="584" y="393" on="0"/>
        <pt x="566" y="490" on="0"/>
        <pt x="518" y="567" on="0"/>
        <pt x="439" y="614" on="0"/>
        <pt x="382" y="614" on="1"/>
        <pt x="325" y="614" on="0"/>
        <pt x="208" y="559" on="0"/>
        <pt x="111" y="461" on="0"/>
        <pt x="47" y="327" on="0"/>
        <pt x="43" y="249" on="1"/>
        <pt x="43" y="194" on="0"/>
        <pt x="67" y="146" on="1"/>
        <pt x="77" y="126" on="0"/>
        <pt x="109" y="85" on="0"/>
        <pt x="157" y="50" on="0"/>
        <pt x="224" y="24" on="0"/>
        <pt x="268" y="18" on="1"/>
        <pt x="263" y="1" on="0"/>
        <pt x="240" y="-21" on="0"/>
        <pt x="213" y="-14" on="1"/>
        <pt x="203" y="-12" on="0"/>
        <pt x="157" y="-1" on="0"/>
        <pt x="102" y="23" on="0"/>
        <pt x="43" y="65" on="0"/>
        <pt x="-3" y="131" on="0"/>
        <pt x="-30" y="223" on="0"/>
        <pt x="-25" y="287" on="1"/>
        <pt x="-22" y="323" on="0"/>
        <pt x="5" y="405" on="0"/>
        <pt x="53" y="488" on="0"/>
        <pt x="122" y="564" on="0"/>
        <pt x="212" y="622" on="0"/>
        <pt x="321" y="657" on="0"/>
        <pt x="385" y="657" on="1"/>
        <pt x="455" y="657" on="0"/>
        <pt x="557" y="599" on="0"/>
        <pt x="622" y="508" on="0"/>
        <pt x="649" y="396" on="0"/>
      </contour>
      <contour>
        <pt x="243" y="172" on="1"/>
        <pt x="295" y="172" on="0"/>
        <pt x="389" y="283" on="0"/>
        <pt x="413" y="389" on="1"/>
        <pt x="398" y="377" on="0"/>
        <pt x="361" y="363" on="0"/>
        <pt x="342" y="374" on="1"/>
        <pt x="356" y="390" on="0"/>
        <pt x="371" y="417" on="0"/>
        <pt x="375" y="428" on="1"/>
        <pt x="379" y="440" on="0"/>
        <pt x="380" y="450" on="1"/>
        <pt x="382" y="464" on="0"/>
        <pt x="372" y="475" on="0"/>
        <pt x="366" y="475" on="1"/>
        <pt x="350" y="475" on="0"/>
        <pt x="294" y="438" on="0"/>
        <pt x="239" y="374" on="0"/>
        <pt x="195" y="288" on="0"/>
        <pt x="192" y="239" on="1"/>
        <pt x="191" y="218" on="0"/>
        <pt x="201" y="191" on="0"/>
        <pt x="217" y="177" on="0"/>
        <pt x="235" y="172" on="0"/>
      </contour>
    </TTGlyph>
    <TTGlyph name="atilde" xMin="-18" yMin="-15" xMax="530" yMax="575">
      <component glyphName="a" x="0" y="0" flags="0x204"/>
      <component glyphName="tilde" x="-117" y="-108" flags="0x4"/>
    </TTGlyph>
    <TTGlyph name="b" xMin="13" yMin="-16" xMax="529" yMax="724">
      <contour>
        <pt x="229" y="573" on="1"/>
        <pt x="214" y="513" on="0"/>
        <pt x="177" y="404" on="0"/>
        <pt x="138" y="309" on="0"/>
        <pt x="99" y="231" on="0"/>
        <pt x="84" y="202" on="1"/>
        <pt x="74" y="130" on="0"/>
        <pt x="94" y="42" on="0"/>
        <pt x="123" y="42" on="1"/>
        <pt x="147" y="42" on="0"/>
        <pt x="193" y="86" on="0"/>
        <pt x="229" y="150" on="0"/>
        <pt x="254" y="223" on="0"/>
        <pt x="257" y="252" on="1"/>
        <pt x="238" y="257" on="0"/>
        <pt x="212" y="282" on="0"/>
        <pt x="212" y="303" on="1"/>
        <pt x="212" y="317" on="0"/>
        <pt x="228" y="342" on="0"/>
        <pt x="250" y="360" on="0"/>
        <pt x="276" y="370" on="0"/>
        <pt x="287" y="370" on="1"/>
        <pt x="304" y="370" on="0"/>
        <pt x="328" y="327" on="0"/>
        <pt x="332" y="294" on="1"/>
        <pt x="372" y="295" on="0"/>
        <pt x="460" y="317" on="0"/>
        <pt x="499" y="334" on="1"/>
        <pt x="510" y="339" on="0"/>
        <pt x="524" y="335" on="0"/>
        <pt x="529" y="323" on="0"/>
        <pt x="523" y="308" on="0"/>
        <pt x="514" y="304" on="1"/>
        <pt x="491" y="291" on="0"/>
        <pt x="442" y="270" on="0"/>
        <pt x="394" y="256" on="0"/>
        <pt x="350" y="248" on="0"/>
        <pt x="332" y="248" on="1"/>
        <pt x="328" y="208" on="0"/>
        <pt x="286" y="115" on="0"/>
        <pt x="226" y="36" on="0"/>
        <pt x="153" y="-16" on="0"/>
        <pt x="118" y="-16" on="1"/>
        <pt x="107" y="-16" on="0"/>
        <pt x="71" y="-10" on="0"/>
        <pt x="37" y="26" on="0"/>
        <pt x="13" y="105" on="0"/>
        <pt x="15" y="178" on="1"/>
        <pt x="16" y="227" on="0"/>
        <pt x="36" y="337" on="0"/>
        <pt x="64" y="447" on="0"/>
        <pt x="99" y="550" on="0"/>
        <pt x="131" y="633" on="0"/>
        <pt x="158" y="689" on="0"/>
        <pt x="165" y="697" on="1"/>
        <pt x="174" y="708" on="0"/>
        <pt x="198" y="719" on="0"/>
        <pt x="221" y="724" on="0"/>
        <pt x="241" y="722" on="0"/>
        <pt x="245" y="720" on="1"/>
        <pt x="251" y="716" on="0"/>
        <pt x="246" y="636" on="0"/>
      </contour>
    </TTGlyph>
    <TTGlyph name="backslash" xMin="39" yMin="-16" xMax="239" yMax="754">
      <contour>
        <pt x="119" y="746" on="1"/>
        <pt x="120" y="738" on="0"/>
        <pt x="125" y="682" on="0"/>
        <pt x="134" y="598" on="0"/>
        <pt x="145" y="496" on="0"/>
        <pt x="159" y="390" on="0"/>
        <pt x="175" y="288" on="0"/>
        <pt x="184" y="247" on="1"/>
        <pt x="193" y="200" on="0"/>
        <pt x="203" y="155" on="1"/>
        <pt x="211" y="117" on="0"/>
        <pt x="231" y="32" on="0"/>
        <pt x="239" y="3" on="1"/>
        <pt x="228" y="-5" on="0"/>
        <pt x="208" y="-12" on="0"/>
        <pt x="200" y="-14" on="1"/>
        <pt x="190" y="-16" on="0"/>
        <pt x="181" y="-16" on="1"/>
        <pt x="161" y="-16" on="0"/>
        <pt x="149" y="-7" on="0"/>
        <pt x="146" y="7" on="1"/>
        <pt x="145" y="19" on="0"/>
        <pt x="137" y="70" on="1"/>
        <pt x="134" y="92" on="0"/>
        <pt x="124" y="157" on="0"/>
        <pt x="110" y="251" on="0"/>
        <pt x="91" y="376" on="0"/>
        <pt x="79" y="457" on="1"/>
        <pt x="42" y="702" on="1"/>
        <pt x="39" y="722" on="0"/>
        <pt x="52" y="741" on="0"/>
        <pt x="78" y="749" on="1"/>
        <pt x="98" y="754" on="0"/>
        <pt x="118" y="751" on="0"/>
      </contour>
    </TTGlyph>
    <TTGlyph name="bar" xMin="-2" yMin="-16" xMax="261" yMax="754">
      <contour>
        <pt x="219" y="749" on="1"/>
        <pt x="242" y="754" on="0"/>
        <pt x="261" y="751" on="0"/>
        <pt x="260" y="746" on="1"/>
        <pt x="258" y="739" on="0"/>
        <pt x="241" y="682" on="0"/>
        <pt x="218" y="599" on="0"/>
        <pt x="189" y="497" on="0"/>
        <pt x="162" y="391" on="0"/>
        <pt x="139" y="289" on="0"/>
        <pt x="132" y="247" on="1"/>
        <pt x="123" y="200" on="0"/>
        <pt x="115" y="155" on="1"/>
        <pt x="108" y="117" on="0"/>
        <pt x="95" y="32" on="0"/>
        <pt x="92" y="3" on="1"/>
        <pt x="78" y="-5" on="0"/>
        <pt x="55" y="-12" on="0"/>
        <pt x="46" y="-14" on="1"/>
        <pt x="35" y="-16" on="0"/>
        <pt x="27" y="-16" on="1"/>
        <pt x="7" y="-16" on="0"/>
        <pt x="-2" y="-7" on="0"/>
        <pt x="1" y="7" on="1"/>
        <pt x="4" y="19" on="0"/>
        <pt x="16" y="70" on="1"/>
        <pt x="21" y="92" on="0"/>
        <pt x="37" y="157" on="0"/>
        <pt x="59" y="251" on="0"/>
        <pt x="89" y="376" on="0"/>
        <pt x="109" y="457" on="1"/>
        <pt x="166" y="702" on="1"/>
        <pt x="171" y="722" on="0"/>
        <pt x="191" y="741" on="0"/>
      </contour>
    </TTGlyph>
    <TTGlyph name="braceleft" xMin="-23" yMin="-121" xMax="341" yMax="854">
      <contour>
        <pt x="111" y="-121" on="1"/>
        <pt x="93" y="-121" on="0"/>
        <pt x="46" y="-99" on="0"/>
        <pt x="4" y="-60" on="0"/>
        <pt x="-23" y="-5" on="0"/>
        <pt x="-20" y="28" on="1"/>
        <pt x="-17" y="71" on="0"/>
        <pt x="13" y="136" on="0"/>
        <pt x="47" y="192" on="0"/>
        <pt x="76" y="247" on="0"/>
        <pt x="79" y="280" on="1"/>
        <pt x="80" y="299" on="0"/>
        <pt x="75" y="316" on="1"/>
        <pt x="70" y="330" on="0"/>
        <pt x="49" y="355" on="0"/>
        <pt x="28" y="358" on="1"/>
        <pt x="27" y="364" on="0"/>
        <pt x="28" y="374" on="0"/>
        <pt x="29" y="379" on="1"/>
        <pt x="30" y="384" on="0"/>
        <pt x="31" y="389" on="1"/>
        <pt x="34" y="400" on="0"/>
        <pt x="42" y="418" on="0"/>
        <pt x="44" y="420" on="1"/>
        <pt x="74" y="415" on="0"/>
        <pt x="109" y="446" on="0"/>
        <pt x="119" y="468" on="1"/>
        <pt x="130" y="493" on="0"/>
        <pt x="134" y="527" on="1"/>
        <pt x="137" y="561" on="0"/>
        <pt x="132" y="601" on="0"/>
        <pt x="128" y="637" on="0"/>
        <pt x="129" y="679" on="0"/>
        <pt x="137" y="714" on="1"/>
        <pt x="146" y="752" on="0"/>
        <pt x="195" y="807" on="0"/>
        <pt x="256" y="841" on="0"/>
        <pt x="319" y="854" on="0"/>
        <pt x="341" y="850" on="1"/>
        <pt x="305" y="750" on="1"/>
        <pt x="287" y="751" on="0"/>
        <pt x="252" y="740" on="0"/>
        <pt x="223" y="717" on="0"/>
        <pt x="203" y="685" on="0"/>
        <pt x="200" y="665" on="1"/>
        <pt x="197" y="647" on="0"/>
        <pt x="199" y="616" on="0"/>
        <pt x="202" y="586" on="0"/>
        <pt x="205" y="554" on="0"/>
        <pt x="203" y="534" on="1"/>
        <pt x="199" y="476" on="0"/>
        <pt x="147" y="394" on="0"/>
        <pt x="101" y="378" on="1"/>
        <pt x="119" y="364" on="0"/>
        <pt x="143" y="310" on="0"/>
        <pt x="141" y="284" on="1"/>
        <pt x="138" y="240" on="0"/>
        <pt x="112" y="178" on="0"/>
        <pt x="83" y="131" on="0"/>
        <pt x="58" y="93" on="0"/>
        <pt x="57" y="73" on="1"/>
        <pt x="56" y="60" on="0"/>
        <pt x="61" y="32" on="0"/>
        <pt x="78" y="6" on="0"/>
        <pt x="110" y="-17" on="0"/>
        <pt x="136" y="-25" on="1"/>
        <pt x="111" y="-121" on="1"/>
      </contour>
    </TTGlyph>
    <TTGlyph name="braceright" xMin="-102" yMin="-125" xMax="262" yMax="850">
      <contour>
        <pt x="128" y="850" on="1"/>
        <pt x="146" y="850" on="0"/>
        <pt x="193" y="828" on="0"/>
        <pt x="235" y="789" on="0"/>
        <pt x="262" y="734" on="0"/>
        <pt x="259" y="701" on="1"/>
        <pt x="256" y="658" on="0"/>
        <pt x="226" y="593" on="0"/>
        <pt x="192" y="537" on="0"/>
        <pt x="163" y="483" on="0"/>
        <pt x="160" y="450" on="1"/>
        <pt x="159" y="430" on="0"/>
        <pt x="164" y="413" on="1"/>
        <pt x="169" y="399" on="0"/>
        <pt x="189" y="373" on="0"/>
        <pt x="211" y="371" on="1"/>
        <pt x="211" y="365" on="0"/>
        <pt x="211" y="354" on="0"/>
        <pt x="210" y="349" on="1"/>
        <pt x="209" y="344" on="0"/>
        <pt x="208" y="340" on="1"/>
        <pt x="205" y="329" on="0"/>
        <pt x="197" y="311" on="0"/>
        <pt x="195" y="309" on="1"/>
        <pt x="165" y="314" on="0"/>
        <pt x="129" y="283" on="0"/>
        <pt x="119" y="261" on="1"/>
        <pt x="108" y="235" on="0"/>
        <pt x="104" y="202" on="1"/>
        <pt x="101" y="168" on="0"/>
        <pt x="106" y="128" on="0"/>
        <pt x="110" y="92" on="0"/>
        <pt x="109" y="50" on="0"/>
        <pt x="101" y="15" on="1"/>
        <pt x="92" y="-23" on="0"/>
        <pt x="43" y="-78" on="0"/>
        <pt x="-17" y="-112" on="0"/>
        <pt x="-80" y="-125" on="0"/>
        <pt x="-102" y="-121" on="1"/>
        <pt x="-67" y="-20" on="1"/>
        <pt x="-49" y="-21" on="0"/>
        <pt x="-13" y="-10" on="0"/>
        <pt x="16" y="12" on="0"/>
        <pt x="36" y="44" on="0"/>
        <pt x="39" y="65" on="1"/>
        <pt x="42" y="83" on="0"/>
        <pt x="40" y="113" on="0"/>
        <pt x="37" y="143" on="0"/>
        <pt x="34" y="175" on="0"/>
        <pt x="36" y="196" on="1"/>
        <pt x="40" y="253" on="0"/>
        <pt x="92" y="336" on="0"/>
        <pt x="137" y="351" on="1"/>
        <pt x="128" y="358" on="0"/>
        <pt x="113" y="380" on="0"/>
        <pt x="102" y="405" on="0"/>
        <pt x="96" y="432" on="0"/>
        <pt x="97" y="445" on="1"/>
        <pt x="100" y="489" on="0"/>
        <pt x="126" y="551" on="0"/>
        <pt x="155" y="598" on="0"/>
        <pt x="179" y="636" on="0"/>
        <pt x="181" y="656" on="1"/>
        <pt x="182" y="669" on="0"/>
        <pt x="177" y="697" on="0"/>
        <pt x="160" y="723" on="0"/>
        <pt x="128" y="746" on="0"/>
        <pt x="102" y="754" on="1"/>
        <pt x="128" y="850" on="1"/>
      </contour>
    </TTGlyph>
    <TTGlyph name="bracketleft" xMin="-48" yMin="-114" xMax="309" yMax="849">
      <contour>
        <pt x="116" y="367" on="1"/>
        <pt x="101" y="310" on="0"/>
        <pt x="73" y="189" on="0"/>
        <pt x="51" y="87" on="0"/>
        <pt x="37" y="14" on="0"/>
        <pt x="36" y="4" on="1"/>
        <pt x="32" y="-17" on="0"/>
        <pt x="47" y="-53" on="0"/>
        <pt x="75" y="-53" on="1"/>
        <pt x="101" y="-53" on="1"/>
        <pt x="92" y="-109" on="1"/>
        <pt x="0" y="-114" on="1"/>
        <pt x="-8" y="-114" on="0"/>
        <pt x="-26" y="-113" on="0"/>
        <pt x="-41" y="-101" on="0"/>
        <pt x="-48" y="-76" on="0"/>
        <pt x="-44" y="-53" on="1"/>
        <pt x="-41" y="-31" on="0"/>
        <pt x="-23" y="58" on="0"/>
        <pt x="1" y="174" on="0"/>
        <pt x="31" y="307" on="0"/>
        <pt x="47" y="374" on="1"/>
        <pt x="64" y="446" on="0"/>
        <pt x="102" y="588" on="0"/>
        <pt x="135" y="705" on="0"/>
        <pt x="159" y="785" on="0"/>
        <pt x="163" y="797" on="1"/>
        <pt x="178" y="844" on="0"/>
        <pt x="210" y="848" on="1"/>
        <pt x="218" y="849" on="0"/>
        <pt x="246" y="849" on="0"/>
        <pt x="276" y="849" on="0"/>
        <pt x="302" y="848" on="0"/>
        <pt x="309" y="848" on="1"/>
        <pt x="293" y="777" on="1"/>
        <pt x="280" y="777" on="0"/>
        <pt x="255" y="775" on="0"/>
        <pt x="234" y="765" on="0"/>
        <pt x="217" y="743" on="0"/>
        <pt x="211" y="723" on="1"/>
        <pt x="188" y="646" on="0"/>
        <pt x="153" y="517" on="0"/>
        <pt x="141" y="469" on="1"/>
        <pt x="127" y="413" on="0"/>
      </contour>
    </TTGlyph>
    <TTGlyph name="bracketright" xMin="-102" yMin="-115" xMax="255" yMax="848">
      <contour>
        <pt x="91" y="368" on="1"/>
        <pt x="106" y="425" on="0"/>
        <pt x="134" y="545" on="0"/>
        <pt x="156" y="647" on="0"/>
        <pt x="169" y="720" on="0"/>
        <pt x="171" y="731" on="1"/>
        <pt x="175" y="751" on="0"/>
        <pt x="160" y="787" on="0"/>
        <pt x="132" y="787" on="1"/>
        <pt x="104" y="787" on="1"/>
        <pt x="114" y="844" on="1"/>
        <pt x="207" y="848" on="1"/>
        <pt x="214" y="848" on="0"/>
        <pt x="233" y="847" on="0"/>
        <pt x="248" y="835" on="0"/>
        <pt x="255" y="810" on="0"/>
        <pt x="251" y="787" on="1"/>
        <pt x="248" y="765" on="0"/>
        <pt x="230" y="677" on="0"/>
        <pt x="205" y="561" on="0"/>
        <pt x="175" y="427" on="0"/>
        <pt x="159" y="360" on="1"/>
        <pt x="142" y="288" on="0"/>
        <pt x="105" y="146" on="0"/>
        <pt x="72" y="30" on="0"/>
        <pt x="48" y="-50" on="0"/>
        <pt x="44" y="-62" on="1"/>
        <pt x="29" y="-109" on="0"/>
        <pt x="-3" y="-114" on="1"/>
        <pt x="-12" y="-115" on="0"/>
        <pt x="-40" y="-115" on="0"/>
        <pt x="-69" y="-115" on="0"/>
        <pt x="-95" y="-114" on="0"/>
        <pt x="-102" y="-114" on="1"/>
        <pt x="-87" y="-43" on="1"/>
        <pt x="-74" y="-43" on="0"/>
        <pt x="-49" y="-41" on="0"/>
        <pt x="-27" y="-31" on="0"/>
        <pt x="-10" y="-9" on="0"/>
        <pt x="-4" y="12" on="1"/>
        <pt x="18" y="88" on="0"/>
        <pt x="54" y="218" on="0"/>
        <pt x="66" y="266" on="1"/>
        <pt x="80" y="322" on="0"/>
      </contour>
    </TTGlyph>
    <TTGlyph name="breve" xMin="216" yMin="551" xMax="485" yMax="684">
      <contour>
        <pt x="421" y="671" on="1"/>
        <pt x="423" y="677" on="0"/>
        <pt x="444" y="682" on="0"/>
        <pt x="467" y="682" on="0"/>
        <pt x="485" y="676" on="0"/>
        <pt x="484" y="671" on="1"/>
        <pt x="479" y="646" on="0"/>
        <pt x="449" y="603" on="0"/>
        <pt x="406" y="570" on="0"/>
        <pt x="354" y="551" on="0"/>
        <pt x="327" y="551" on="1"/>
        <pt x="300" y="551" on="0"/>
        <pt x="256" y="570" on="0"/>
        <pt x="227" y="602" on="0"/>
        <pt x="216" y="646" on="0"/>
        <pt x="221" y="671" on="1"/>
        <pt x="222" y="679" on="0"/>
        <pt x="243" y="684" on="0"/>
        <pt x="267" y="683" on="0"/>
        <pt x="286" y="675" on="0"/>
        <pt x="285" y="671" on="1"/>
        <pt x="280" y="644" on="0"/>
        <pt x="311" y="609" on="0"/>
        <pt x="340" y="609" on="1"/>
        <pt x="368" y="609" on="0"/>
        <pt x="413" y="645" on="0"/>
      </contour>
    </TTGlyph>
    <TTGlyph name="brokenbar" xMin="-1" yMin="-16" xMax="261" yMax="754">
      <contour>
        <pt x="219" y="749" on="1"/>
        <pt x="242" y="754" on="0"/>
        <pt x="261" y="751" on="0"/>
        <pt x="260" y="746" on="1"/>
        <pt x="258" y="738" on="0"/>
        <pt x="241" y="679" on="0"/>
        <pt x="217" y="593" on="0"/>
        <pt x="189" y="487" on="0"/>
        <pt x="175" y="433" on="1"/>
        <pt x="173" y="430" on="0"/>
        <pt x="168" y="426" on="1"/>
        <pt x="163" y="423" on="0"/>
        <pt x="146" y="418" on="0"/>
        <pt x="132" y="418" on="1"/>
        <pt x="119" y="417" on="0"/>
        <pt x="106" y="423" on="0"/>
        <pt x="104" y="427" on="1"/>
        <pt x="101" y="431" on="0"/>
        <pt x="102" y="436" on="1"/>
        <pt x="108" y="457" on="1"/>
        <pt x="166" y="702" on="1"/>
        <pt x="171" y="722" on="0"/>
        <pt x="191" y="741" on="0"/>
      </contour>
      <contour>
        <pt x="114" y="331" on="1"/>
        <pt x="128" y="330" on="0"/>
        <pt x="141" y="324" on="0"/>
        <pt x="143" y="320" on="1"/>
        <pt x="146" y="316" on="0"/>
        <pt x="145" y="310" on="1"/>
        <pt x="141" y="293" on="0"/>
        <pt x="134" y="261" on="0"/>
        <pt x="132" y="247" on="1"/>
        <pt x="123" y="200" on="0"/>
        <pt x="115" y="155" on="1"/>
        <pt x="108" y="117" on="0"/>
        <pt x="95" y="32" on="0"/>
        <pt x="92" y="3" on="1"/>
        <pt x="78" y="-5" on="0"/>
        <pt x="55" y="-12" on="0"/>
        <pt x="46" y="-14" on="1"/>
        <pt x="35" y="-16" on="0"/>
        <pt x="27" y="-16" on="1"/>
        <pt x="7" y="-16" on="0"/>
        <pt x="-1" y="-7" on="0"/>
        <pt x="1" y="7" on="1"/>
        <pt x="2" y="11" on="0"/>
        <pt x="16" y="71" on="0"/>
        <pt x="37" y="159" on="0"/>
        <pt x="62" y="263" on="0"/>
        <pt x="74" y="311" on="1"/>
        <pt x="76" y="318" on="0"/>
        <pt x="81" y="322" on="1"/>
        <pt x="86" y="326" on="0"/>
        <pt x="100" y="332" on="0"/>
      </contour>
    </TTGlyph>
    <TTGlyph name="bullet" xMin="-10" yMin="175" xMax="160" yMax="404">
      <contour>
        <pt x="52" y="175" on="1"/>
        <pt x="30" y="175" on="0"/>
        <pt x="5" y="194" on="0"/>
        <pt x="-7" y="222" on="0"/>
        <pt x="-10" y="255" on="0"/>
        <pt x="-10" y="270" on="1"/>
        <pt x="-10" y="288" on="0"/>
        <pt x="4" y="334" on="0"/>
        <pt x="30" y="376" on="0"/>
        <pt x="69" y="404" on="0"/>
        <pt x="95" y="404" on="1"/>
        <pt x="102" y="404" on="0"/>
        <pt x="124" y="395" on="0"/>
        <pt x="145" y="376" on="0"/>
        <pt x="160" y="345" on="0"/>
        <pt x="160" y="324" on="1"/>
        <pt x="160" y="297" on="0"/>
        <pt x="145" y="243" on="0"/>
        <pt x="117" y="201" on="0"/>
        <pt x="77" y="175" on="0"/>
      </contour>
    </TTGlyph>
    <TTGlyph name="c" xMin="-10" yMin="-26" xMax="454" yMax="422">
      <contour>
        <pt x="170" y="34" on="1"/>
        <pt x="201" y="34" on="0"/>
        <pt x="276" y="83" on="0"/>
        <pt x="347" y="149" on="0"/>
        <pt x="406" y="218" on="0"/>
        <pt x="421" y="239" on="1"/>
        <pt x="430" y="252" on="0"/>
        <pt x="446" y="257" on="0"/>
        <pt x="454" y="247" on="0"/>
        <pt x="452" y="226" on="0"/>
        <pt x="444" y="213" on="1"/>
        <pt x="437" y="201" on="0"/>
        <pt x="404" y="156" on="0"/>
        <pt x="359" y="103" on="0"/>
        <pt x="302" y="48" on="0"/>
        <pt x="240" y="3" on="0"/>
        <pt x="174" y="-26" on="0"/>
        <pt x="142" y="-26" on="1"/>
        <pt x="98" y="-26" on="0"/>
        <pt x="39" y="7" on="0"/>
        <pt x="4" y="59" on="0"/>
        <pt x="-10" y="122" on="0"/>
        <pt x="-10" y="153" on="1"/>
        <pt x="-10" y="184" on="0"/>
        <pt x="18" y="276" on="0"/>
        <pt x="73" y="361" on="0"/>
        <pt x="157" y="422" on="0"/>
        <pt x="214" y="422" on="1"/>
        <pt x="246" y="422" on="0"/>
        <pt x="291" y="378" on="0"/>
        <pt x="290" y="340" on="1"/>
        <pt x="290" y="322" on="0"/>
        <pt x="278" y="287" on="0"/>
        <pt x="258" y="260" on="0"/>
        <pt x="231" y="244" on="0"/>
        <pt x="215" y="244" on="1"/>
        <pt x="202" y="244" on="0"/>
        <pt x="189" y="263" on="0"/>
        <pt x="186" y="288" on="0"/>
        <pt x="189" y="312" on="0"/>
        <pt x="191" y="316" on="1"/>
        <pt x="196" y="323" on="0"/>
        <pt x="208" y="329" on="0"/>
        <pt x="216" y="333" on="1"/>
        <pt x="222" y="336" on="0"/>
        <pt x="229" y="348" on="0"/>
        <pt x="229" y="362" on="0"/>
        <pt x="221" y="372" on="0"/>
        <pt x="212" y="372" on="1"/>
        <pt x="203" y="372" on="0"/>
        <pt x="156" y="343" on="0"/>
        <pt x="107" y="286" on="0"/>
        <pt x="69" y="200" on="0"/>
        <pt x="68" y="143" on="1"/>
        <pt x="67" y="110" on="0"/>
        <pt x="87" y="68" on="0"/>
        <pt x="117" y="44" on="0"/>
        <pt x="153" y="34" on="0"/>
      </contour>
    </TTGlyph>
    <TTGlyph name="caron" xMin="208" yMin="579" xMax="496" yMax="699">
      <contour>
        <pt x="246" y="650" on="1"/>
        <pt x="236" y="665" on="0"/>
        <pt x="220" y="686" on="0"/>
        <pt x="208" y="693" on="1"/>
        <pt x="215" y="698" on="0"/>
        <pt x="236" y="699" on="0"/>
        <pt x="246" y="699" on="1"/>
        <pt x="257" y="698" on="0"/>
        <pt x="270" y="697" on="1"/>
        <pt x="289" y="695" on="0"/>
        <pt x="314" y="669" on="0"/>
        <pt x="332" y="632" on="1"/>
        <pt x="332" y="631" on="0"/>
        <pt x="333" y="630" on="0"/>
        <pt x="333" y="629" on="1"/>
        <pt x="370" y="659" on="0"/>
        <pt x="397" y="682" on="0"/>
        <pt x="399" y="684" on="1"/>
        <pt x="416" y="697" on="0"/>
        <pt x="448" y="693" on="0"/>
        <pt x="462" y="694" on="1"/>
        <pt x="474" y="694" on="1"/>
        <pt x="479" y="694" on="0"/>
        <pt x="491" y="695" on="0"/>
        <pt x="496" y="696" on="1"/>
        <pt x="491" y="691" on="0"/>
        <pt x="467" y="672" on="0"/>
        <pt x="454" y="662" on="1"/>
        <pt x="439" y="651" on="0"/>
        <pt x="422" y="637" on="1"/>
        <pt x="416" y="632" on="0"/>
        <pt x="396" y="616" on="0"/>
        <pt x="375" y="600" on="0"/>
        <pt x="358" y="587" on="0"/>
        <pt x="354" y="585" on="1"/>
        <pt x="351" y="582" on="0"/>
        <pt x="329" y="579" on="0"/>
        <pt x="305" y="579" on="0"/>
        <pt x="284" y="583" on="0"/>
        <pt x="282" y="586" on="1"/>
        <pt x="280" y="589" on="0"/>
        <pt x="270" y="607" on="0"/>
        <pt x="258" y="628" on="0"/>
        <pt x="248" y="646" on="0"/>
      </contour>
    </TTGlyph>
    <TTGlyph name="ccedilla" xMin="-10" yMin="-236" xMax="454" yMax="422">
      <contour>
        <pt x="126" y="-74" on="1"/>
        <pt x="182" y="-72" on="0"/>
        <pt x="233" y="-108" on="0"/>
        <pt x="228" y="-140" on="1"/>
        <pt x="226" y="-157" on="0"/>
        <pt x="200" y="-188" on="0"/>
        <pt x="158" y="-213" on="0"/>
        <pt x="104" y="-231" on="0"/>
        <pt x="74" y="-234" on="1"/>
        <pt x="61" y="-236" on="0"/>
        <pt x="47" y="-228" on="0"/>
        <pt x="46" y="-217" on="0"/>
        <pt x="59" y="-205" on="0"/>
        <pt x="72" y="-202" on="1"/>
        <pt x="105" y="-194" on="0"/>
        <pt x="153" y="-166" on="0"/>
        <pt x="156" y="-148" on="1"/>
        <pt x="158" y="-131" on="0"/>
        <pt x="118" y="-112" on="0"/>
        <pt x="84" y="-115" on="1"/>
        <pt x="72" y="-116" on="0"/>
        <pt x="58" y="-106" on="0"/>
        <pt x="60" y="-95" on="1"/>
        <pt x="60" y="-92" on="0"/>
        <pt x="68" y="-72" on="0"/>
        <pt x="78" y="-48" on="0"/>
        <pt x="87" y="-24" on="0"/>
        <pt x="90" y="-18" on="1"/>
        <pt x="61" y="-9" on="0"/>
        <pt x="23" y="27" on="0"/>
        <pt x="-1" y="74" on="0"/>
        <pt x="-10" y="127" on="0"/>
        <pt x="-10" y="153" on="1"/>
        <pt x="-10" y="184" on="0"/>
        <pt x="18" y="276" on="0"/>
        <pt x="73" y="361" on="0"/>
        <pt x="157" y="422" on="0"/>
        <pt x="214" y="422" on="1"/>
        <pt x="246" y="422" on="0"/>
        <pt x="291" y="378" on="0"/>
        <pt x="290" y="340" on="1"/>
        <pt x="290" y="322" on="0"/>
        <pt x="278" y="287" on="0"/>
        <pt x="258" y="260" on="0"/>
        <pt x="231" y="244" on="0"/>
        <pt x="215" y="244" on="1"/>
        <pt x="202" y="244" on="0"/>
        <pt x="189" y="263" on="0"/>
        <pt x="186" y="288" on="0"/>
        <pt x="189" y="312" on="0"/>
        <pt x="191" y="316" on="1"/>
        <pt x="196" y="323" on="0"/>
        <pt x="208" y="329" on="0"/>
        <pt x="216" y="333" on="1"/>
        <pt x="222" y="336" on="0"/>
        <pt x="229" y="348" on="0"/>
        <pt x="229" y="362" on="0"/>
        <pt x="221" y="372" on="0"/>
        <pt x="212" y="372" on="1"/>
        <pt x="203" y="372" on="0"/>
        <pt x="156" y="343" on="0"/>
        <pt x="107" y="286" on="0"/>
        <pt x="69" y="200" on="0"/>
        <pt x="68" y="143" on="1"/>
        <pt x="67" y="110" on="0"/>
        <pt x="87" y="68" on="0"/>
        <pt x="117" y="44" on="0"/>
        <pt x="153" y="34" on="0"/>
        <pt x="170" y="34" on="1"/>
        <pt x="201" y="34" on="0"/>
        <pt x="276" y="83" on="0"/>
        <pt x="347" y="149" on="0"/>
        <pt x="406" y="218" on="0"/>
        <pt x="421" y="239" on="1"/>
        <pt x="430" y="252" on="0"/>
        <pt x="446" y="257" on="0"/>
        <pt x="454" y="247" on="0"/>
        <pt x="452" y="226" on="0"/>
        <pt x="444" y="213" on="1"/>
        <pt x="437" y="201" on="0"/>
        <pt x="406" y="158" on="0"/>
        <pt x="362" y="107" on="0"/>
        <pt x="308" y="53" on="0"/>
        <pt x="248" y="7" on="0"/>
        <pt x="184" y="-24" on="0"/>
        <pt x="152" y="-26" on="1"/>
        <pt x="144" y="-38" on="0"/>
      </contour>
    </TTGlyph>
    <TTGlyph name="cedilla" xMin="260" yMin="-141" xMax="447" yMax="97">
      <contour>
        <pt x="340" y="22" on="1"/>
        <pt x="396" y="24" on="0"/>
        <pt x="447" y="-13" on="0"/>
        <pt x="442" y="-45" on="1"/>
        <pt x="440" y="-62" on="0"/>
        <pt x="414" y="-93" on="0"/>
        <pt x="372" y="-118" on="0"/>
        <pt x="318" y="-136" on="0"/>
        <pt x="288" y="-139" on="1"/>
        <pt x="275" y="-141" on="0"/>
        <pt x="261" y="-133" on="0"/>
        <pt x="260" y="-121" on="0"/>
        <pt x="273" y="-109" on="0"/>
        <pt x="286" y="-106" on="1"/>
        <pt x="319" y="-98" on="0"/>
        <pt x="367" y="-71" on="0"/>
        <pt x="370" y="-53" on="1"/>
        <pt x="372" y="-36" on="0"/>
        <pt x="332" y="-16" on="0"/>
        <pt x="298" y="-19" on="1"/>
        <pt x="286" y="-20" on="0"/>
        <pt x="272" y="-11" on="0"/>
        <pt x="274" y="0" on="1"/>
        <pt x="275" y="4" on="0"/>
        <pt x="284" y="29" on="0"/>
        <pt x="296" y="57" on="0"/>
        <pt x="306" y="80" on="0"/>
        <pt x="307" y="82" on="1"/>
        <pt x="310" y="87" on="0"/>
        <pt x="331" y="96" on="0"/>
        <pt x="346" y="97" on="1"/>
        <pt x="357" y="97" on="0"/>
        <pt x="377" y="91" on="0"/>
        <pt x="375" y="87" on="1"/>
        <pt x="373" y="83" on="0"/>
        <pt x="369" y="75" on="1"/>
        <pt x="365" y="68" on="0"/>
        <pt x="351" y="43" on="0"/>
      </contour>
    </TTGlyph>
</ttFont>
